M48
; DRILL file {KiCad (5.99.0-11604-g878538abff)} date Friday, August 06, 2021 at 01:26:29 PM
; FORMAT={-:-/ absolute / inch / decimal}
; #@! TF.CreationDate,2021-08-06T13:26:29+02:00
; #@! TF.GenerationSoftware,Kicad,Pcbnew,(5.99.0-11604-g878538abff)
; #@! TF.FileFunction,Plated,1,2,PTH
FMAT,2
INCH
; #@! TA.AperFunction,Plated,PTH,ViaDrill
T1C0.0157
; #@! TA.AperFunction,Plated,PTH,ComponentDrill
T2C0.0394
%
G90
G05
T1
X2.664Y-2.203
X2.6688Y-2.4387
X2.694Y-2.115
X2.7064Y-2.5365
X2.7634Y-2.6244
X2.7894Y-2.4508
X2.8317Y-2.0423
X2.8375Y-2.6985
X2.873Y-2.2677
X2.8799Y-1.8888
X2.8967Y-2.5561
X2.9253Y-2.7555
X2.9291Y-2.1358
X2.9409Y-2.5089
X2.958Y-1.849
X2.9685Y-2.6575
X3.0231Y-2.7931
X3.052Y-1.818
X3.0591Y-2.5512
X3.0728Y-2.6594
X3.0738Y-1.9537
X3.2303Y-2.6309
X3.2303Y-2.6841
X3.2312Y-2.804
X3.2825Y-1.825
X3.2992Y-2.4843
X3.315Y-2.6811
X3.3324Y-2.7769
X3.3504Y-2.1919
X3.3803Y-1.8626
X3.4258Y-2.7293
X3.4301Y-2.1211
X3.4528Y-2.3071
X3.4528Y-2.3465
X3.4682Y-1.9196
X3.502Y-2.663
X3.5423Y-1.9937
X3.562Y-2.593
X3.5993Y-2.0815
X3.612Y-2.504
X3.6369Y-2.1793
X3.643Y-2.41
T2
G00X3.1506Y-2.625
M15
G01X3.1506Y-2.7037
M16
G05
G00X3.1535Y-1.9163
M15
G01X3.1535Y-1.9951
M16
G05
T0
M30
