%TF.GenerationSoftware,KiCad,Pcbnew,(5.99.0-11604-g878538abff)*%
%TF.CreationDate,2021-08-06T13:26:27+02:00*%
%TF.ProjectId,pixel-pump-motor-board,70697865-6c2d-4707-956d-702d6d6f746f,rev?*%
%TF.SameCoordinates,Original*%
%TF.FileFunction,Copper,L1,Top*%
%TF.FilePolarity,Positive*%
%FSLAX46Y46*%
G04 Gerber Fmt 4.6, Leading zero omitted, Abs format (unit mm)*
G04 Created by KiCad (PCBNEW (5.99.0-11604-g878538abff)) date 2021-08-06 13:26:27*
%MOMM*%
%LPD*%
G01*
G04 APERTURE LIST*
G04 Aperture macros list*
%AMRoundRect*
0 Rectangle with rounded corners*
0 $1 Rounding radius*
0 $2 $3 $4 $5 $6 $7 $8 $9 X,Y pos of 4 corners*
0 Add a 4 corners polygon primitive as box body*
4,1,4,$2,$3,$4,$5,$6,$7,$8,$9,$2,$3,0*
0 Add four circle primitives for the rounded corners*
1,1,$1+$1,$2,$3*
1,1,$1+$1,$4,$5*
1,1,$1+$1,$6,$7*
1,1,$1+$1,$8,$9*
0 Add four rect primitives between the rounded corners*
20,1,$1+$1,$2,$3,$4,$5,0*
20,1,$1+$1,$4,$5,$6,$7,0*
20,1,$1+$1,$6,$7,$8,$9,0*
20,1,$1+$1,$8,$9,$2,$3,0*%
%AMRotRect*
0 Rectangle, with rotation*
0 The origin of the aperture is its center*
0 $1 length*
0 $2 width*
0 $3 Rotation angle, in degrees counterclockwise*
0 Add horizontal line*
21,1,$1,$2,0,0,$3*%
G04 Aperture macros list end*
%TA.AperFunction,SMDPad,CuDef*%
%ADD10RotRect,0.863600X1.473200X315.000000*%
%TD*%
%TA.AperFunction,SMDPad,CuDef*%
%ADD11RotRect,0.685800X0.533400X315.000000*%
%TD*%
%TA.AperFunction,SMDPad,CuDef*%
%ADD12RotRect,0.990600X1.498600X45.000000*%
%TD*%
%TA.AperFunction,SMDPad,CuDef*%
%ADD13RotRect,3.276600X1.498600X45.000000*%
%TD*%
%TA.AperFunction,ComponentPad*%
%ADD14O,2.500000X4.200000*%
%TD*%
%TA.AperFunction,SMDPad,CuDef*%
%ADD15RoundRect,0.250000X0.618718X-0.017678X-0.017678X0.618718X-0.618718X0.017678X0.017678X-0.618718X0*%
%TD*%
%TA.AperFunction,SMDPad,CuDef*%
%ADD16RoundRect,0.150000X0.625000X-0.150000X0.625000X0.150000X-0.625000X0.150000X-0.625000X-0.150000X0*%
%TD*%
%TA.AperFunction,SMDPad,CuDef*%
%ADD17RoundRect,0.250000X0.650000X-0.350000X0.650000X0.350000X-0.650000X0.350000X-0.650000X-0.350000X0*%
%TD*%
%TA.AperFunction,SMDPad,CuDef*%
%ADD18RoundRect,0.200000X0.053033X-0.335876X0.335876X-0.053033X-0.053033X0.335876X-0.335876X0.053033X0*%
%TD*%
%TA.AperFunction,SMDPad,CuDef*%
%ADD19RotRect,0.900000X1.200000X45.000000*%
%TD*%
%TA.AperFunction,SMDPad,CuDef*%
%ADD20RoundRect,0.200000X-0.053033X0.335876X-0.335876X0.053033X0.053033X-0.335876X0.335876X-0.053033X0*%
%TD*%
%TA.AperFunction,SMDPad,CuDef*%
%ADD21RotRect,1.100000X1.100000X45.000000*%
%TD*%
%TA.AperFunction,ViaPad*%
%ADD22C,0.800000*%
%TD*%
%TA.AperFunction,Conductor*%
%ADD23C,0.500000*%
%TD*%
%TA.AperFunction,Conductor*%
%ADD24C,0.250000*%
%TD*%
G04 APERTURE END LIST*
D10*
%TO.P,U1,1,1*%
%TO.N,Net-(D1-Pad2)*%
X85163619Y-63763619D03*
%TO.P,U1,2,2*%
%TO.N,BEMF_PIN*%
X86636381Y-65236381D03*
D11*
%TO.P,U1,3,3*%
%TO.N,GND*%
X86483717Y-63916283D03*
%TO.P,U1,4,4*%
X85316283Y-65083717D03*
%TD*%
D12*
%TO.P,Q1,1*%
%TO.N,Net-(Q1-Pad1)*%
X73760138Y-56868030D03*
%TO.P,Q1,2*%
%TO.N,Net-(D1-Pad2)*%
X75376584Y-55251584D03*
%TO.P,Q1,3*%
%TO.N,GND*%
X76993030Y-53635138D03*
D13*
%TO.P,Q1,T*%
%TO.N,Net-(D1-Pad2)*%
X70922377Y-50797377D03*
%TD*%
D14*
%TO.P,J3,1,motor*%
%TO.N,Net-(D1-Pad2)*%
X80100000Y-49675000D03*
%TD*%
D15*
%TO.P,C1,1*%
%TO.N,BEMF_PIN*%
X85254594Y-67254594D03*
%TO.P,C1,2*%
%TO.N,GND*%
X83345406Y-65345406D03*
%TD*%
D16*
%TO.P,J1,1,Pin_1*%
%TO.N,BEMF_PIN*%
X89275000Y-60600000D03*
%TO.P,J1,2,Pin_2*%
%TO.N,PWM*%
X89275000Y-59600000D03*
%TO.P,J1,3,Pin_3*%
%TO.N,BEMF*%
X89275000Y-58600000D03*
%TO.P,J1,4,Pin_4*%
%TO.N,GND*%
X89275000Y-57600000D03*
D17*
%TO.P,J1,MP*%
%TO.N,N/C*%
X86750000Y-61900000D03*
X86750000Y-56300000D03*
%TD*%
D18*
%TO.P,R1,1*%
%TO.N,Net-(Q1-Pad1)*%
X72822637Y-64235763D03*
%TO.P,R1,2*%
%TO.N,PWM*%
X73989363Y-63069037D03*
%TD*%
%TO.P,R4,1*%
%TO.N,BEMF*%
X84066637Y-53508363D03*
%TO.P,R4,2*%
%TO.N,GND*%
X85233363Y-52341637D03*
%TD*%
D14*
%TO.P,J2,1,motor*%
%TO.N,BEMF_PIN*%
X80025000Y-67675000D03*
%TD*%
D18*
%TO.P,R2,1*%
%TO.N,Net-(Q1-Pad1)*%
X71527237Y-62889563D03*
%TO.P,R2,2*%
%TO.N,GND*%
X72693963Y-61722837D03*
%TD*%
D19*
%TO.P,D2,1,K*%
%TO.N,BEMF*%
X82883274Y-52366726D03*
%TO.P,D2,2,A*%
%TO.N,GND*%
X85216726Y-50033274D03*
%TD*%
D20*
%TO.P,R3,1*%
%TO.N,BEMF_PIN*%
X86208363Y-53291637D03*
%TO.P,R3,2*%
%TO.N,BEMF*%
X85041637Y-54458363D03*
%TD*%
D21*
%TO.P,D1,1,K*%
%TO.N,BEMF_PIN*%
X74510051Y-66589949D03*
%TO.P,D1,2,A*%
%TO.N,Net-(D1-Pad2)*%
X76489949Y-64610051D03*
%TD*%
D22*
%TO.N,BEMF_PIN*%
X75400000Y-67500000D03*
X87125000Y-53875000D03*
X82050000Y-68175000D03*
X82050000Y-66825000D03*
X78050000Y-67550000D03*
X84200000Y-68100000D03*
%TO.N,GND*%
X91422785Y-52871178D03*
X88950800Y-67640200D03*
X85860479Y-47308872D03*
X70190670Y-66659475D03*
X82073209Y-71220754D03*
X72072182Y-68540987D03*
X68427600Y-53721000D03*
X67665600Y-55956200D03*
X92532200Y-61214000D03*
X83376352Y-46355305D03*
X76787894Y-70943763D03*
X90474800Y-65862200D03*
X91744800Y-63601600D03*
X68741461Y-64427890D03*
X87014246Y-69324068D03*
X89973576Y-50639593D03*
X74303767Y-69990196D03*
X75133200Y-46964600D03*
X73150000Y-47975000D03*
X67787894Y-61943763D03*
X92376352Y-55355305D03*
X84643402Y-70532073D03*
X88092064Y-48758081D03*
X77520800Y-46177200D03*
%TO.N,Net-(D1-Pad2)*%
X77700000Y-64800000D03*
X71925000Y-51875000D03*
X78075000Y-49625000D03*
X83800000Y-63100000D03*
X74400000Y-54250000D03*
%TO.N,PWM*%
X74700000Y-63725000D03*
X87700000Y-59600000D03*
%TO.N,BEMF*%
X87700000Y-58600000D03*
X85100000Y-55675000D03*
%TO.N,Net-(Q1-Pad1)*%
X73575000Y-64925000D03*
X70850000Y-62250000D03*
X72975000Y-57600000D03*
%TD*%
D23*
%TO.N,BEMF_PIN*%
X86636381Y-65872807D02*
X85254594Y-67254594D01*
X89275000Y-60600000D02*
X89275000Y-62575000D01*
X82050000Y-68175000D02*
X80494000Y-68175000D01*
X80494000Y-68175000D02*
X80060800Y-67741800D01*
D24*
X80977600Y-66825000D02*
X80060800Y-67741800D01*
D23*
X74510051Y-66589949D02*
X74510051Y-66610051D01*
D24*
X86541637Y-53291637D02*
X87125000Y-53875000D01*
D23*
X74510051Y-66610051D02*
X75400000Y-67500000D01*
D24*
X86208363Y-53291637D02*
X86541637Y-53291637D01*
D23*
X89275000Y-62575000D02*
X87700000Y-64150000D01*
X79869000Y-67550000D02*
X80060800Y-67741800D01*
X85254594Y-67254594D02*
X85045406Y-67254594D01*
D24*
X82050000Y-66825000D02*
X80977600Y-66825000D01*
D23*
X78050000Y-67550000D02*
X79869000Y-67550000D01*
X87700000Y-64172762D02*
X86636381Y-65236381D01*
X86636381Y-65236381D02*
X86636381Y-65872807D01*
X85045406Y-67254594D02*
X84200000Y-68100000D01*
X87700000Y-64150000D02*
X87700000Y-64172762D01*
%TO.N,GND*%
X85316283Y-65083717D02*
X86483717Y-63916283D01*
%TO.N,Net-(D1-Pad2)*%
X80105000Y-49625000D02*
X80111600Y-49631600D01*
X78075000Y-49625000D02*
X80105000Y-49625000D01*
X70922377Y-50797377D02*
X70922377Y-50872377D01*
X77510051Y-64610051D02*
X77700000Y-64800000D01*
X83800000Y-63100000D02*
X84500000Y-63100000D01*
X70922377Y-50872377D02*
X71925000Y-51875000D01*
X84500000Y-63100000D02*
X85163619Y-63763619D01*
X76489949Y-64610051D02*
X77510051Y-64610051D01*
X74400000Y-54250000D02*
X74400000Y-54275000D01*
X74400000Y-54275000D02*
X75376584Y-55251584D01*
D24*
%TO.N,PWM*%
X74044037Y-63069037D02*
X74700000Y-63725000D01*
X87700000Y-59600000D02*
X89275000Y-59600000D01*
X73989363Y-63069037D02*
X74044037Y-63069037D01*
%TO.N,BEMF*%
X87700000Y-58600000D02*
X89275000Y-58600000D01*
X85041637Y-54458363D02*
X85041637Y-55616637D01*
X85041637Y-55616637D02*
X85100000Y-55675000D01*
X84066637Y-53508363D02*
X84091637Y-53508363D01*
X84091637Y-53508363D02*
X85041637Y-54458363D01*
X82925000Y-52366726D02*
X84066637Y-53508363D01*
X82883274Y-52366726D02*
X82925000Y-52366726D01*
D23*
%TO.N,Net-(Q1-Pad1)*%
X73575000Y-64925000D02*
X73511874Y-64925000D01*
X73760138Y-56868030D02*
X73706970Y-56868030D01*
X70887674Y-62250000D02*
X71527237Y-62889563D01*
X70850000Y-62250000D02*
X70887674Y-62250000D01*
X73511874Y-64925000D02*
X72822637Y-64235763D01*
X73706970Y-56868030D02*
X72975000Y-57600000D01*
%TD*%
%TA.AperFunction,Conductor*%
%TO.N,GND*%
G36*
X80832637Y-44787254D02*
G01*
X80839190Y-44787597D01*
X81467304Y-44837031D01*
X81558120Y-44844179D01*
X81564682Y-44844869D01*
X82279629Y-44938993D01*
X82286127Y-44940023D01*
X82995184Y-45071438D01*
X83001617Y-45072805D01*
X83702858Y-45241158D01*
X83709196Y-45242857D01*
X84400616Y-45447665D01*
X84406890Y-45449703D01*
X85086660Y-45690423D01*
X85092818Y-45692787D01*
X85759045Y-45968747D01*
X85765071Y-45971430D01*
X86415943Y-46281880D01*
X86421821Y-46284875D01*
X86659271Y-46413799D01*
X87055569Y-46628972D01*
X87061240Y-46632246D01*
X87584706Y-46953026D01*
X87676129Y-47009050D01*
X87681661Y-47012643D01*
X88275954Y-47421090D01*
X88281279Y-47424959D01*
X88853401Y-47863964D01*
X88858524Y-47868112D01*
X89179150Y-48141953D01*
X89406852Y-48336429D01*
X89411751Y-48340840D01*
X89892385Y-48796944D01*
X89934844Y-48837236D01*
X89939505Y-48841897D01*
X90247716Y-49166683D01*
X90435901Y-49364989D01*
X90440315Y-49369892D01*
X90908629Y-49918217D01*
X90912780Y-49923343D01*
X91351785Y-50495465D01*
X91355654Y-50500790D01*
X91563159Y-50802711D01*
X91764101Y-51095083D01*
X91767694Y-51100615D01*
X91789243Y-51135780D01*
X92144498Y-51715504D01*
X92147772Y-51721175D01*
X92315329Y-52029776D01*
X92491869Y-52354923D01*
X92494864Y-52360801D01*
X92805314Y-53011673D01*
X92807997Y-53017699D01*
X93083957Y-53683926D01*
X93086321Y-53690084D01*
X93197459Y-54003928D01*
X93316250Y-54339380D01*
X93327041Y-54369854D01*
X93329078Y-54376124D01*
X93532861Y-55064083D01*
X93533882Y-55067531D01*
X93535586Y-55073886D01*
X93692923Y-55729243D01*
X93703937Y-55775118D01*
X93705306Y-55781560D01*
X93836720Y-56490608D01*
X93837751Y-56497115D01*
X93909338Y-57040878D01*
X93931875Y-57212064D01*
X93932565Y-57218624D01*
X93989101Y-57936962D01*
X93989146Y-57937537D01*
X93989490Y-57944107D01*
X94008367Y-58664993D01*
X94008367Y-58671575D01*
X93990128Y-59368133D01*
X93989491Y-59392457D01*
X93989147Y-59399028D01*
X93940138Y-60021736D01*
X93932565Y-60117958D01*
X93931875Y-60124518D01*
X93843461Y-60796097D01*
X93837752Y-60839458D01*
X93836721Y-60845965D01*
X93718904Y-61481657D01*
X93705308Y-61555012D01*
X93703939Y-61561455D01*
X93538634Y-62250000D01*
X93535590Y-62262679D01*
X93533887Y-62269034D01*
X93331753Y-62951426D01*
X93329079Y-62960454D01*
X93327042Y-62966724D01*
X93282746Y-63091812D01*
X93086321Y-63646498D01*
X93083957Y-63652656D01*
X92807997Y-64318883D01*
X92805314Y-64324909D01*
X92494864Y-64975781D01*
X92491869Y-64981659D01*
X92401192Y-65148666D01*
X92147772Y-65615407D01*
X92144498Y-65621078D01*
X91859600Y-66085990D01*
X91767694Y-66235967D01*
X91764101Y-66241499D01*
X91720121Y-66305491D01*
X91363072Y-66825000D01*
X91355663Y-66835780D01*
X91351785Y-66841117D01*
X90912780Y-67413239D01*
X90908632Y-67418362D01*
X90468828Y-67933305D01*
X90440315Y-67966690D01*
X90435904Y-67971589D01*
X89949273Y-68484392D01*
X89939508Y-68494682D01*
X89934847Y-68499343D01*
X89663456Y-68756884D01*
X89411755Y-68995739D01*
X89406855Y-69000150D01*
X89057059Y-69298905D01*
X88858527Y-69468467D01*
X88853401Y-69472618D01*
X88281279Y-69911623D01*
X88275954Y-69915492D01*
X88186568Y-69976926D01*
X87681661Y-70323939D01*
X87676129Y-70327532D01*
X87061240Y-70704336D01*
X87055569Y-70707610D01*
X86659271Y-70922783D01*
X86421821Y-71051707D01*
X86415943Y-71054702D01*
X85765071Y-71365152D01*
X85759045Y-71367835D01*
X85092818Y-71643795D01*
X85086660Y-71646159D01*
X84406890Y-71886879D01*
X84400620Y-71888916D01*
X83709196Y-72093725D01*
X83702858Y-72095424D01*
X83001617Y-72263777D01*
X82995184Y-72265144D01*
X82286127Y-72396559D01*
X82279629Y-72397589D01*
X81689794Y-72475242D01*
X81564680Y-72491713D01*
X81558120Y-72492403D01*
X81467304Y-72499551D01*
X80839190Y-72548985D01*
X80832637Y-72549328D01*
X80111737Y-72568205D01*
X80105169Y-72568205D01*
X79384269Y-72549328D01*
X79377716Y-72548985D01*
X78749602Y-72499551D01*
X78658786Y-72492403D01*
X78652226Y-72491713D01*
X78527112Y-72475242D01*
X77937277Y-72397589D01*
X77930779Y-72396559D01*
X77221722Y-72265144D01*
X77215289Y-72263777D01*
X76514048Y-72095424D01*
X76507710Y-72093725D01*
X75816286Y-71888916D01*
X75810016Y-71886879D01*
X75130246Y-71646159D01*
X75124088Y-71643795D01*
X74457861Y-71367835D01*
X74451835Y-71365152D01*
X73800963Y-71054702D01*
X73795085Y-71051707D01*
X73557635Y-70922783D01*
X73161337Y-70707610D01*
X73155666Y-70704336D01*
X72540777Y-70327532D01*
X72535245Y-70323939D01*
X72030338Y-69976926D01*
X71940952Y-69915492D01*
X71935627Y-69911623D01*
X71363505Y-69472618D01*
X71358379Y-69468467D01*
X71159848Y-69298905D01*
X70810051Y-69000150D01*
X70805151Y-68995739D01*
X70553451Y-68756884D01*
X70282059Y-68499343D01*
X70277398Y-68494682D01*
X70267633Y-68484392D01*
X69781002Y-67971589D01*
X69776591Y-67966690D01*
X69748078Y-67933305D01*
X69308274Y-67418362D01*
X69304126Y-67413239D01*
X68865121Y-66841117D01*
X68861243Y-66835780D01*
X68853835Y-66825000D01*
X68692288Y-66589949D01*
X73527806Y-66589949D01*
X73530227Y-66602120D01*
X73537483Y-66638597D01*
X73543367Y-66668180D01*
X73576495Y-66717760D01*
X74382240Y-67523505D01*
X74431820Y-67556633D01*
X74443989Y-67559054D01*
X74443990Y-67559054D01*
X74497880Y-67569773D01*
X74510051Y-67572194D01*
X74522222Y-67569773D01*
X74576112Y-67559054D01*
X74576113Y-67559054D01*
X74588282Y-67556633D01*
X74616039Y-67538086D01*
X74683790Y-67516873D01*
X74752257Y-67535657D01*
X74799700Y-67588474D01*
X74810960Y-67626407D01*
X74814956Y-67656762D01*
X74875464Y-67802841D01*
X74971718Y-67928282D01*
X75097159Y-68024536D01*
X75243238Y-68085044D01*
X75400000Y-68105682D01*
X75408188Y-68104604D01*
X75548574Y-68086122D01*
X75556762Y-68085044D01*
X75702841Y-68024536D01*
X75828282Y-67928282D01*
X75924536Y-67802841D01*
X75985044Y-67656762D01*
X75999099Y-67550000D01*
X77444318Y-67550000D01*
X77464956Y-67706762D01*
X77525464Y-67852841D01*
X77621718Y-67978282D01*
X77747159Y-68074536D01*
X77893238Y-68135044D01*
X78050000Y-68155682D01*
X78058188Y-68154604D01*
X78198574Y-68136122D01*
X78206762Y-68135044D01*
X78352841Y-68074536D01*
X78359390Y-68069511D01*
X78359393Y-68069509D01*
X78371795Y-68059992D01*
X78438015Y-68034391D01*
X78507564Y-68048655D01*
X78558361Y-68098256D01*
X78574500Y-68159954D01*
X78574500Y-68585463D01*
X78574712Y-68588036D01*
X78574712Y-68588047D01*
X78588649Y-68757565D01*
X78588650Y-68757571D01*
X78589073Y-68762716D01*
X78647179Y-68994048D01*
X78649237Y-68998781D01*
X78649238Y-68998784D01*
X78661756Y-69027572D01*
X78742288Y-69212784D01*
X78871845Y-69413049D01*
X78875324Y-69416872D01*
X78875326Y-69416875D01*
X78926049Y-69472618D01*
X79032371Y-69589464D01*
X79036422Y-69592663D01*
X79036426Y-69592667D01*
X79215500Y-69734091D01*
X79215504Y-69734093D01*
X79219555Y-69737293D01*
X79224076Y-69739789D01*
X79224078Y-69739790D01*
X79275318Y-69768076D01*
X79428369Y-69852564D01*
X79433238Y-69854288D01*
X79433242Y-69854290D01*
X79648337Y-69930459D01*
X79648339Y-69930460D01*
X79653206Y-69932183D01*
X79770617Y-69953098D01*
X79882940Y-69973106D01*
X79882944Y-69973106D01*
X79888028Y-69974012D01*
X79971860Y-69975036D01*
X80121360Y-69976863D01*
X80121362Y-69976863D01*
X80126529Y-69976926D01*
X80362302Y-69940847D01*
X80589018Y-69866745D01*
X80593606Y-69864357D01*
X80593610Y-69864355D01*
X80795997Y-69758999D01*
X80795998Y-69758998D01*
X80800586Y-69756610D01*
X80804719Y-69753507D01*
X80804722Y-69753505D01*
X80987190Y-69616503D01*
X80987192Y-69616501D01*
X80991325Y-69613398D01*
X81156113Y-69440958D01*
X81290525Y-69243918D01*
X81390949Y-69027572D01*
X81454691Y-68797728D01*
X81461062Y-68738110D01*
X81488190Y-68672502D01*
X81546482Y-68631973D01*
X81586349Y-68625500D01*
X81607901Y-68625500D01*
X81676022Y-68645502D01*
X81684605Y-68651537D01*
X81747159Y-68699536D01*
X81893238Y-68760044D01*
X82050000Y-68780682D01*
X82058188Y-68779604D01*
X82198574Y-68761122D01*
X82206762Y-68760044D01*
X82352841Y-68699536D01*
X82478282Y-68603282D01*
X82574536Y-68477841D01*
X82635044Y-68331762D01*
X82655682Y-68175000D01*
X82635044Y-68018238D01*
X82574536Y-67872159D01*
X82478282Y-67746718D01*
X82352841Y-67650464D01*
X82270625Y-67616409D01*
X82215344Y-67571861D01*
X82192923Y-67504497D01*
X82210481Y-67435706D01*
X82262443Y-67387328D01*
X82270625Y-67383591D01*
X82352841Y-67349536D01*
X82478282Y-67253282D01*
X82574536Y-67127841D01*
X82635044Y-66981762D01*
X82655682Y-66825000D01*
X82635044Y-66668238D01*
X82631884Y-66660610D01*
X82631883Y-66660605D01*
X82622767Y-66638597D01*
X82615178Y-66568007D01*
X82646958Y-66504521D01*
X82708016Y-66468294D01*
X82778968Y-66470828D01*
X82828271Y-66501285D01*
X82860391Y-66533405D01*
X82865246Y-66537782D01*
X82939852Y-66598362D01*
X82951369Y-66605789D01*
X83096775Y-66678445D01*
X83110443Y-66683392D01*
X83268244Y-66720548D01*
X83282687Y-66722220D01*
X83444805Y-66722079D01*
X83459241Y-66720383D01*
X83616978Y-66682950D01*
X83630642Y-66677977D01*
X83775926Y-66605066D01*
X83787411Y-66597635D01*
X83860966Y-66537753D01*
X83865737Y-66533445D01*
X84007174Y-66392008D01*
X84014788Y-66378064D01*
X84014657Y-66376231D01*
X84010406Y-66369616D01*
X82324428Y-64683638D01*
X82310484Y-64676024D01*
X82308651Y-64676155D01*
X82302037Y-64680405D01*
X82157390Y-64825053D01*
X82153042Y-64829876D01*
X82092445Y-64904503D01*
X82085023Y-64916014D01*
X82012369Y-65061415D01*
X82007419Y-65075089D01*
X81970264Y-65232888D01*
X81968592Y-65247333D01*
X81968733Y-65409450D01*
X81970429Y-65423886D01*
X82007862Y-65581623D01*
X82012835Y-65595287D01*
X82085747Y-65740573D01*
X82093176Y-65752056D01*
X82153056Y-65825606D01*
X82157375Y-65830390D01*
X82373714Y-66046729D01*
X82407740Y-66109041D01*
X82402675Y-66179856D01*
X82360128Y-66236692D01*
X82293608Y-66261503D01*
X82236402Y-66252233D01*
X82206762Y-66239956D01*
X82181970Y-66236692D01*
X82058188Y-66220396D01*
X82050000Y-66219318D01*
X82041812Y-66220396D01*
X81918031Y-66236692D01*
X81893238Y-66239956D01*
X81747159Y-66300464D01*
X81621718Y-66396718D01*
X81616695Y-66403264D01*
X81611958Y-66408001D01*
X81549646Y-66442027D01*
X81478831Y-66436962D01*
X81421995Y-66394415D01*
X81403833Y-66359981D01*
X81402821Y-66355952D01*
X81353758Y-66243115D01*
X81309772Y-66141953D01*
X81309770Y-66141950D01*
X81307712Y-66137216D01*
X81178155Y-65936951D01*
X81153744Y-65910123D01*
X81021107Y-65764358D01*
X81021105Y-65764357D01*
X81017629Y-65760536D01*
X81013578Y-65757337D01*
X81013574Y-65757333D01*
X80834500Y-65615909D01*
X80834496Y-65615907D01*
X80830445Y-65612707D01*
X80791125Y-65591001D01*
X80769667Y-65579156D01*
X80621631Y-65497436D01*
X80616762Y-65495712D01*
X80616758Y-65495710D01*
X80401663Y-65419541D01*
X80401661Y-65419540D01*
X80396794Y-65417817D01*
X80246792Y-65391097D01*
X80167060Y-65376894D01*
X80167056Y-65376894D01*
X80161972Y-65375988D01*
X80078140Y-65374964D01*
X79928640Y-65373137D01*
X79928638Y-65373137D01*
X79923471Y-65373074D01*
X79687698Y-65409153D01*
X79460982Y-65483255D01*
X79456394Y-65485643D01*
X79456390Y-65485645D01*
X79272018Y-65581623D01*
X79249414Y-65593390D01*
X79245281Y-65596493D01*
X79245278Y-65596495D01*
X79133944Y-65680088D01*
X79058675Y-65736602D01*
X78893887Y-65909042D01*
X78890973Y-65913314D01*
X78890972Y-65913315D01*
X78836739Y-65992818D01*
X78759475Y-66106082D01*
X78715682Y-66200426D01*
X78688462Y-66259068D01*
X78659051Y-66322428D01*
X78595309Y-66552272D01*
X78594760Y-66557409D01*
X78577147Y-66722220D01*
X78574500Y-66746986D01*
X78574500Y-66940046D01*
X78554498Y-67008167D01*
X78500842Y-67054660D01*
X78430568Y-67064764D01*
X78371795Y-67040008D01*
X78359393Y-67030491D01*
X78359390Y-67030489D01*
X78352841Y-67025464D01*
X78206762Y-66964956D01*
X78050000Y-66944318D01*
X77893238Y-66964956D01*
X77747159Y-67025464D01*
X77621718Y-67121718D01*
X77616695Y-67128264D01*
X77601840Y-67147623D01*
X77525464Y-67247159D01*
X77464956Y-67393238D01*
X77444318Y-67550000D01*
X75999099Y-67550000D01*
X76005682Y-67500000D01*
X75985044Y-67343238D01*
X75924536Y-67197159D01*
X75828282Y-67071718D01*
X75702841Y-66975464D01*
X75556762Y-66914956D01*
X75532538Y-66911767D01*
X75467611Y-66883045D01*
X75428519Y-66823780D01*
X75427674Y-66752789D01*
X75444219Y-66716844D01*
X75469840Y-66678499D01*
X75476735Y-66668180D01*
X75482620Y-66638597D01*
X75489875Y-66602120D01*
X75492296Y-66589949D01*
X75487931Y-66568007D01*
X75479156Y-66523888D01*
X75479156Y-66523887D01*
X75476735Y-66511718D01*
X75443607Y-66462138D01*
X74637862Y-65656393D01*
X74588282Y-65623265D01*
X74576113Y-65620844D01*
X74576112Y-65620844D01*
X74531842Y-65612038D01*
X74510051Y-65607704D01*
X74488260Y-65612038D01*
X74443990Y-65620844D01*
X74443989Y-65620844D01*
X74431820Y-65623265D01*
X74382240Y-65656393D01*
X73576495Y-66462138D01*
X73543367Y-66511718D01*
X73540946Y-66523887D01*
X73540946Y-66523888D01*
X73532171Y-66568007D01*
X73527806Y-66589949D01*
X68692288Y-66589949D01*
X68496785Y-66305491D01*
X68452805Y-66241499D01*
X68449212Y-66235967D01*
X68357306Y-66085990D01*
X68072408Y-65621078D01*
X68069134Y-65615407D01*
X67815714Y-65148666D01*
X67725037Y-64981659D01*
X67722042Y-64975781D01*
X67411592Y-64324909D01*
X67408909Y-64318883D01*
X67326238Y-64119297D01*
X72086262Y-64119297D01*
X72086262Y-64246163D01*
X72125465Y-64366820D01*
X72181278Y-64443639D01*
X72614761Y-64877121D01*
X72618765Y-64880030D01*
X72683554Y-64927104D01*
X72683556Y-64927105D01*
X72691580Y-64932935D01*
X72701015Y-64936001D01*
X72701016Y-64936001D01*
X72721397Y-64942623D01*
X72812237Y-64972138D01*
X72865025Y-64972138D01*
X72933146Y-64992140D01*
X72979639Y-65045796D01*
X72985378Y-65065963D01*
X72986741Y-65065598D01*
X72988878Y-65073572D01*
X72989956Y-65081762D01*
X73050464Y-65227841D01*
X73146718Y-65353282D01*
X73153264Y-65358305D01*
X73172594Y-65373137D01*
X73272159Y-65449536D01*
X73418238Y-65510044D01*
X73575000Y-65530682D01*
X73583188Y-65529604D01*
X73723574Y-65511122D01*
X73731762Y-65510044D01*
X73877841Y-65449536D01*
X73977406Y-65373137D01*
X73996736Y-65358305D01*
X74003282Y-65353282D01*
X74099536Y-65227841D01*
X74160044Y-65081762D01*
X74180682Y-64925000D01*
X74166016Y-64813602D01*
X74161122Y-64776426D01*
X74160044Y-64768238D01*
X74099536Y-64622159D01*
X74090245Y-64610051D01*
X75507704Y-64610051D01*
X75510125Y-64622222D01*
X75520827Y-64676024D01*
X75523265Y-64688282D01*
X75556393Y-64737862D01*
X76362138Y-65543607D01*
X76411718Y-65576735D01*
X76423887Y-65579156D01*
X76423888Y-65579156D01*
X76477778Y-65589875D01*
X76489949Y-65592296D01*
X76502120Y-65589875D01*
X76556010Y-65579156D01*
X76556011Y-65579156D01*
X76568180Y-65576735D01*
X76617760Y-65543607D01*
X77023098Y-65138269D01*
X77085410Y-65104243D01*
X77156225Y-65109308D01*
X77212155Y-65150660D01*
X77266691Y-65221732D01*
X77266695Y-65221736D01*
X77271718Y-65228282D01*
X77397159Y-65324536D01*
X77543238Y-65385044D01*
X77700000Y-65405682D01*
X77708188Y-65404604D01*
X77848574Y-65386122D01*
X77856762Y-65385044D01*
X78002841Y-65324536D01*
X78128282Y-65228282D01*
X78224536Y-65102841D01*
X78285044Y-64956762D01*
X78290304Y-64916812D01*
X78304604Y-64808188D01*
X78305682Y-64800000D01*
X78285044Y-64643238D01*
X78224536Y-64497159D01*
X78140674Y-64387867D01*
X78133305Y-64378264D01*
X78128282Y-64371718D01*
X78051431Y-64312748D01*
X82676024Y-64312748D01*
X82676155Y-64314581D01*
X82680406Y-64321196D01*
X83332594Y-64973384D01*
X83346538Y-64980998D01*
X83348371Y-64980867D01*
X83354986Y-64976616D01*
X83989499Y-64342102D01*
X83997110Y-64328164D01*
X83996978Y-64326328D01*
X83992729Y-64319716D01*
X83830413Y-64157400D01*
X83825569Y-64153032D01*
X83750960Y-64092450D01*
X83739443Y-64085023D01*
X83594037Y-64012367D01*
X83580369Y-64007420D01*
X83422568Y-63970264D01*
X83408125Y-63968592D01*
X83246007Y-63968733D01*
X83231571Y-63970429D01*
X83073834Y-64007862D01*
X83060170Y-64012835D01*
X82914886Y-64085746D01*
X82903401Y-64093177D01*
X82829846Y-64153059D01*
X82825075Y-64157367D01*
X82683638Y-64298804D01*
X82676024Y-64312748D01*
X78051431Y-64312748D01*
X78002841Y-64275464D01*
X77856762Y-64214956D01*
X77700000Y-64194318D01*
X77700109Y-64193489D01*
X77674476Y-64189532D01*
X77654513Y-64183219D01*
X77650801Y-64181980D01*
X77604314Y-64165655D01*
X77604312Y-64165655D01*
X77595420Y-64162532D01*
X77588232Y-64162250D01*
X77588173Y-64162239D01*
X77581321Y-64160071D01*
X77574714Y-64159551D01*
X77522035Y-64159551D01*
X77517088Y-64159454D01*
X77460057Y-64157213D01*
X77452951Y-64159097D01*
X77444704Y-64159551D01*
X77153006Y-64159551D01*
X77084885Y-64139549D01*
X77063911Y-64122646D01*
X76617760Y-63676495D01*
X76568180Y-63643367D01*
X76556011Y-63640946D01*
X76556010Y-63640946D01*
X76502120Y-63630227D01*
X76489949Y-63627806D01*
X76477778Y-63630227D01*
X76423888Y-63640946D01*
X76423887Y-63640946D01*
X76411718Y-63643367D01*
X76362138Y-63676495D01*
X75556393Y-64482240D01*
X75523265Y-64531820D01*
X75507704Y-64610051D01*
X74090245Y-64610051D01*
X74003282Y-64496718D01*
X73877841Y-64400464D01*
X73731762Y-64339956D01*
X73665549Y-64331239D01*
X73600622Y-64302517D01*
X73561530Y-64243252D01*
X73559012Y-64232365D01*
X73559012Y-64225363D01*
X73555948Y-64215931D01*
X73555947Y-64215928D01*
X73535592Y-64153282D01*
X73519809Y-64104706D01*
X73463996Y-64027887D01*
X73030513Y-63594405D01*
X72994498Y-63568238D01*
X72961720Y-63544422D01*
X72961718Y-63544421D01*
X72953694Y-63538591D01*
X72921966Y-63528282D01*
X72842473Y-63502454D01*
X72842474Y-63502454D01*
X72833037Y-63499388D01*
X72706171Y-63499388D01*
X72585514Y-63538591D01*
X72508695Y-63594404D01*
X72181279Y-63921821D01*
X72125465Y-63998640D01*
X72086262Y-64119297D01*
X67326238Y-64119297D01*
X67132949Y-63652656D01*
X67130585Y-63646498D01*
X66934160Y-63091812D01*
X66889864Y-62966724D01*
X66887827Y-62960454D01*
X66885153Y-62951426D01*
X66683019Y-62269034D01*
X66681316Y-62262679D01*
X66678273Y-62250000D01*
X70244318Y-62250000D01*
X70264956Y-62406762D01*
X70325464Y-62552841D01*
X70351663Y-62586984D01*
X70403417Y-62654431D01*
X70421718Y-62678282D01*
X70428264Y-62683305D01*
X70439790Y-62692149D01*
X70547159Y-62774536D01*
X70693238Y-62835044D01*
X70701426Y-62836122D01*
X70709402Y-62838259D01*
X70708544Y-62841461D01*
X70759305Y-62863923D01*
X70797755Y-62921179D01*
X70830065Y-63020620D01*
X70885878Y-63097439D01*
X71319361Y-63530921D01*
X71337943Y-63544422D01*
X71388154Y-63580904D01*
X71388156Y-63580905D01*
X71396180Y-63586735D01*
X71516837Y-63625938D01*
X71643703Y-63625938D01*
X71764360Y-63586735D01*
X71810212Y-63553421D01*
X71837178Y-63533829D01*
X71837179Y-63533829D01*
X71841179Y-63530922D01*
X72168595Y-63203505D01*
X72212471Y-63143117D01*
X72218578Y-63134712D01*
X72218579Y-63134710D01*
X72224409Y-63126686D01*
X72232058Y-63103146D01*
X72249457Y-63049595D01*
X72263612Y-63006029D01*
X72263612Y-62879163D01*
X72251696Y-62842488D01*
X72249670Y-62771521D01*
X72286334Y-62710724D01*
X72350047Y-62679400D01*
X72420580Y-62687494D01*
X72429907Y-62691894D01*
X72488172Y-62722355D01*
X72502272Y-62727683D01*
X72653941Y-62764936D01*
X72668906Y-62766747D01*
X72825086Y-62766747D01*
X72840051Y-62764936D01*
X72991720Y-62727683D01*
X73005824Y-62722354D01*
X73124753Y-62660178D01*
X73194389Y-62646343D01*
X73260449Y-62672353D01*
X73301961Y-62729948D01*
X73305745Y-62800844D01*
X73296538Y-62825931D01*
X73292191Y-62831914D01*
X73289126Y-62841347D01*
X73289125Y-62841349D01*
X73264301Y-62917753D01*
X73252988Y-62952571D01*
X73252988Y-63079437D01*
X73292191Y-63200094D01*
X73348004Y-63276913D01*
X73781487Y-63710395D01*
X73785491Y-63713304D01*
X73850280Y-63760378D01*
X73850282Y-63760379D01*
X73858306Y-63766209D01*
X73978963Y-63805412D01*
X73999140Y-63805412D01*
X74067261Y-63825414D01*
X74115549Y-63883194D01*
X74175464Y-64027841D01*
X74271718Y-64153282D01*
X74278264Y-64158305D01*
X74279888Y-64159551D01*
X74397159Y-64249536D01*
X74543238Y-64310044D01*
X74700000Y-64330682D01*
X74708188Y-64329604D01*
X74743851Y-64324909D01*
X74856762Y-64310044D01*
X75002841Y-64249536D01*
X75120112Y-64159551D01*
X75121736Y-64158305D01*
X75128282Y-64153282D01*
X75224536Y-64027841D01*
X75285044Y-63881762D01*
X75288372Y-63856487D01*
X75301024Y-63760378D01*
X75305682Y-63725000D01*
X75285044Y-63568238D01*
X75224536Y-63422159D01*
X75128282Y-63296718D01*
X75002841Y-63200464D01*
X74856762Y-63139956D01*
X74826304Y-63135946D01*
X74761377Y-63107223D01*
X74722918Y-63049959D01*
X74721121Y-63044426D01*
X74686535Y-62937980D01*
X74630722Y-62861161D01*
X74197239Y-62427679D01*
X74131011Y-62379560D01*
X74128446Y-62377696D01*
X74128444Y-62377695D01*
X74120420Y-62371865D01*
X73999763Y-62332662D01*
X73872897Y-62332662D01*
X73863464Y-62335727D01*
X73863463Y-62335727D01*
X73861986Y-62336207D01*
X73760854Y-62369066D01*
X73689888Y-62371093D01*
X73629090Y-62334431D01*
X73597765Y-62270718D01*
X73605859Y-62200184D01*
X73617061Y-62179372D01*
X73620702Y-62173907D01*
X73693480Y-62034698D01*
X73698809Y-62020594D01*
X73736062Y-61868925D01*
X73737873Y-61853960D01*
X73737873Y-61697780D01*
X73736062Y-61682815D01*
X73698809Y-61531146D01*
X73693480Y-61517042D01*
X73620705Y-61377840D01*
X73613326Y-61366764D01*
X73572344Y-61317488D01*
X73568427Y-61313195D01*
X73528433Y-61273201D01*
X73514489Y-61265587D01*
X73512656Y-61265718D01*
X73506041Y-61269969D01*
X72783058Y-61992952D01*
X72720746Y-62026978D01*
X72649931Y-62021913D01*
X72604868Y-61992952D01*
X71832085Y-61220169D01*
X71818141Y-61212555D01*
X71816308Y-61212686D01*
X71812495Y-61215136D01*
X71774595Y-61260704D01*
X71767223Y-61271768D01*
X71694446Y-61410976D01*
X71689117Y-61425080D01*
X71651864Y-61576749D01*
X71650053Y-61591714D01*
X71650053Y-61747894D01*
X71651864Y-61762859D01*
X71689117Y-61914528D01*
X71694445Y-61928628D01*
X71724906Y-61986893D01*
X71738741Y-62056529D01*
X71712732Y-62122590D01*
X71655136Y-62164102D01*
X71584241Y-62167886D01*
X71574311Y-62165104D01*
X71537637Y-62153188D01*
X71527718Y-62153188D01*
X71524807Y-62152727D01*
X71460654Y-62122314D01*
X71428109Y-62076496D01*
X71374536Y-61947159D01*
X71278282Y-61821718D01*
X71152841Y-61725464D01*
X71006762Y-61664956D01*
X70850000Y-61644318D01*
X70693238Y-61664956D01*
X70547159Y-61725464D01*
X70421718Y-61821718D01*
X70325464Y-61947159D01*
X70264956Y-62093238D01*
X70244318Y-62250000D01*
X66678273Y-62250000D01*
X66512967Y-61561455D01*
X66511598Y-61555012D01*
X66498003Y-61481657D01*
X66380799Y-60849278D01*
X72183680Y-60849278D01*
X72183811Y-60851111D01*
X72188062Y-60857726D01*
X72681151Y-61350815D01*
X72695095Y-61358429D01*
X72696928Y-61358298D01*
X72703543Y-61354047D01*
X73143598Y-60913992D01*
X73151212Y-60900048D01*
X73151081Y-60898215D01*
X73146830Y-60891600D01*
X73103588Y-60848358D01*
X73099336Y-60844478D01*
X73050030Y-60803469D01*
X73038966Y-60796097D01*
X72899758Y-60723320D01*
X72885654Y-60717991D01*
X72733985Y-60680738D01*
X72719020Y-60678927D01*
X72562840Y-60678927D01*
X72547875Y-60680738D01*
X72396206Y-60717991D01*
X72382102Y-60723320D01*
X72242900Y-60796095D01*
X72231824Y-60803474D01*
X72189445Y-60838720D01*
X72183680Y-60849278D01*
X66380799Y-60849278D01*
X66380185Y-60845965D01*
X66379154Y-60839458D01*
X66373446Y-60796097D01*
X66285031Y-60124518D01*
X66284341Y-60117958D01*
X66276768Y-60021736D01*
X66227759Y-59399028D01*
X66227415Y-59392457D01*
X66226779Y-59368133D01*
X66208539Y-58671575D01*
X66208539Y-58664993D01*
X66212117Y-58528355D01*
X75655605Y-58528355D01*
X75656915Y-58611744D01*
X75662198Y-58948026D01*
X75708256Y-59365214D01*
X75708858Y-59368123D01*
X75708860Y-59368133D01*
X75789341Y-59756762D01*
X75793370Y-59776216D01*
X75794243Y-59779052D01*
X75794243Y-59779054D01*
X75911767Y-60161068D01*
X75916786Y-60177384D01*
X76077407Y-60565157D01*
X76273808Y-60936094D01*
X76275433Y-60938568D01*
X76275439Y-60938578D01*
X76464569Y-61226500D01*
X76504245Y-61286901D01*
X76577101Y-61377840D01*
X76756036Y-61601187D01*
X76766674Y-61614466D01*
X76768738Y-61616596D01*
X76768746Y-61616605D01*
X76962647Y-61816695D01*
X77058764Y-61915880D01*
X77061018Y-61917805D01*
X77353826Y-62167886D01*
X77377924Y-62188468D01*
X77721320Y-62429811D01*
X77793106Y-62470757D01*
X78083328Y-62636297D01*
X78083333Y-62636300D01*
X78085904Y-62637766D01*
X78468441Y-62810488D01*
X78865535Y-62946444D01*
X78868409Y-62947134D01*
X78868416Y-62947136D01*
X79270782Y-63043735D01*
X79270786Y-63043736D01*
X79273661Y-63044426D01*
X79276594Y-63044843D01*
X79276597Y-63044844D01*
X79373513Y-63058637D01*
X79689196Y-63103565D01*
X80108453Y-63123337D01*
X80527710Y-63103565D01*
X80552759Y-63100000D01*
X83194318Y-63100000D01*
X83214956Y-63256762D01*
X83275464Y-63402841D01*
X83371718Y-63528282D01*
X83497159Y-63624536D01*
X83643238Y-63685044D01*
X83651426Y-63686122D01*
X83721619Y-63695363D01*
X83800000Y-63705682D01*
X83808188Y-63704604D01*
X83948574Y-63686122D01*
X83956762Y-63685044D01*
X84040755Y-63650253D01*
X84111343Y-63642664D01*
X84174830Y-63674443D01*
X84211058Y-63735501D01*
X84208524Y-63806452D01*
X84186372Y-63846595D01*
X84186079Y-63846952D01*
X84181697Y-63851334D01*
X84148569Y-63900914D01*
X84146148Y-63913083D01*
X84146148Y-63913084D01*
X84137342Y-63957354D01*
X84133008Y-63979145D01*
X84148569Y-64057377D01*
X84181697Y-64106956D01*
X84546599Y-64471858D01*
X84580625Y-64534170D01*
X84575560Y-64604985D01*
X84546599Y-64650048D01*
X84519291Y-64677356D01*
X84456979Y-64711382D01*
X84386164Y-64706317D01*
X84369811Y-64698848D01*
X84360389Y-64693703D01*
X84358552Y-64693834D01*
X84351938Y-64698085D01*
X83717427Y-65332595D01*
X83709814Y-65346538D01*
X83709945Y-65348372D01*
X83714196Y-65354986D01*
X84366384Y-66007174D01*
X84380328Y-66014788D01*
X84382161Y-66014657D01*
X84388775Y-66010407D01*
X84533422Y-65865759D01*
X84537770Y-65860936D01*
X84598367Y-65786309D01*
X84605789Y-65774798D01*
X84678443Y-65629397D01*
X84681547Y-65620822D01*
X84680573Y-65602930D01*
X84675855Y-65595449D01*
X84649693Y-65569287D01*
X84615667Y-65506975D01*
X84620732Y-65436160D01*
X84649693Y-65391097D01*
X85227188Y-64813602D01*
X85289500Y-64779576D01*
X85360315Y-64784641D01*
X85405378Y-64813602D01*
X85586398Y-64994622D01*
X85620424Y-65056934D01*
X85615359Y-65127749D01*
X85586398Y-65172812D01*
X84960905Y-65798305D01*
X84953291Y-65812249D01*
X84953422Y-65814082D01*
X84957673Y-65820697D01*
X85042538Y-65905562D01*
X85047621Y-65910123D01*
X85087495Y-65942184D01*
X85100847Y-65950407D01*
X85129245Y-65963318D01*
X85182978Y-66009721D01*
X85203094Y-66077808D01*
X85183206Y-66145962D01*
X85129628Y-66192545D01*
X85114144Y-66198449D01*
X85112269Y-66199026D01*
X85102955Y-66200426D01*
X84980838Y-66259067D01*
X84956431Y-66279258D01*
X84279258Y-66956431D01*
X84259067Y-66980838D01*
X84200426Y-67102955D01*
X84180287Y-67236916D01*
X84181687Y-67246229D01*
X84199537Y-67364964D01*
X84189884Y-67435302D01*
X84143737Y-67489255D01*
X84091383Y-67508618D01*
X84043238Y-67514956D01*
X83897159Y-67575464D01*
X83771718Y-67671718D01*
X83675464Y-67797159D01*
X83614956Y-67943238D01*
X83613878Y-67951426D01*
X83611537Y-67969206D01*
X83594318Y-68100000D01*
X83595396Y-68108188D01*
X83611424Y-68229930D01*
X83614956Y-68256762D01*
X83675464Y-68402841D01*
X83771718Y-68528282D01*
X83897159Y-68624536D01*
X84043238Y-68685044D01*
X84200000Y-68705682D01*
X84208188Y-68704604D01*
X84348574Y-68686122D01*
X84356762Y-68685044D01*
X84502841Y-68624536D01*
X84628282Y-68528282D01*
X84724536Y-68402841D01*
X84781293Y-68265818D01*
X84825841Y-68210537D01*
X84893205Y-68188116D01*
X84961996Y-68205674D01*
X84986797Y-68224941D01*
X84991786Y-68229930D01*
X85016193Y-68250121D01*
X85138310Y-68308762D01*
X85272272Y-68328901D01*
X85406233Y-68308762D01*
X85528350Y-68250121D01*
X85552757Y-68229930D01*
X86229930Y-67552757D01*
X86250121Y-67528350D01*
X86308762Y-67406233D01*
X86325240Y-67296625D01*
X86327501Y-67281585D01*
X86328901Y-67272272D01*
X86308762Y-67138310D01*
X86250121Y-67016193D01*
X86253082Y-67014771D01*
X86237364Y-66960908D01*
X86257480Y-66892821D01*
X86274268Y-66872024D01*
X86930735Y-66215556D01*
X86941825Y-66205701D01*
X86948516Y-66200426D01*
X86968491Y-66184679D01*
X86973846Y-66176931D01*
X86973848Y-66176929D01*
X87001855Y-66136407D01*
X87004155Y-66133188D01*
X87033419Y-66093567D01*
X87033420Y-66093566D01*
X87039015Y-66085990D01*
X87041408Y-66079176D01*
X87045512Y-66073238D01*
X87063208Y-66017283D01*
X87064459Y-66013535D01*
X87065558Y-66010407D01*
X87083900Y-65958176D01*
X87084182Y-65950989D01*
X87084194Y-65950927D01*
X87086361Y-65944077D01*
X87086881Y-65937470D01*
X87086881Y-65884791D01*
X87086978Y-65879844D01*
X87088849Y-65832222D01*
X87089219Y-65822813D01*
X87087335Y-65815707D01*
X87086881Y-65807460D01*
X87086881Y-65732278D01*
X87106883Y-65664157D01*
X87123786Y-65643183D01*
X87618303Y-65148666D01*
X87651431Y-65099086D01*
X87659816Y-65056934D01*
X87664571Y-65033026D01*
X87666992Y-65020855D01*
X87651431Y-64942623D01*
X87654904Y-64941932D01*
X87649545Y-64892155D01*
X87684451Y-64825414D01*
X87994350Y-64515515D01*
X88005439Y-64505661D01*
X88024709Y-64490469D01*
X88024711Y-64490467D01*
X88032110Y-64484634D01*
X88065462Y-64436377D01*
X88067757Y-64433165D01*
X88101215Y-64387867D01*
X88113471Y-64373632D01*
X89569350Y-62917753D01*
X89580439Y-62907899D01*
X89599709Y-62892707D01*
X89599711Y-62892705D01*
X89607110Y-62886872D01*
X89640462Y-62838615D01*
X89642757Y-62835403D01*
X89672040Y-62795758D01*
X89672041Y-62795757D01*
X89677634Y-62788184D01*
X89680027Y-62781368D01*
X89684131Y-62775431D01*
X89692627Y-62748569D01*
X89697790Y-62732243D01*
X89701826Y-62719481D01*
X89703071Y-62715750D01*
X89719396Y-62669263D01*
X89719396Y-62669261D01*
X89722519Y-62660369D01*
X89722801Y-62653181D01*
X89722812Y-62653122D01*
X89724980Y-62646270D01*
X89725500Y-62639663D01*
X89725500Y-62586984D01*
X89725597Y-62582037D01*
X89725979Y-62572304D01*
X89727838Y-62525006D01*
X89725954Y-62517900D01*
X89725500Y-62509656D01*
X89725500Y-61226500D01*
X89745502Y-61158379D01*
X89799158Y-61111886D01*
X89851500Y-61100500D01*
X89933218Y-61100500D01*
X89937768Y-61099830D01*
X89937771Y-61099830D01*
X89992426Y-61091784D01*
X89992427Y-61091784D01*
X90002112Y-61090358D01*
X90096804Y-61043867D01*
X90097507Y-61043522D01*
X90097509Y-61043521D01*
X90106855Y-61038932D01*
X90189293Y-60956350D01*
X90200482Y-60933461D01*
X90236240Y-60860306D01*
X90240536Y-60851518D01*
X90248621Y-60796097D01*
X90249840Y-60787744D01*
X90249840Y-60787740D01*
X90250500Y-60783218D01*
X90250500Y-60416782D01*
X90241871Y-60358162D01*
X90241784Y-60357574D01*
X90241784Y-60357573D01*
X90240358Y-60347888D01*
X90188932Y-60243145D01*
X90134889Y-60189196D01*
X90100810Y-60126913D01*
X90105813Y-60056093D01*
X90134733Y-60011006D01*
X90181935Y-59963721D01*
X90181935Y-59963720D01*
X90189293Y-59956350D01*
X90200742Y-59932929D01*
X90236240Y-59860306D01*
X90240536Y-59851518D01*
X90250500Y-59783218D01*
X90250500Y-59416782D01*
X90247941Y-59399394D01*
X90241784Y-59357574D01*
X90241784Y-59357573D01*
X90240358Y-59347888D01*
X90212235Y-59290608D01*
X90193522Y-59252493D01*
X90193521Y-59252491D01*
X90188932Y-59243145D01*
X90134889Y-59189196D01*
X90100810Y-59126913D01*
X90105813Y-59056093D01*
X90134733Y-59011006D01*
X90181935Y-58963721D01*
X90181935Y-58963720D01*
X90189293Y-58956350D01*
X90194821Y-58945042D01*
X90236240Y-58860306D01*
X90240536Y-58851518D01*
X90250500Y-58783218D01*
X90250500Y-58416782D01*
X90249830Y-58412233D01*
X90249829Y-58412215D01*
X90247934Y-58399345D01*
X90257801Y-58329038D01*
X90295361Y-58281437D01*
X90312104Y-58268449D01*
X90418449Y-58162104D01*
X90428089Y-58149678D01*
X90504648Y-58020221D01*
X90510893Y-58005790D01*
X90549939Y-57871395D01*
X90549899Y-57857294D01*
X90542630Y-57854000D01*
X88013122Y-57854000D01*
X87999591Y-57857973D01*
X87995258Y-57888115D01*
X87995153Y-57926171D01*
X87956606Y-57985791D01*
X87891944Y-58015107D01*
X87857022Y-58012984D01*
X87856762Y-58014956D01*
X87708188Y-57995396D01*
X87700000Y-57994318D01*
X87543238Y-58014956D01*
X87397159Y-58075464D01*
X87271718Y-58171718D01*
X87175464Y-58297159D01*
X87114956Y-58443238D01*
X87094318Y-58600000D01*
X87114956Y-58756762D01*
X87175464Y-58902841D01*
X87216523Y-58956350D01*
X87267892Y-59023296D01*
X87293492Y-59089517D01*
X87279227Y-59159065D01*
X87267893Y-59176703D01*
X87175464Y-59297159D01*
X87114956Y-59443238D01*
X87094318Y-59600000D01*
X87114956Y-59756762D01*
X87175464Y-59902841D01*
X87271718Y-60028282D01*
X87397159Y-60124536D01*
X87543238Y-60185044D01*
X87700000Y-60205682D01*
X87708188Y-60204604D01*
X87848574Y-60186122D01*
X87856762Y-60185044D01*
X88002841Y-60124536D01*
X88128282Y-60028282D01*
X88169323Y-59974796D01*
X88226661Y-59932929D01*
X88269286Y-59925500D01*
X88277532Y-59925500D01*
X88345653Y-59945502D01*
X88366548Y-59962325D01*
X88398184Y-59993906D01*
X88415111Y-60010804D01*
X88449190Y-60073087D01*
X88444187Y-60143907D01*
X88415267Y-60188994D01*
X88368555Y-60235788D01*
X88360707Y-60243650D01*
X88309464Y-60348482D01*
X88299500Y-60416782D01*
X88299500Y-60783218D01*
X88300170Y-60787768D01*
X88300170Y-60787771D01*
X88308216Y-60842426D01*
X88309642Y-60852112D01*
X88361068Y-60956855D01*
X88443650Y-61039293D01*
X88548482Y-61090536D01*
X88578973Y-61094984D01*
X88612256Y-61099840D01*
X88612260Y-61099840D01*
X88616782Y-61100500D01*
X88698500Y-61100500D01*
X88766621Y-61120502D01*
X88813114Y-61174158D01*
X88824500Y-61226500D01*
X88824500Y-62336207D01*
X88804498Y-62404328D01*
X88787595Y-62425302D01*
X87523139Y-63689758D01*
X87460827Y-63723784D01*
X87390012Y-63718719D01*
X87335846Y-63679613D01*
X87310121Y-63647616D01*
X87305568Y-63642542D01*
X87223930Y-63560904D01*
X87209986Y-63553290D01*
X87208153Y-63553421D01*
X87201538Y-63557672D01*
X86572812Y-64186398D01*
X86510500Y-64220424D01*
X86439685Y-64215359D01*
X86394622Y-64186398D01*
X86213602Y-64005378D01*
X86179576Y-63943066D01*
X86184641Y-63872251D01*
X86213602Y-63827188D01*
X86839095Y-63201695D01*
X86846709Y-63187751D01*
X86846578Y-63185918D01*
X86842327Y-63179303D01*
X86757462Y-63094438D01*
X86752379Y-63089877D01*
X86712505Y-63057816D01*
X86699152Y-63049593D01*
X86582049Y-62996350D01*
X86564994Y-62991363D01*
X86438724Y-62973280D01*
X86420946Y-62973280D01*
X86294678Y-62991363D01*
X86277620Y-62996351D01*
X86160514Y-63049595D01*
X86147168Y-63057814D01*
X86107290Y-63089877D01*
X86102213Y-63094432D01*
X86050047Y-63146598D01*
X85987735Y-63180624D01*
X85916920Y-63175559D01*
X85871857Y-63146598D01*
X85506956Y-62781697D01*
X85457377Y-62748569D01*
X85379145Y-62733008D01*
X85366974Y-62735429D01*
X85313084Y-62746148D01*
X85313083Y-62746148D01*
X85300914Y-62748569D01*
X85251334Y-62781697D01*
X85124162Y-62908869D01*
X85061850Y-62942895D01*
X84991035Y-62937830D01*
X84945972Y-62908869D01*
X84842753Y-62805650D01*
X84832899Y-62794561D01*
X84817707Y-62775291D01*
X84817705Y-62775289D01*
X84811872Y-62767890D01*
X84804125Y-62762535D01*
X84804123Y-62762534D01*
X84763625Y-62734545D01*
X84760403Y-62732243D01*
X84754230Y-62727683D01*
X84713184Y-62697366D01*
X84706368Y-62694973D01*
X84700431Y-62690869D01*
X84691451Y-62688029D01*
X84691449Y-62688028D01*
X84660575Y-62678264D01*
X84644481Y-62673174D01*
X84640750Y-62671929D01*
X84594263Y-62655604D01*
X84594261Y-62655604D01*
X84585369Y-62652481D01*
X84578181Y-62652199D01*
X84578122Y-62652188D01*
X84571270Y-62650020D01*
X84564663Y-62649500D01*
X84511984Y-62649500D01*
X84507037Y-62649403D01*
X84450006Y-62647162D01*
X84442900Y-62649046D01*
X84434653Y-62649500D01*
X84242099Y-62649500D01*
X84173978Y-62629498D01*
X84165395Y-62623463D01*
X84109392Y-62580491D01*
X84102841Y-62575464D01*
X83956762Y-62514956D01*
X83800000Y-62494318D01*
X83643238Y-62514956D01*
X83497159Y-62575464D01*
X83371718Y-62671718D01*
X83366695Y-62678264D01*
X83362827Y-62683305D01*
X83275464Y-62797159D01*
X83214956Y-62943238D01*
X83194318Y-63100000D01*
X80552759Y-63100000D01*
X80843393Y-63058637D01*
X80940309Y-63044844D01*
X80940312Y-63044843D01*
X80943245Y-63044426D01*
X80946120Y-63043736D01*
X80946124Y-63043735D01*
X81348490Y-62947136D01*
X81348497Y-62947134D01*
X81351371Y-62946444D01*
X81748465Y-62810488D01*
X82131002Y-62637766D01*
X82133573Y-62636300D01*
X82133578Y-62636297D01*
X82423800Y-62470757D01*
X82495586Y-62429811D01*
X82838982Y-62188468D01*
X82863081Y-62167886D01*
X83155888Y-61917805D01*
X83158142Y-61915880D01*
X83254259Y-61816695D01*
X83448160Y-61616605D01*
X83448168Y-61616596D01*
X83450232Y-61614466D01*
X83460871Y-61601187D01*
X83545008Y-61496166D01*
X85649500Y-61496166D01*
X85649500Y-62303834D01*
X85652481Y-62335369D01*
X85697366Y-62463184D01*
X85702958Y-62470754D01*
X85702959Y-62470757D01*
X85757952Y-62545211D01*
X85777850Y-62572150D01*
X85785421Y-62577742D01*
X85879243Y-62647041D01*
X85879246Y-62647042D01*
X85886816Y-62652634D01*
X86014631Y-62697519D01*
X86022277Y-62698242D01*
X86022278Y-62698242D01*
X86028248Y-62698806D01*
X86046166Y-62700500D01*
X87453834Y-62700500D01*
X87471752Y-62698806D01*
X87477722Y-62698242D01*
X87477723Y-62698242D01*
X87485369Y-62697519D01*
X87613184Y-62652634D01*
X87620754Y-62647042D01*
X87620757Y-62647041D01*
X87714579Y-62577742D01*
X87722150Y-62572150D01*
X87742048Y-62545211D01*
X87797041Y-62470757D01*
X87797042Y-62470754D01*
X87802634Y-62463184D01*
X87847519Y-62335369D01*
X87850500Y-62303834D01*
X87850500Y-61496166D01*
X87847519Y-61464631D01*
X87802634Y-61336816D01*
X87797042Y-61329246D01*
X87797041Y-61329243D01*
X87727742Y-61235421D01*
X87722150Y-61227850D01*
X87662701Y-61183940D01*
X87620757Y-61152959D01*
X87620754Y-61152958D01*
X87613184Y-61147366D01*
X87485369Y-61102481D01*
X87477723Y-61101758D01*
X87477722Y-61101758D01*
X87471752Y-61101194D01*
X87453834Y-61099500D01*
X86046166Y-61099500D01*
X86028248Y-61101194D01*
X86022278Y-61101758D01*
X86022277Y-61101758D01*
X86014631Y-61102481D01*
X85886816Y-61147366D01*
X85879246Y-61152958D01*
X85879243Y-61152959D01*
X85837299Y-61183940D01*
X85777850Y-61227850D01*
X85772258Y-61235421D01*
X85702959Y-61329243D01*
X85702958Y-61329246D01*
X85697366Y-61336816D01*
X85652481Y-61464631D01*
X85649500Y-61496166D01*
X83545008Y-61496166D01*
X83639805Y-61377840D01*
X83712661Y-61286901D01*
X83752337Y-61226500D01*
X83941467Y-60938578D01*
X83941473Y-60938568D01*
X83943098Y-60936094D01*
X84139499Y-60565157D01*
X84300120Y-60177384D01*
X84305140Y-60161068D01*
X84422663Y-59779054D01*
X84422663Y-59779052D01*
X84423536Y-59776216D01*
X84427565Y-59756762D01*
X84508046Y-59368133D01*
X84508048Y-59368123D01*
X84508650Y-59365214D01*
X84529462Y-59176703D01*
X84554437Y-58950482D01*
X84554437Y-58950478D01*
X84554708Y-58948026D01*
X84554785Y-58945573D01*
X84554786Y-58945560D01*
X84563421Y-58670759D01*
X84563499Y-58668291D01*
X84543727Y-58249034D01*
X84510132Y-58012984D01*
X84485006Y-57836435D01*
X84485005Y-57836432D01*
X84484588Y-57833499D01*
X84483897Y-57830620D01*
X84387298Y-57428254D01*
X84387296Y-57428247D01*
X84386606Y-57425373D01*
X84353475Y-57328605D01*
X88000061Y-57328605D01*
X88000101Y-57342706D01*
X88007370Y-57346000D01*
X89002885Y-57346000D01*
X89018124Y-57341525D01*
X89019329Y-57340135D01*
X89021000Y-57332452D01*
X89021000Y-56810116D01*
X89019659Y-56805548D01*
X89529000Y-56805548D01*
X89529000Y-57327885D01*
X89533475Y-57343124D01*
X89534865Y-57344329D01*
X89542548Y-57346000D01*
X90536878Y-57346000D01*
X90550409Y-57342027D01*
X90551544Y-57334129D01*
X90510893Y-57194210D01*
X90504648Y-57179779D01*
X90428089Y-57050322D01*
X90418449Y-57037896D01*
X90312104Y-56931551D01*
X90299678Y-56921911D01*
X90170221Y-56845352D01*
X90155790Y-56839107D01*
X90009935Y-56796731D01*
X89997333Y-56794430D01*
X89968916Y-56792193D01*
X89963986Y-56792000D01*
X89547115Y-56792000D01*
X89531876Y-56796475D01*
X89530671Y-56797865D01*
X89529000Y-56805548D01*
X89019659Y-56805548D01*
X89016525Y-56794877D01*
X89015135Y-56793672D01*
X89007452Y-56792001D01*
X88586017Y-56792001D01*
X88581080Y-56792195D01*
X88552664Y-56794430D01*
X88540069Y-56796730D01*
X88394210Y-56839107D01*
X88379779Y-56845352D01*
X88250322Y-56921911D01*
X88237896Y-56931551D01*
X88131551Y-57037896D01*
X88121911Y-57050322D01*
X88045352Y-57179779D01*
X88039107Y-57194210D01*
X88000061Y-57328605D01*
X84353475Y-57328605D01*
X84250650Y-57028279D01*
X84077928Y-56645742D01*
X83991292Y-56493852D01*
X83926451Y-56380175D01*
X83869973Y-56281158D01*
X83628630Y-55937762D01*
X83595635Y-55899129D01*
X83370407Y-55635421D01*
X83356042Y-55618602D01*
X83239636Y-55505797D01*
X83056767Y-55328584D01*
X83056758Y-55328576D01*
X83054628Y-55326512D01*
X82727063Y-55064083D01*
X82701294Y-55047156D01*
X82378740Y-54835277D01*
X82378730Y-54835271D01*
X82376256Y-54833646D01*
X82005319Y-54637245D01*
X81617546Y-54476624D01*
X81614723Y-54475756D01*
X81614716Y-54475753D01*
X81219216Y-54354081D01*
X81219214Y-54354081D01*
X81216378Y-54353208D01*
X81213475Y-54352607D01*
X81213468Y-54352605D01*
X80808295Y-54268698D01*
X80808285Y-54268696D01*
X80805376Y-54268094D01*
X80388188Y-54222036D01*
X80385207Y-54221989D01*
X80385204Y-54221989D01*
X80268582Y-54220157D01*
X79968517Y-54215443D01*
X79965573Y-54215675D01*
X79965563Y-54215675D01*
X79567699Y-54246988D01*
X79550088Y-54248374D01*
X79136615Y-54320537D01*
X79133748Y-54321321D01*
X79133736Y-54321324D01*
X78734632Y-54430506D01*
X78734622Y-54430509D01*
X78731768Y-54431290D01*
X78729004Y-54432334D01*
X78728993Y-54432338D01*
X78341911Y-54578605D01*
X78341906Y-54578607D01*
X78339141Y-54579652D01*
X77962218Y-54764304D01*
X77959693Y-54765852D01*
X77959690Y-54765853D01*
X77889350Y-54808958D01*
X77820816Y-54827497D01*
X77753139Y-54806041D01*
X77707806Y-54751402D01*
X77697835Y-54710516D01*
X77697142Y-54700823D01*
X77692890Y-54694208D01*
X77005842Y-54007160D01*
X76991898Y-53999546D01*
X76990065Y-53999677D01*
X76983450Y-54003928D01*
X76476004Y-54511375D01*
X76468393Y-54525313D01*
X76468525Y-54527149D01*
X76472774Y-54533761D01*
X76845009Y-54905996D01*
X76850092Y-54910557D01*
X76889966Y-54942618D01*
X76903319Y-54950841D01*
X77020421Y-55004084D01*
X77037476Y-55009071D01*
X77163746Y-55027154D01*
X77172110Y-55027154D01*
X77240231Y-55047156D01*
X77286724Y-55100812D01*
X77296828Y-55171086D01*
X77267334Y-55235666D01*
X77256910Y-55246347D01*
X76958260Y-55518098D01*
X76956270Y-55520285D01*
X76724390Y-55775118D01*
X76675781Y-55828538D01*
X76673999Y-55830911D01*
X76673996Y-55830915D01*
X76498240Y-56065001D01*
X76423771Y-56164184D01*
X76204466Y-56522056D01*
X76019814Y-56898979D01*
X76018769Y-56901744D01*
X76018767Y-56901749D01*
X75872500Y-57288831D01*
X75872496Y-57288842D01*
X75871452Y-57291606D01*
X75870671Y-57294460D01*
X75870668Y-57294470D01*
X75761486Y-57693574D01*
X75761483Y-57693586D01*
X75760699Y-57696453D01*
X75688536Y-58109926D01*
X75688304Y-58112874D01*
X75662304Y-58443238D01*
X75655605Y-58528355D01*
X66212117Y-58528355D01*
X66227416Y-57944107D01*
X66227760Y-57937537D01*
X66227806Y-57936962D01*
X66254326Y-57600000D01*
X72369318Y-57600000D01*
X72389956Y-57756762D01*
X72450464Y-57902841D01*
X72546718Y-58028282D01*
X72672159Y-58124536D01*
X72818238Y-58185044D01*
X72975000Y-58205682D01*
X72983188Y-58204604D01*
X73123574Y-58186122D01*
X73131762Y-58185044D01*
X73277841Y-58124536D01*
X73403282Y-58028282D01*
X73499536Y-57902841D01*
X73508317Y-57881642D01*
X73518582Y-57856862D01*
X73563131Y-57801582D01*
X73630494Y-57779162D01*
X73699285Y-57796721D01*
X73724085Y-57815987D01*
X73811932Y-57903834D01*
X73817080Y-57907273D01*
X73817079Y-57907273D01*
X73835573Y-57919630D01*
X73861512Y-57936962D01*
X73939743Y-57952522D01*
X73951915Y-57950101D01*
X74005800Y-57939384D01*
X74005802Y-57939383D01*
X74017975Y-57936962D01*
X74028295Y-57930067D01*
X74028296Y-57930066D01*
X74062407Y-57907273D01*
X74067554Y-57903834D01*
X74795942Y-57175446D01*
X74829070Y-57125867D01*
X74834116Y-57100500D01*
X74842209Y-57059807D01*
X74844630Y-57047635D01*
X74829070Y-56969404D01*
X74795942Y-56919824D01*
X73708344Y-55832226D01*
X73658764Y-55799098D01*
X73580533Y-55783538D01*
X73568361Y-55785959D01*
X73514476Y-55796676D01*
X73514474Y-55796677D01*
X73502301Y-55799098D01*
X73491981Y-55805993D01*
X73491980Y-55805994D01*
X73468312Y-55821809D01*
X73452722Y-55832226D01*
X72724334Y-56560614D01*
X72691206Y-56610193D01*
X72675646Y-56688425D01*
X72691206Y-56766656D01*
X72698102Y-56776976D01*
X72698102Y-56776977D01*
X72711130Y-56796475D01*
X72724334Y-56816236D01*
X72759013Y-56850915D01*
X72793039Y-56913227D01*
X72787974Y-56984042D01*
X72745427Y-57040878D01*
X72718138Y-57056418D01*
X72689419Y-57068315D01*
X72672159Y-57075464D01*
X72546718Y-57171718D01*
X72450464Y-57297159D01*
X72389956Y-57443238D01*
X72369318Y-57600000D01*
X66254326Y-57600000D01*
X66284341Y-57218624D01*
X66285031Y-57212064D01*
X66307568Y-57040878D01*
X66379155Y-56497115D01*
X66380186Y-56490608D01*
X66511600Y-55781560D01*
X66512969Y-55775118D01*
X66523983Y-55729243D01*
X66681320Y-55073886D01*
X66683024Y-55067531D01*
X66684046Y-55064083D01*
X66887828Y-54376124D01*
X66889865Y-54369854D01*
X66900657Y-54339380D01*
X66932308Y-54250000D01*
X73794318Y-54250000D01*
X73814956Y-54406762D01*
X73875464Y-54552841D01*
X73971718Y-54678282D01*
X74097159Y-54774536D01*
X74157220Y-54799414D01*
X74240157Y-54833768D01*
X74295438Y-54878317D01*
X74317859Y-54945680D01*
X74309755Y-54990600D01*
X74307652Y-54993747D01*
X74305231Y-55005920D01*
X74305230Y-55005922D01*
X74297029Y-55047156D01*
X74292092Y-55071979D01*
X74307652Y-55150210D01*
X74340780Y-55199790D01*
X75428378Y-56287388D01*
X75477958Y-56320516D01*
X75556189Y-56336076D01*
X75568361Y-56333655D01*
X75622246Y-56322938D01*
X75622248Y-56322937D01*
X75634421Y-56320516D01*
X75644741Y-56313621D01*
X75644742Y-56313620D01*
X75678853Y-56290827D01*
X75684000Y-56287388D01*
X76412388Y-55559000D01*
X76422805Y-55543410D01*
X76438620Y-55519742D01*
X76438621Y-55519741D01*
X76445516Y-55509421D01*
X76461076Y-55431189D01*
X76445516Y-55352958D01*
X76412388Y-55303378D01*
X75324790Y-54215780D01*
X75300730Y-54199704D01*
X75285531Y-54189548D01*
X75285530Y-54189548D01*
X75275210Y-54182652D01*
X75196979Y-54167092D01*
X75184807Y-54169513D01*
X75184806Y-54169513D01*
X75129238Y-54180565D01*
X75058524Y-54174236D01*
X75002458Y-54130680D01*
X74985183Y-54094294D01*
X74985044Y-54093238D01*
X74924536Y-53947159D01*
X74828282Y-53821718D01*
X74702841Y-53725464D01*
X74556762Y-53664956D01*
X74400000Y-53644318D01*
X74243238Y-53664956D01*
X74097159Y-53725464D01*
X73971718Y-53821718D01*
X73875464Y-53947159D01*
X73814956Y-54093238D01*
X73794318Y-54250000D01*
X66932308Y-54250000D01*
X67019447Y-54003928D01*
X67130585Y-53690084D01*
X67132949Y-53683926D01*
X67231234Y-53446644D01*
X75601014Y-53446644D01*
X75601014Y-53464422D01*
X75619097Y-53590692D01*
X75624084Y-53607747D01*
X75677329Y-53724854D01*
X75685547Y-53738198D01*
X75717618Y-53778087D01*
X75722158Y-53783146D01*
X76091177Y-54152164D01*
X76105115Y-54159775D01*
X76106951Y-54159643D01*
X76113563Y-54155394D01*
X76621009Y-53647949D01*
X76627386Y-53636270D01*
X77357438Y-53636270D01*
X77357569Y-53638104D01*
X77361820Y-53644718D01*
X78048868Y-54331766D01*
X78062812Y-54339380D01*
X78064645Y-54339249D01*
X78071259Y-54334999D01*
X78263899Y-54142358D01*
X78268444Y-54137292D01*
X78300510Y-54097412D01*
X78308732Y-54084062D01*
X78361976Y-53966957D01*
X78366963Y-53949902D01*
X78385046Y-53823632D01*
X78385046Y-53805854D01*
X78366963Y-53679584D01*
X78361976Y-53662529D01*
X78308731Y-53545422D01*
X78300513Y-53532078D01*
X78268442Y-53492189D01*
X78263902Y-53487130D01*
X77894883Y-53118112D01*
X77880945Y-53110501D01*
X77879109Y-53110633D01*
X77872497Y-53114882D01*
X77365051Y-53622327D01*
X77357438Y-53636270D01*
X76627386Y-53636270D01*
X76628622Y-53634006D01*
X76628491Y-53632172D01*
X76624240Y-53625558D01*
X75937192Y-52938510D01*
X75923248Y-52930896D01*
X75921415Y-52931027D01*
X75914801Y-52935277D01*
X75722161Y-53127918D01*
X75717616Y-53132984D01*
X75685550Y-53172864D01*
X75677328Y-53186214D01*
X75624084Y-53303319D01*
X75619097Y-53320374D01*
X75601014Y-53446644D01*
X67231234Y-53446644D01*
X67408909Y-53017699D01*
X67411592Y-53011673D01*
X67722042Y-52360801D01*
X67725037Y-52354923D01*
X67901577Y-52029776D01*
X68069134Y-51721175D01*
X68072408Y-51715504D01*
X68249819Y-51425995D01*
X69029661Y-51425995D01*
X69045222Y-51504226D01*
X69078350Y-51553806D01*
X70165948Y-52641404D01*
X70215528Y-52674532D01*
X70227697Y-52676953D01*
X70227698Y-52676953D01*
X70281588Y-52687672D01*
X70293759Y-52690093D01*
X70371991Y-52674532D01*
X70408289Y-52650278D01*
X70416422Y-52644844D01*
X70416423Y-52644843D01*
X70421570Y-52641404D01*
X70495354Y-52567620D01*
X76288788Y-52567620D01*
X76288919Y-52569453D01*
X76293170Y-52576068D01*
X76980218Y-53263116D01*
X76994162Y-53270730D01*
X76995995Y-53270599D01*
X77002610Y-53266348D01*
X77510056Y-52758901D01*
X77517667Y-52744963D01*
X77517535Y-52743127D01*
X77513286Y-52736515D01*
X77141051Y-52364280D01*
X77135968Y-52359719D01*
X77096094Y-52327658D01*
X77082741Y-52319435D01*
X76965639Y-52266192D01*
X76948584Y-52261205D01*
X76944778Y-52260660D01*
X81936384Y-52260660D01*
X81951945Y-52338891D01*
X81985073Y-52388471D01*
X82861529Y-53264927D01*
X82911109Y-53298055D01*
X82923278Y-53300476D01*
X82923279Y-53300476D01*
X82977169Y-53311195D01*
X82989340Y-53313616D01*
X83001511Y-53311195D01*
X83055401Y-53300476D01*
X83055402Y-53300476D01*
X83067571Y-53298055D01*
X83117151Y-53264927D01*
X83122837Y-53259241D01*
X83123692Y-53258774D01*
X83126313Y-53256623D01*
X83126721Y-53257120D01*
X83185149Y-53225215D01*
X83255964Y-53230280D01*
X83312800Y-53272827D01*
X83337611Y-53339347D01*
X83333571Y-53372467D01*
X83334878Y-53372674D01*
X83333328Y-53382461D01*
X83330262Y-53391897D01*
X83330262Y-53518763D01*
X83369465Y-53639420D01*
X83375292Y-53647440D01*
X83421188Y-53710609D01*
X83425278Y-53716239D01*
X83858761Y-54149721D01*
X83862765Y-54152630D01*
X83927554Y-54199704D01*
X83927556Y-54199705D01*
X83935580Y-54205535D01*
X83945015Y-54208601D01*
X83945016Y-54208601D01*
X83980583Y-54220157D01*
X84056237Y-54244738D01*
X84179262Y-54244738D01*
X84247383Y-54264740D01*
X84293876Y-54318396D01*
X84305262Y-54370738D01*
X84305262Y-54468763D01*
X84344465Y-54589420D01*
X84400278Y-54666239D01*
X84542998Y-54808958D01*
X84679232Y-54945192D01*
X84713257Y-55007505D01*
X84716137Y-55034288D01*
X84716137Y-55151633D01*
X84696135Y-55219754D01*
X84679230Y-55240731D01*
X84678272Y-55241689D01*
X84671718Y-55246718D01*
X84575464Y-55372159D01*
X84514956Y-55518238D01*
X84494318Y-55675000D01*
X84514956Y-55831762D01*
X84575464Y-55977841D01*
X84671718Y-56103282D01*
X84797159Y-56199536D01*
X84943238Y-56260044D01*
X85100000Y-56280682D01*
X85108188Y-56279604D01*
X85248574Y-56261122D01*
X85256762Y-56260044D01*
X85402841Y-56199536D01*
X85409394Y-56194508D01*
X85409397Y-56194506D01*
X85446796Y-56165809D01*
X85513016Y-56140208D01*
X85582565Y-56154473D01*
X85633361Y-56204074D01*
X85649500Y-56265771D01*
X85649500Y-56703834D01*
X85652481Y-56735369D01*
X85697366Y-56863184D01*
X85702958Y-56870754D01*
X85702959Y-56870757D01*
X85743003Y-56924971D01*
X85777850Y-56972150D01*
X85785421Y-56977742D01*
X85879243Y-57047041D01*
X85879246Y-57047042D01*
X85886816Y-57052634D01*
X86014631Y-57097519D01*
X86022277Y-57098242D01*
X86022278Y-57098242D01*
X86028248Y-57098806D01*
X86046166Y-57100500D01*
X87453834Y-57100500D01*
X87471752Y-57098806D01*
X87477722Y-57098242D01*
X87477723Y-57098242D01*
X87485369Y-57097519D01*
X87613184Y-57052634D01*
X87620754Y-57047042D01*
X87620757Y-57047041D01*
X87714579Y-56977742D01*
X87722150Y-56972150D01*
X87756997Y-56924971D01*
X87797041Y-56870757D01*
X87797042Y-56870754D01*
X87802634Y-56863184D01*
X87847519Y-56735369D01*
X87850500Y-56703834D01*
X87850500Y-55896166D01*
X87847519Y-55864631D01*
X87802634Y-55736816D01*
X87797042Y-55729246D01*
X87797041Y-55729243D01*
X87727742Y-55635421D01*
X87722150Y-55627850D01*
X87661852Y-55583313D01*
X87620757Y-55552959D01*
X87620754Y-55552958D01*
X87613184Y-55547366D01*
X87485369Y-55502481D01*
X87477723Y-55501758D01*
X87477722Y-55501758D01*
X87471752Y-55501194D01*
X87453834Y-55499500D01*
X86046166Y-55499500D01*
X86028248Y-55501194D01*
X86022278Y-55501758D01*
X86022277Y-55501758D01*
X86014631Y-55502481D01*
X85886816Y-55547366D01*
X85879243Y-55552959D01*
X85879242Y-55552960D01*
X85871161Y-55558929D01*
X85804482Y-55583313D01*
X85735207Y-55567777D01*
X85685327Y-55517254D01*
X85679891Y-55505797D01*
X85627696Y-55379789D01*
X85624536Y-55372159D01*
X85528282Y-55246718D01*
X85513818Y-55235619D01*
X85461373Y-55195377D01*
X85419506Y-55138039D01*
X85415284Y-55067168D01*
X85448982Y-55006319D01*
X85679492Y-54775809D01*
X85679498Y-54775802D01*
X85682995Y-54772305D01*
X85738809Y-54695486D01*
X85778012Y-54574829D01*
X85778012Y-54447963D01*
X85738809Y-54327306D01*
X85682996Y-54250487D01*
X85249513Y-53817005D01*
X85195949Y-53778087D01*
X85180720Y-53767022D01*
X85180718Y-53767021D01*
X85172694Y-53761191D01*
X85052037Y-53721988D01*
X84929012Y-53721988D01*
X84860891Y-53701986D01*
X84814398Y-53648330D01*
X84803012Y-53595988D01*
X84803012Y-53497963D01*
X84791096Y-53461288D01*
X84789070Y-53390321D01*
X84825734Y-53329524D01*
X84889447Y-53298200D01*
X84959980Y-53306294D01*
X84969307Y-53310694D01*
X85027572Y-53341155D01*
X85041672Y-53346483D01*
X85193341Y-53383736D01*
X85208306Y-53385547D01*
X85364486Y-53385547D01*
X85379453Y-53383736D01*
X85385002Y-53382373D01*
X85455927Y-53385551D01*
X85516988Y-53430675D01*
X85564090Y-53495504D01*
X85564098Y-53495514D01*
X85567004Y-53499513D01*
X86000487Y-53932995D01*
X86023164Y-53949471D01*
X86069280Y-53982978D01*
X86069282Y-53982979D01*
X86077306Y-53988809D01*
X86197963Y-54028012D01*
X86324829Y-54028012D01*
X86402299Y-54002841D01*
X86473265Y-54000815D01*
X86534062Y-54037478D01*
X86557641Y-54074456D01*
X86600464Y-54177841D01*
X86696718Y-54303282D01*
X86822159Y-54399536D01*
X86968238Y-54460044D01*
X87125000Y-54480682D01*
X87133188Y-54479604D01*
X87147218Y-54477757D01*
X87281762Y-54460044D01*
X87427841Y-54399536D01*
X87553282Y-54303282D01*
X87649536Y-54177841D01*
X87710044Y-54031762D01*
X87730682Y-53875000D01*
X87710044Y-53718238D01*
X87649536Y-53572159D01*
X87553282Y-53446718D01*
X87427841Y-53350464D01*
X87281762Y-53289956D01*
X87125000Y-53269318D01*
X87058157Y-53278118D01*
X86988010Y-53267179D01*
X86952617Y-53242291D01*
X86943593Y-53233267D01*
X86912855Y-53183109D01*
X86908599Y-53170011D01*
X86905535Y-53160580D01*
X86849722Y-53083761D01*
X86416239Y-52650279D01*
X86363213Y-52611752D01*
X86347443Y-52600294D01*
X86347442Y-52600293D01*
X86339420Y-52594465D01*
X86339767Y-52593988D01*
X86293659Y-52550440D01*
X86276594Y-52481525D01*
X86277273Y-52473220D01*
X86277273Y-52316580D01*
X86275462Y-52301615D01*
X86238209Y-52149946D01*
X86232880Y-52135842D01*
X86160105Y-51996640D01*
X86152726Y-51985564D01*
X86111744Y-51936288D01*
X86107827Y-51931995D01*
X86067833Y-51892001D01*
X86053889Y-51884387D01*
X86052056Y-51884518D01*
X86045441Y-51888769D01*
X85322458Y-52611752D01*
X85260146Y-52645778D01*
X85189331Y-52640713D01*
X85144268Y-52611752D01*
X84371485Y-51838969D01*
X84357541Y-51831355D01*
X84355708Y-51831486D01*
X84351895Y-51833936D01*
X84313995Y-51879504D01*
X84306623Y-51890568D01*
X84233846Y-52029776D01*
X84228517Y-52043880D01*
X84191264Y-52195549D01*
X84189453Y-52210514D01*
X84189453Y-52366694D01*
X84191264Y-52381659D01*
X84228517Y-52533328D01*
X84233845Y-52547428D01*
X84264306Y-52605693D01*
X84278141Y-52675329D01*
X84252132Y-52741390D01*
X84194536Y-52782902D01*
X84123641Y-52786686D01*
X84113711Y-52783904D01*
X84077037Y-52771988D01*
X83950171Y-52771988D01*
X83933988Y-52777246D01*
X83863024Y-52779274D01*
X83802225Y-52742612D01*
X83770900Y-52678900D01*
X83778992Y-52608366D01*
X83790284Y-52587419D01*
X83814603Y-52551023D01*
X83830164Y-52472792D01*
X83814603Y-52394561D01*
X83781475Y-52344981D01*
X82905019Y-51468525D01*
X82904350Y-51468078D01*
X84723080Y-51468078D01*
X84723211Y-51469911D01*
X84727462Y-51476526D01*
X85220551Y-51969615D01*
X85234495Y-51977229D01*
X85236328Y-51977098D01*
X85242943Y-51972847D01*
X85682998Y-51532792D01*
X85690612Y-51518848D01*
X85690481Y-51517015D01*
X85686230Y-51510400D01*
X85642988Y-51467158D01*
X85638736Y-51463278D01*
X85584291Y-51417995D01*
X85585163Y-51416947D01*
X85544268Y-51368140D01*
X85535331Y-51297708D01*
X85565891Y-51233625D01*
X85593663Y-51210417D01*
X85605462Y-51203151D01*
X85645343Y-51171085D01*
X85650406Y-51166541D01*
X85807786Y-51009161D01*
X85815397Y-50995223D01*
X85815265Y-50993387D01*
X85811016Y-50986775D01*
X85229537Y-50405295D01*
X85215594Y-50397682D01*
X85213760Y-50397813D01*
X85207146Y-50402064D01*
X84731732Y-50877479D01*
X84724121Y-50891417D01*
X84724253Y-50893253D01*
X84728502Y-50899865D01*
X84964417Y-51135780D01*
X84998443Y-51198092D01*
X84993378Y-51268907D01*
X84950831Y-51325743D01*
X84928047Y-51338249D01*
X84928232Y-51338602D01*
X84782300Y-51414895D01*
X84771224Y-51422274D01*
X84728845Y-51457520D01*
X84723080Y-51468078D01*
X82904350Y-51468078D01*
X82855439Y-51435397D01*
X82843270Y-51432976D01*
X82843269Y-51432976D01*
X82798999Y-51424170D01*
X82777208Y-51419836D01*
X82755417Y-51424170D01*
X82711147Y-51432976D01*
X82711146Y-51432976D01*
X82698977Y-51435397D01*
X82649397Y-51468525D01*
X81985073Y-52132849D01*
X81951945Y-52182429D01*
X81949524Y-52194598D01*
X81949524Y-52194599D01*
X81940718Y-52238869D01*
X81936384Y-52260660D01*
X76944778Y-52260660D01*
X76822314Y-52243122D01*
X76804536Y-52243122D01*
X76678266Y-52261205D01*
X76661211Y-52266192D01*
X76544108Y-52319435D01*
X76530755Y-52327658D01*
X76490881Y-52359718D01*
X76485799Y-52364279D01*
X76296402Y-52553676D01*
X76288788Y-52567620D01*
X70495354Y-52567620D01*
X70766238Y-52296736D01*
X71123371Y-51939604D01*
X71185683Y-51905579D01*
X71256499Y-51910644D01*
X71313334Y-51953191D01*
X71337388Y-52012255D01*
X71339956Y-52031762D01*
X71400464Y-52177841D01*
X71496718Y-52303282D01*
X71503264Y-52308305D01*
X71532918Y-52331059D01*
X71622159Y-52399536D01*
X71768238Y-52460044D01*
X71925000Y-52480682D01*
X71933188Y-52479604D01*
X72073574Y-52461122D01*
X72081762Y-52460044D01*
X72227841Y-52399536D01*
X72317082Y-52331059D01*
X72346736Y-52308305D01*
X72353282Y-52303282D01*
X72449536Y-52177841D01*
X72510044Y-52031762D01*
X72530682Y-51875000D01*
X72510044Y-51718238D01*
X72449536Y-51572159D01*
X72353282Y-51446718D01*
X72345776Y-51440958D01*
X72234392Y-51355491D01*
X72227841Y-51350464D01*
X72081762Y-51289956D01*
X72062255Y-51287388D01*
X71997328Y-51258667D01*
X71958235Y-51199402D01*
X71957390Y-51128411D01*
X71989604Y-51073371D01*
X72762026Y-50300948D01*
X72766404Y-50296570D01*
X72799532Y-50246991D01*
X72815093Y-50168759D01*
X72799532Y-50090528D01*
X72766404Y-50040948D01*
X72350456Y-49625000D01*
X77469318Y-49625000D01*
X77489956Y-49781762D01*
X77550464Y-49927841D01*
X77555491Y-49934392D01*
X77641196Y-50046085D01*
X77646718Y-50053282D01*
X77772159Y-50149536D01*
X77918238Y-50210044D01*
X78075000Y-50230682D01*
X78083188Y-50229604D01*
X78223574Y-50211122D01*
X78231762Y-50210044D01*
X78377841Y-50149536D01*
X78440395Y-50101537D01*
X78506616Y-50075937D01*
X78517099Y-50075500D01*
X78523500Y-50075500D01*
X78591621Y-50095502D01*
X78638114Y-50149158D01*
X78649500Y-50201500D01*
X78649500Y-50585463D01*
X78649712Y-50588036D01*
X78649712Y-50588047D01*
X78663649Y-50757565D01*
X78663650Y-50757571D01*
X78664073Y-50762716D01*
X78722179Y-50994048D01*
X78724237Y-50998781D01*
X78724238Y-50998784D01*
X78810900Y-51198092D01*
X78817288Y-51212784D01*
X78946845Y-51413049D01*
X78950324Y-51416872D01*
X78950326Y-51416875D01*
X79098567Y-51579789D01*
X79107371Y-51589464D01*
X79111422Y-51592663D01*
X79111426Y-51592667D01*
X79290500Y-51734091D01*
X79290504Y-51734093D01*
X79294555Y-51737293D01*
X79299076Y-51739789D01*
X79299078Y-51739790D01*
X79350318Y-51768076D01*
X79503369Y-51852564D01*
X79508238Y-51854288D01*
X79508242Y-51854290D01*
X79723337Y-51930459D01*
X79723339Y-51930460D01*
X79728206Y-51932183D01*
X79845617Y-51953098D01*
X79957940Y-51973106D01*
X79957944Y-51973106D01*
X79963028Y-51974012D01*
X80046860Y-51975036D01*
X80196360Y-51976863D01*
X80196362Y-51976863D01*
X80201529Y-51976926D01*
X80437302Y-51940847D01*
X80664018Y-51866745D01*
X80668606Y-51864357D01*
X80668610Y-51864355D01*
X80870997Y-51758999D01*
X80870998Y-51758998D01*
X80875586Y-51756610D01*
X80879719Y-51753507D01*
X80879722Y-51753505D01*
X81062190Y-51616503D01*
X81062192Y-51616501D01*
X81066325Y-51613398D01*
X81160791Y-51514545D01*
X81227542Y-51444695D01*
X81227543Y-51444694D01*
X81231113Y-51440958D01*
X81234907Y-51435397D01*
X81362606Y-51248197D01*
X81365525Y-51243918D01*
X81465949Y-51027572D01*
X81529691Y-50797728D01*
X81533983Y-50757565D01*
X81550144Y-50606349D01*
X81550144Y-50606341D01*
X81550500Y-50603014D01*
X81550500Y-49918319D01*
X83962313Y-49918319D01*
X83962313Y-49936097D01*
X83980396Y-50062367D01*
X83985383Y-50079422D01*
X84038626Y-50196525D01*
X84046849Y-50209878D01*
X84078915Y-50249759D01*
X84083459Y-50254823D01*
X84346905Y-50518268D01*
X84360843Y-50525879D01*
X84362679Y-50525747D01*
X84369291Y-50521498D01*
X84844705Y-50046085D01*
X84851082Y-50034406D01*
X85581134Y-50034406D01*
X85581265Y-50036240D01*
X85585516Y-50042854D01*
X86166997Y-50624334D01*
X86180935Y-50631945D01*
X86182771Y-50631813D01*
X86189383Y-50627564D01*
X86349981Y-50466966D01*
X86354543Y-50461882D01*
X86386603Y-50422009D01*
X86394825Y-50408659D01*
X86448069Y-50291554D01*
X86453056Y-50274499D01*
X86471139Y-50148229D01*
X86471139Y-50130451D01*
X86453056Y-50004181D01*
X86448069Y-49987126D01*
X86394826Y-49870023D01*
X86386603Y-49856670D01*
X86354537Y-49816789D01*
X86349993Y-49811725D01*
X86086547Y-49548280D01*
X86072609Y-49540669D01*
X86070773Y-49540801D01*
X86064161Y-49545050D01*
X85588747Y-50020463D01*
X85581134Y-50034406D01*
X84851082Y-50034406D01*
X84852318Y-50032142D01*
X84852187Y-50030308D01*
X84847936Y-50023694D01*
X84266455Y-49442214D01*
X84252517Y-49434603D01*
X84250681Y-49434735D01*
X84244069Y-49438984D01*
X84083471Y-49599582D01*
X84078909Y-49604666D01*
X84046849Y-49644539D01*
X84038627Y-49657889D01*
X83985383Y-49774994D01*
X83980396Y-49792049D01*
X83962313Y-49918319D01*
X81550500Y-49918319D01*
X81550500Y-49071325D01*
X84618055Y-49071325D01*
X84618187Y-49073161D01*
X84622436Y-49079773D01*
X85203915Y-49661253D01*
X85217858Y-49668866D01*
X85219692Y-49668735D01*
X85226306Y-49664484D01*
X85701720Y-49189069D01*
X85709331Y-49175131D01*
X85709199Y-49173295D01*
X85704950Y-49166683D01*
X85438286Y-48900019D01*
X85433202Y-48895457D01*
X85393329Y-48863397D01*
X85379979Y-48855175D01*
X85262874Y-48801931D01*
X85245819Y-48796944D01*
X85119549Y-48778861D01*
X85101771Y-48778861D01*
X84975501Y-48796944D01*
X84958446Y-48801931D01*
X84841343Y-48855174D01*
X84827990Y-48863397D01*
X84788109Y-48895463D01*
X84783046Y-48900007D01*
X84625666Y-49057387D01*
X84618055Y-49071325D01*
X81550500Y-49071325D01*
X81550500Y-48764537D01*
X81548783Y-48743651D01*
X81536351Y-48592435D01*
X81536350Y-48592429D01*
X81535927Y-48587284D01*
X81477821Y-48355952D01*
X81475762Y-48351216D01*
X81384772Y-48141953D01*
X81384770Y-48141950D01*
X81382712Y-48137216D01*
X81253155Y-47936951D01*
X81224360Y-47905305D01*
X81096107Y-47764358D01*
X81096105Y-47764357D01*
X81092629Y-47760536D01*
X81088578Y-47757337D01*
X81088574Y-47757333D01*
X80909500Y-47615909D01*
X80909496Y-47615907D01*
X80905445Y-47612707D01*
X80866125Y-47591001D01*
X80794195Y-47551294D01*
X80696631Y-47497436D01*
X80691762Y-47495712D01*
X80691758Y-47495710D01*
X80476663Y-47419541D01*
X80476661Y-47419540D01*
X80471794Y-47417817D01*
X80354383Y-47396902D01*
X80242060Y-47376894D01*
X80242056Y-47376894D01*
X80236972Y-47375988D01*
X80153140Y-47374964D01*
X80003640Y-47373137D01*
X80003638Y-47373137D01*
X79998471Y-47373074D01*
X79762698Y-47409153D01*
X79535982Y-47483255D01*
X79531394Y-47485643D01*
X79531390Y-47485645D01*
X79329003Y-47591001D01*
X79324414Y-47593390D01*
X79320281Y-47596493D01*
X79320278Y-47596495D01*
X79137810Y-47733497D01*
X79133675Y-47736602D01*
X78968887Y-47909042D01*
X78834475Y-48106082D01*
X78734051Y-48322428D01*
X78670309Y-48552272D01*
X78649500Y-48746986D01*
X78649500Y-49048500D01*
X78629498Y-49116621D01*
X78575842Y-49163114D01*
X78523500Y-49174500D01*
X78517099Y-49174500D01*
X78448978Y-49154498D01*
X78440395Y-49148463D01*
X78384392Y-49105491D01*
X78377841Y-49100464D01*
X78231762Y-49039956D01*
X78075000Y-49019318D01*
X77918238Y-49039956D01*
X77772159Y-49100464D01*
X77646718Y-49196718D01*
X77550464Y-49322159D01*
X77489956Y-49468238D01*
X77469318Y-49625000D01*
X72350456Y-49625000D01*
X71678806Y-48953350D01*
X71629226Y-48920222D01*
X71617057Y-48917801D01*
X71617056Y-48917801D01*
X71563166Y-48907082D01*
X71550995Y-48904661D01*
X71472763Y-48920222D01*
X71423184Y-48953350D01*
X69078350Y-51298184D01*
X69045222Y-51347763D01*
X69029661Y-51425995D01*
X68249819Y-51425995D01*
X68427663Y-51135780D01*
X68449212Y-51100615D01*
X68452805Y-51095083D01*
X68653747Y-50802711D01*
X68861252Y-50500790D01*
X68865121Y-50495465D01*
X69304126Y-49923343D01*
X69308277Y-49918217D01*
X69776591Y-49369892D01*
X69781005Y-49364989D01*
X69969191Y-49166683D01*
X70277401Y-48841897D01*
X70282062Y-48837236D01*
X70324521Y-48796944D01*
X70805155Y-48340840D01*
X70810054Y-48336429D01*
X71037756Y-48141953D01*
X71358382Y-47868112D01*
X71363505Y-47863964D01*
X71935627Y-47424959D01*
X71940952Y-47421090D01*
X72535245Y-47012643D01*
X72540777Y-47009050D01*
X72632200Y-46953026D01*
X73155666Y-46632246D01*
X73161337Y-46628972D01*
X73557635Y-46413799D01*
X73795085Y-46284875D01*
X73800963Y-46281880D01*
X74451835Y-45971430D01*
X74457861Y-45968747D01*
X75124088Y-45692787D01*
X75130246Y-45690423D01*
X75810016Y-45449703D01*
X75816290Y-45447665D01*
X76507710Y-45242857D01*
X76514048Y-45241158D01*
X77215289Y-45072805D01*
X77221722Y-45071438D01*
X77930779Y-44940023D01*
X77937277Y-44938993D01*
X78652224Y-44844869D01*
X78658786Y-44844179D01*
X78749602Y-44837031D01*
X79377716Y-44787597D01*
X79384269Y-44787254D01*
X80105169Y-44768377D01*
X80111737Y-44768377D01*
X80832637Y-44787254D01*
G37*
%TD.AperFunction*%
%TD*%
M02*
