%TF.GenerationSoftware,KiCad,Pcbnew,(5.99.0-11604-g878538abff)*%
%TF.CreationDate,2021-08-06T13:26:27+02:00*%
%TF.ProjectId,pixel-pump-motor-board,70697865-6c2d-4707-956d-702d6d6f746f,rev?*%
%TF.SameCoordinates,Original*%
%TF.FileFunction,Copper,L2,Bot*%
%TF.FilePolarity,Positive*%
%FSLAX46Y46*%
G04 Gerber Fmt 4.6, Leading zero omitted, Abs format (unit mm)*
G04 Created by KiCad (PCBNEW (5.99.0-11604-g878538abff)) date 2021-08-06 13:26:27*
%MOMM*%
%LPD*%
G01*
G04 APERTURE LIST*
%TA.AperFunction,SMDPad,CuDef*%
%ADD10R,2.000000X2.000000*%
%TD*%
%TA.AperFunction,ViaPad*%
%ADD11C,0.800000*%
%TD*%
%TA.AperFunction,Conductor*%
%ADD12C,0.500000*%
%TD*%
%TA.AperFunction,Conductor*%
%ADD13C,0.250000*%
%TD*%
G04 APERTURE END LIST*
D10*
%TO.P,J11,1,Pin_1*%
%TO.N,GND*%
X67513200Y-58750200D03*
%TD*%
%TO.P,J5,1,Pin_1*%
%TO.N,GND*%
X92710000Y-58699400D03*
%TD*%
%TO.P,J8,1,Pin_1*%
%TO.N,GND*%
X80010000Y-71247000D03*
%TD*%
%TO.P,J7,1,Pin_1*%
%TO.N,GND*%
X80137000Y-46050200D03*
%TD*%
D11*
%TO.N,BEMF_PIN*%
X75400000Y-67500000D03*
X87125000Y-53875000D03*
X82050000Y-68175000D03*
X82050000Y-66825000D03*
X78050000Y-67550000D03*
X84200000Y-68100000D03*
%TO.N,GND*%
X91422785Y-52871178D03*
X88950800Y-67640200D03*
X85860479Y-47308872D03*
X70190670Y-66659475D03*
X82073209Y-71220754D03*
X72072182Y-68540987D03*
X68427600Y-53721000D03*
X67665600Y-55956200D03*
X92532200Y-61214000D03*
X83376352Y-46355305D03*
X76787894Y-70943763D03*
X90474800Y-65862200D03*
X91744800Y-63601600D03*
X68741461Y-64427890D03*
X87014246Y-69324068D03*
X89973576Y-50639593D03*
X74303767Y-69990196D03*
X75133200Y-46964600D03*
X73150000Y-47975000D03*
X67787894Y-61943763D03*
X92376352Y-55355305D03*
X84643402Y-70532073D03*
X88092064Y-48758081D03*
X77520800Y-46177200D03*
%TO.N,Net-(D1-Pad2)*%
X77700000Y-64800000D03*
X71925000Y-51875000D03*
X78075000Y-49625000D03*
X83800000Y-63100000D03*
X74400000Y-54250000D03*
%TO.N,PWM*%
X74700000Y-63725000D03*
X87700000Y-59600000D03*
%TO.N,BEMF*%
X87700000Y-58600000D03*
X85100000Y-55675000D03*
%TO.N,Net-(Q1-Pad1)*%
X73575000Y-64925000D03*
X70850000Y-62250000D03*
X72975000Y-57600000D03*
%TD*%
D12*
%TO.N,BEMF_PIN*%
X84200000Y-68100000D02*
X82125000Y-68100000D01*
D13*
X87125000Y-53875000D02*
X87975000Y-53875000D01*
D12*
X82125000Y-68100000D02*
X82050000Y-68175000D01*
D13*
X90300000Y-56200000D02*
X90300000Y-60900000D01*
D12*
X78000000Y-67500000D02*
X78050000Y-67550000D01*
D13*
X90300000Y-60900000D02*
X84400000Y-66800000D01*
D12*
X75400000Y-67500000D02*
X78000000Y-67500000D01*
D13*
X87975000Y-53875000D02*
X90300000Y-56200000D01*
X82075000Y-66800000D02*
X82050000Y-66825000D01*
X84400000Y-66800000D02*
X82075000Y-66800000D01*
D12*
%TO.N,Net-(D1-Pad2)*%
X71925000Y-51875000D02*
X72025000Y-51875000D01*
X78200489Y-64299511D02*
X82600489Y-64299511D01*
X77700000Y-64800000D02*
X78200489Y-64299511D01*
X74400000Y-54250000D02*
X74400000Y-60925000D01*
X78068400Y-49631600D02*
X78075000Y-49625000D01*
X82600489Y-64299511D02*
X83800000Y-63100000D01*
X77700000Y-64225000D02*
X77700000Y-64800000D01*
X73225000Y-53075000D02*
X74400000Y-54250000D01*
X76793400Y-49631600D02*
X78068400Y-49631600D01*
X72025000Y-51875000D02*
X73225000Y-53075000D01*
X73225000Y-53075000D02*
X73350000Y-53075000D01*
X74400000Y-60925000D02*
X77700000Y-64225000D01*
X73350000Y-53075000D02*
X76793400Y-49631600D01*
D13*
%TO.N,PWM*%
X76075000Y-66050000D02*
X77925000Y-66050000D01*
X86100000Y-60275000D02*
X86100000Y-60200000D01*
X74700000Y-64675000D02*
X76075000Y-66050000D01*
X86750000Y-59550000D02*
X87650000Y-59550000D01*
X86100000Y-60200000D02*
X86750000Y-59550000D01*
X87650000Y-59550000D02*
X87700000Y-59600000D01*
X83525000Y-65000000D02*
X86100000Y-62425000D01*
X74700000Y-63725000D02*
X74700000Y-64675000D01*
X77925000Y-66050000D02*
X78975000Y-65000000D01*
X86100000Y-62425000D02*
X86100000Y-60275000D01*
X78975000Y-65000000D02*
X83525000Y-65000000D01*
%TO.N,BEMF*%
X85875000Y-57525000D02*
X86950000Y-58600000D01*
X85100000Y-55675000D02*
X85100000Y-56750000D01*
X86950000Y-58600000D02*
X87700000Y-58600000D01*
X85100000Y-56750000D02*
X85875000Y-57525000D01*
D12*
%TO.N,Net-(Q1-Pad1)*%
X70750000Y-59825000D02*
X70750000Y-61775000D01*
X70900000Y-62250000D02*
X73575000Y-64925000D01*
X70750000Y-61775000D02*
X70750000Y-62150000D01*
X70750000Y-62150000D02*
X70850000Y-62250000D01*
X70850000Y-62250000D02*
X70900000Y-62250000D01*
X72975000Y-57600000D02*
X70750000Y-59825000D01*
%TD*%
%TA.AperFunction,Conductor*%
%TO.N,GND*%
G36*
X80827403Y-44887117D02*
G01*
X80833956Y-44887460D01*
X81458668Y-44936627D01*
X81547667Y-44943631D01*
X81554229Y-44944321D01*
X82263986Y-45037762D01*
X82270484Y-45038792D01*
X82974392Y-45169253D01*
X82980825Y-45170620D01*
X83676976Y-45337751D01*
X83683314Y-45339450D01*
X84254784Y-45508727D01*
X84369715Y-45542771D01*
X84375989Y-45544809D01*
X85050824Y-45783781D01*
X85056982Y-45786145D01*
X85718372Y-46060102D01*
X85724398Y-46062785D01*
X86370544Y-46370981D01*
X86376422Y-46373976D01*
X86612685Y-46502256D01*
X87005569Y-46715574D01*
X87011240Y-46718848D01*
X87493624Y-47014453D01*
X87621665Y-47092917D01*
X87627197Y-47096510D01*
X88217175Y-47501991D01*
X88222512Y-47505869D01*
X88790457Y-47941669D01*
X88795583Y-47945820D01*
X89339939Y-48410743D01*
X89344838Y-48415154D01*
X89733740Y-48784207D01*
X89864134Y-48907946D01*
X89868795Y-48912607D01*
X90079602Y-49134751D01*
X90361587Y-49431902D01*
X90366001Y-49436805D01*
X90830924Y-49981161D01*
X90835075Y-49986287D01*
X91270875Y-50554232D01*
X91274753Y-50559569D01*
X91680234Y-51149547D01*
X91683827Y-51155079D01*
X92057896Y-51765504D01*
X92061170Y-51771175D01*
X92255229Y-52128587D01*
X92402768Y-52400322D01*
X92405763Y-52406200D01*
X92713959Y-53052346D01*
X92716642Y-53058372D01*
X92990599Y-53719762D01*
X92992963Y-53725920D01*
X93134424Y-54125392D01*
X93231622Y-54399870D01*
X93231935Y-54400755D01*
X93233972Y-54407025D01*
X93415735Y-55020647D01*
X93437289Y-55093413D01*
X93438993Y-55099768D01*
X93606122Y-55795910D01*
X93607491Y-55802352D01*
X93643318Y-55995656D01*
X93737951Y-56506251D01*
X93738983Y-56512767D01*
X93832423Y-57222517D01*
X93833113Y-57229077D01*
X93887050Y-57914395D01*
X93889283Y-57942771D01*
X93889627Y-57949341D01*
X93908255Y-58660728D01*
X93908367Y-58664993D01*
X93908367Y-58671575D01*
X93891490Y-59316126D01*
X93889628Y-59387223D01*
X93889284Y-59393794D01*
X93840117Y-60018506D01*
X93833113Y-60107505D01*
X93832423Y-60114065D01*
X93765630Y-60621413D01*
X93738983Y-60823815D01*
X93737952Y-60830322D01*
X93614927Y-61494112D01*
X93607493Y-61534220D01*
X93606124Y-61540663D01*
X93465585Y-62126051D01*
X93438997Y-62236797D01*
X93437294Y-62243152D01*
X93355453Y-62519442D01*
X93233973Y-62929553D01*
X93231935Y-62935827D01*
X92992963Y-63610662D01*
X92990599Y-63616820D01*
X92716642Y-64278210D01*
X92713959Y-64284236D01*
X92405763Y-64930382D01*
X92402768Y-64936260D01*
X92061170Y-65565407D01*
X92057896Y-65571078D01*
X91847563Y-65914311D01*
X91683827Y-66181503D01*
X91680234Y-66187035D01*
X91274753Y-66777013D01*
X91270875Y-66782350D01*
X90835075Y-67350295D01*
X90830924Y-67355421D01*
X90366001Y-67899777D01*
X90361587Y-67904680D01*
X89868798Y-68423972D01*
X89864137Y-68428633D01*
X89400989Y-68868144D01*
X89344842Y-68921425D01*
X89339939Y-68925839D01*
X88795583Y-69390762D01*
X88790457Y-69394913D01*
X88222512Y-69830713D01*
X88217175Y-69834591D01*
X87627197Y-70240072D01*
X87621665Y-70243665D01*
X87011240Y-70617734D01*
X87005569Y-70621008D01*
X86612685Y-70834326D01*
X86376422Y-70962606D01*
X86370544Y-70965601D01*
X85724398Y-71273797D01*
X85718372Y-71276480D01*
X85056982Y-71550437D01*
X85050824Y-71552801D01*
X84375989Y-71791773D01*
X84369719Y-71793810D01*
X83683314Y-71997132D01*
X83676976Y-71998831D01*
X82980825Y-72165962D01*
X82974392Y-72167329D01*
X82270484Y-72297790D01*
X82263986Y-72298820D01*
X81736997Y-72368199D01*
X81554227Y-72392261D01*
X81547667Y-72392951D01*
X81458668Y-72399955D01*
X80833956Y-72449122D01*
X80827403Y-72449465D01*
X80111737Y-72468205D01*
X80105169Y-72468205D01*
X79389503Y-72449465D01*
X79382950Y-72449122D01*
X78758238Y-72399955D01*
X78669239Y-72392951D01*
X78662679Y-72392261D01*
X78479909Y-72368199D01*
X77952920Y-72298820D01*
X77946422Y-72297790D01*
X77242514Y-72167329D01*
X77236081Y-72165962D01*
X76539930Y-71998831D01*
X76533592Y-71997132D01*
X75847187Y-71793810D01*
X75840917Y-71791773D01*
X75166082Y-71552801D01*
X75159924Y-71550437D01*
X74498534Y-71276480D01*
X74492508Y-71273797D01*
X73846362Y-70965601D01*
X73840484Y-70962606D01*
X73604221Y-70834326D01*
X73211337Y-70621008D01*
X73205666Y-70617734D01*
X72595241Y-70243665D01*
X72589709Y-70240072D01*
X71999731Y-69834591D01*
X71994394Y-69830713D01*
X71426449Y-69394913D01*
X71421323Y-69390762D01*
X70876967Y-68925839D01*
X70872064Y-68921425D01*
X70815918Y-68868144D01*
X70352769Y-68428633D01*
X70348108Y-68423972D01*
X69855319Y-67904680D01*
X69850905Y-67899777D01*
X69385982Y-67355421D01*
X69381831Y-67350295D01*
X68946031Y-66782350D01*
X68942153Y-66777013D01*
X68536672Y-66187035D01*
X68533079Y-66181503D01*
X68369343Y-65914311D01*
X68159010Y-65571078D01*
X68155736Y-65565407D01*
X67814138Y-64936260D01*
X67811143Y-64930382D01*
X67502947Y-64284236D01*
X67500264Y-64278210D01*
X67226307Y-63616820D01*
X67223943Y-63610662D01*
X66984971Y-62935827D01*
X66982933Y-62929553D01*
X66861453Y-62519442D01*
X66779612Y-62243152D01*
X66777909Y-62236797D01*
X66751322Y-62126051D01*
X66610782Y-61540663D01*
X66609413Y-61534220D01*
X66601980Y-61494112D01*
X66478954Y-60830322D01*
X66477923Y-60823815D01*
X66451277Y-60621413D01*
X66384483Y-60114065D01*
X66383793Y-60107505D01*
X66376789Y-60018506D01*
X66327622Y-59393794D01*
X66327278Y-59387223D01*
X66325417Y-59316126D01*
X66314482Y-58898548D01*
X68698899Y-58898548D01*
X68698998Y-58900341D01*
X68698998Y-58900353D01*
X68725974Y-59390527D01*
X68734990Y-59554347D01*
X68808771Y-60206980D01*
X68809079Y-60208772D01*
X68915325Y-60827087D01*
X68919998Y-60854284D01*
X68920405Y-60856039D01*
X68920407Y-60856050D01*
X69014193Y-61260665D01*
X69068303Y-61494112D01*
X69253192Y-62124342D01*
X69253800Y-62126044D01*
X69253802Y-62126051D01*
X69295621Y-62243169D01*
X69474053Y-62742884D01*
X69730154Y-63347686D01*
X70020645Y-63936744D01*
X70344563Y-64508103D01*
X70700833Y-65059868D01*
X70701888Y-65061313D01*
X70701890Y-65061315D01*
X71070140Y-65565386D01*
X71088275Y-65590210D01*
X71505603Y-66097371D01*
X71583374Y-66181503D01*
X71890529Y-66513781D01*
X71951433Y-66579667D01*
X72424286Y-67035499D01*
X72922595Y-67463357D01*
X73444707Y-67861820D01*
X73708878Y-68040341D01*
X73987375Y-68228544D01*
X73987387Y-68228551D01*
X73988891Y-68229568D01*
X74553341Y-68565380D01*
X74554957Y-68566219D01*
X74554958Y-68566220D01*
X75109186Y-68854119D01*
X75136185Y-68868144D01*
X75735492Y-69136854D01*
X76003326Y-69238862D01*
X76347581Y-69369977D01*
X76347594Y-69369981D01*
X76349273Y-69370621D01*
X76759151Y-69500248D01*
X76973769Y-69568123D01*
X76973776Y-69568125D01*
X76975493Y-69568668D01*
X77612074Y-69730339D01*
X78256907Y-69855098D01*
X78258694Y-69855338D01*
X78258700Y-69855339D01*
X78906049Y-69942289D01*
X78906055Y-69942290D01*
X78907852Y-69942531D01*
X78909660Y-69942669D01*
X78909674Y-69942670D01*
X79274724Y-69970438D01*
X79562751Y-69992348D01*
X80005916Y-70000471D01*
X80217625Y-70004351D01*
X80217629Y-70004351D01*
X80219431Y-70004384D01*
X80336458Y-69999786D01*
X80873892Y-69978670D01*
X80873905Y-69978669D01*
X80875715Y-69978598D01*
X80877528Y-69978422D01*
X80877540Y-69978421D01*
X81527629Y-69915252D01*
X81527639Y-69915251D01*
X81529427Y-69915077D01*
X82178398Y-69814031D01*
X82180159Y-69813652D01*
X82180169Y-69813650D01*
X82818694Y-69676179D01*
X82818705Y-69676176D01*
X82820476Y-69675795D01*
X83453533Y-69500828D01*
X83455242Y-69500248D01*
X84073742Y-69290296D01*
X84073756Y-69290291D01*
X84075467Y-69289710D01*
X84454687Y-69136110D01*
X84682540Y-69043820D01*
X84682550Y-69043816D01*
X84684218Y-69043140D01*
X84685839Y-69042372D01*
X84685855Y-69042365D01*
X85276130Y-68762712D01*
X85277766Y-68761937D01*
X85279353Y-68761070D01*
X85852537Y-68447911D01*
X85852540Y-68447909D01*
X85854142Y-68447034D01*
X86411436Y-68099474D01*
X86947798Y-67720411D01*
X87405833Y-67355421D01*
X87460042Y-67312224D01*
X87460047Y-67312220D01*
X87461451Y-67311101D01*
X87462790Y-67309902D01*
X87949344Y-66874107D01*
X87949352Y-66874100D01*
X87950690Y-66872901D01*
X88413894Y-66407266D01*
X88611496Y-66184310D01*
X88848318Y-65917101D01*
X88848320Y-65917099D01*
X88849525Y-65915739D01*
X88884985Y-65870759D01*
X89255021Y-65401371D01*
X89255025Y-65401366D01*
X89256141Y-65399950D01*
X89257184Y-65398458D01*
X89631351Y-64863097D01*
X89631355Y-64863091D01*
X89632390Y-64861610D01*
X89850295Y-64508103D01*
X89976075Y-64304051D01*
X89976084Y-64304036D01*
X89977028Y-64302504D01*
X90288909Y-63724487D01*
X90465015Y-63347686D01*
X90566236Y-63131111D01*
X90566244Y-63131093D01*
X90567000Y-63129475D01*
X90810378Y-62519442D01*
X90903609Y-62239994D01*
X91017665Y-61898126D01*
X91017670Y-61898110D01*
X91018237Y-61896410D01*
X91189888Y-61262446D01*
X91275530Y-60854284D01*
X91324391Y-60621413D01*
X91324393Y-60621403D01*
X91324760Y-60619653D01*
X91422406Y-59970162D01*
X91460447Y-59556166D01*
X91482337Y-59317946D01*
X91482338Y-59317938D01*
X91482504Y-59316126D01*
X91496660Y-58900353D01*
X91504819Y-58660728D01*
X91504820Y-58660699D01*
X91504853Y-58659716D01*
X91505009Y-58600000D01*
X91486097Y-57943482D01*
X91455305Y-57587948D01*
X91429582Y-57290952D01*
X91429581Y-57290947D01*
X91429425Y-57289141D01*
X91335181Y-56639147D01*
X91203676Y-55995656D01*
X91035348Y-55360802D01*
X90922715Y-55017217D01*
X90831314Y-54738398D01*
X90831309Y-54738385D01*
X90830754Y-54736691D01*
X90590572Y-54125392D01*
X90439681Y-53798083D01*
X90316358Y-53530573D01*
X90316351Y-53530559D01*
X90315601Y-53528932D01*
X90314764Y-53527361D01*
X90314756Y-53527345D01*
X90145123Y-53208983D01*
X90006750Y-52949289D01*
X89665045Y-52388387D01*
X89291619Y-51848084D01*
X88887710Y-51330174D01*
X88454658Y-50836372D01*
X88278891Y-50657822D01*
X87995183Y-50369622D01*
X87995177Y-50369616D01*
X87993899Y-50368318D01*
X87506961Y-49927563D01*
X86995458Y-49515569D01*
X86461088Y-49133702D01*
X86110679Y-48912610D01*
X85907172Y-48784207D01*
X85907173Y-48784207D01*
X85905622Y-48783229D01*
X85330902Y-48465312D01*
X85329276Y-48464531D01*
X85329264Y-48464525D01*
X84997602Y-48305264D01*
X84738835Y-48181006D01*
X84737179Y-48180325D01*
X84737163Y-48180318D01*
X84133050Y-47931937D01*
X84133051Y-47931937D01*
X84131384Y-47931252D01*
X83510563Y-47716880D01*
X82878431Y-47538601D01*
X82876676Y-47538214D01*
X82876662Y-47538210D01*
X82238867Y-47397398D01*
X82238860Y-47397397D01*
X82237086Y-47397005D01*
X82235300Y-47396717D01*
X82235293Y-47396716D01*
X81590446Y-47292851D01*
X81590447Y-47292851D01*
X81588652Y-47292562D01*
X81586852Y-47292378D01*
X81586840Y-47292376D01*
X80937080Y-47225803D01*
X80937072Y-47225802D01*
X80935282Y-47225619D01*
X80933480Y-47225539D01*
X80933470Y-47225538D01*
X80280947Y-47196478D01*
X80280934Y-47196478D01*
X80279142Y-47196398D01*
X79925049Y-47201033D01*
X79624218Y-47204971D01*
X79624207Y-47204971D01*
X79622408Y-47204995D01*
X78967257Y-47251382D01*
X78315864Y-47335406D01*
X78052068Y-47385012D01*
X77672145Y-47456455D01*
X77672131Y-47456458D01*
X77670387Y-47456786D01*
X77032967Y-47615122D01*
X76703331Y-47717477D01*
X76407467Y-47809345D01*
X76407460Y-47809347D01*
X76405719Y-47809888D01*
X76404012Y-47810528D01*
X75792423Y-48039800D01*
X75792413Y-48039804D01*
X75790722Y-48040438D01*
X75789066Y-48041170D01*
X75789054Y-48041175D01*
X75470983Y-48181793D01*
X75190017Y-48306007D01*
X75188391Y-48306841D01*
X74607207Y-48604887D01*
X74607198Y-48604892D01*
X74605595Y-48605714D01*
X74604042Y-48606627D01*
X74604031Y-48606633D01*
X74357301Y-48751679D01*
X74039394Y-48938567D01*
X74037896Y-48939568D01*
X73494804Y-49302450D01*
X73494795Y-49302456D01*
X73493293Y-49303460D01*
X72969102Y-49699184D01*
X72468559Y-50124427D01*
X71993326Y-50577777D01*
X71992070Y-50579122D01*
X71546230Y-51056389D01*
X71546221Y-51056400D01*
X71544976Y-51057732D01*
X71543807Y-51059138D01*
X71543804Y-51059141D01*
X71205571Y-51465823D01*
X71124999Y-51562700D01*
X70734786Y-52091007D01*
X70570565Y-52342442D01*
X70376623Y-52639379D01*
X70376611Y-52639398D01*
X70375631Y-52640899D01*
X70048726Y-53210554D01*
X69755155Y-53798083D01*
X69495891Y-54401536D01*
X69271794Y-55018913D01*
X69271279Y-55020634D01*
X69271275Y-55020647D01*
X69248564Y-55096588D01*
X69083607Y-55648166D01*
X68931955Y-56287209D01*
X68817340Y-56933922D01*
X68817131Y-56935691D01*
X68817129Y-56935702D01*
X68783183Y-57222517D01*
X68740143Y-57586160D01*
X68700619Y-58241760D01*
X68698899Y-58898548D01*
X66314482Y-58898548D01*
X66308539Y-58671575D01*
X66308539Y-58664993D01*
X66308651Y-58660728D01*
X66327279Y-57949341D01*
X66327623Y-57942771D01*
X66329857Y-57914395D01*
X66383793Y-57229077D01*
X66384483Y-57222517D01*
X66477923Y-56512767D01*
X66478955Y-56506251D01*
X66573588Y-55995656D01*
X66609415Y-55802352D01*
X66610784Y-55795910D01*
X66777913Y-55099768D01*
X66779617Y-55093413D01*
X66801172Y-55020647D01*
X66982934Y-54407025D01*
X66984971Y-54400755D01*
X66985285Y-54399870D01*
X67082482Y-54125392D01*
X67223943Y-53725920D01*
X67226307Y-53719762D01*
X67500264Y-53058372D01*
X67502947Y-53052346D01*
X67811143Y-52406200D01*
X67814138Y-52400322D01*
X67961677Y-52128587D01*
X68155736Y-51771175D01*
X68159010Y-51765504D01*
X68533079Y-51155079D01*
X68536672Y-51149547D01*
X68942153Y-50559569D01*
X68946031Y-50554232D01*
X69381831Y-49986287D01*
X69385982Y-49981161D01*
X69850905Y-49436805D01*
X69855319Y-49431902D01*
X70137305Y-49134751D01*
X70348111Y-48912607D01*
X70352772Y-48907946D01*
X70483166Y-48784207D01*
X70872068Y-48415154D01*
X70876967Y-48410743D01*
X71421323Y-47945820D01*
X71426449Y-47941669D01*
X71994394Y-47505869D01*
X71999731Y-47501991D01*
X72589709Y-47096510D01*
X72595241Y-47092917D01*
X72723282Y-47014453D01*
X73205666Y-46718848D01*
X73211337Y-46715574D01*
X73604221Y-46502256D01*
X73840484Y-46373976D01*
X73846362Y-46370981D01*
X74492508Y-46062785D01*
X74498534Y-46060102D01*
X75159924Y-45786145D01*
X75166082Y-45783781D01*
X75840917Y-45544809D01*
X75847191Y-45542771D01*
X75962122Y-45508727D01*
X76533592Y-45339450D01*
X76539930Y-45337751D01*
X77236081Y-45170620D01*
X77242514Y-45169253D01*
X77946422Y-45038792D01*
X77952920Y-45037762D01*
X78662677Y-44944321D01*
X78669239Y-44943631D01*
X78758238Y-44936627D01*
X79382950Y-44887460D01*
X79389503Y-44887117D01*
X80105169Y-44868377D01*
X80111737Y-44868377D01*
X80827403Y-44887117D01*
G37*
%TD.AperFunction*%
%TD*%
M02*
