<!DOCTYPE svg PUBLIC "-//W3C//DTD SVG 1.1//EN" "http://www.w3.org/Graphics/SVG/1.1/DTD/svg11.dtd">
<svg xmlns="http://www.w3.org/2000/svg" version="1.1" width="30.2mm" height="30.2mm" viewBox="-9520845.3 4356829.1 3020000.000000001 3020000.0">
            <title>Picture generated by PcbDraw </title>
            <desc>Picture generated by PcbDraw</desc>
        <defs><clipPath id="cut-off"><path d=" M 8010845.300000 5866829.100000 m-1410000.000000 0 a 1410000.000000 1410000.000000 0 1 0 2820000.0 0 a 1410000.000000 1410000.000000 0 1 0 -2820000.0 0  M 8010845.300000 5866829.100000 m-425000.000000 0 a 425000.000000 425000.000000 0 1 0 850000.0 0 a 425000.000000 425000.000000 0 1 0 -850000.0 0 " style="fill-rule: evenodd;"/></clipPath><mask id="pads-mask"><g style="fill:#ffffff; fill-opacity:0.0;  stroke:#ffffff; stroke-width:0.000000; stroke-opacity:1;  stroke-linecap:round; stroke-linejoin:round;">
<g style="fill:#ffffff; fill-opacity:1.0;  stroke:#ffffff; stroke-width:0.100000; stroke-opacity:1;  stroke-linecap:round; stroke-linejoin:round;">
<path style="fill:#ffffff; fill-opacity:1.0;  stroke:#ffffff; stroke-width:0.100000; stroke-opacity:1;  stroke-linecap:round; stroke-linejoin:round;fill-rule:evenodd;" d="M 6851319.900000,5775020.100000 6851319.900000,5975019.900000 6651320.100000,5975019.900000 6651320.100000,5775020.100000 Z"/> 
</g>
<g style="fill:#ffffff; fill-opacity:1.0;  stroke:#ffffff; stroke-width:0.100000; stroke-opacity:1;  stroke-linecap:round; stroke-linejoin:round;">
<path style="fill:#ffffff; fill-opacity:1.0;  stroke:#ffffff; stroke-width:0.100000; stroke-opacity:1;  stroke-linecap:round; stroke-linejoin:round;fill-rule:evenodd;" d="M 9370999.900000,5769940.100000 9370999.900000,5969939.900000 9171000.100000,5969939.900000 9171000.100000,5769940.100000 Z"/> 
</g>
<g style="fill:#ffffff; fill-opacity:1.0;  stroke:#ffffff; stroke-width:0.100000; stroke-opacity:1;  stroke-linecap:round; stroke-linejoin:round;">
<path style="fill:#ffffff; fill-opacity:1.0;  stroke:#ffffff; stroke-width:0.100000; stroke-opacity:1;  stroke-linecap:round; stroke-linejoin:round;fill-rule:evenodd;" d="M 8100999.900000,7024700.100000 8100999.900000,7224699.900000 7901000.100000,7224699.900000 7901000.100000,7024700.100000 Z"/> 
</g>
<g style="fill:#ffffff; fill-opacity:1.0;  stroke:#ffffff; stroke-width:0.100000; stroke-opacity:1;  stroke-linecap:round; stroke-linejoin:round;">
<path style="fill:#ffffff; fill-opacity:1.0;  stroke:#ffffff; stroke-width:0.100000; stroke-opacity:1;  stroke-linecap:round; stroke-linejoin:round;fill-rule:evenodd;" d="M 8113699.900000,4505020.100000 8113699.900000,4705019.900000 7913700.100000,4705019.900000 7913700.100000,4505020.100000 Z"/> 
</g>
</g> 
</mask><mask id="pads-mask-silkscreen"><rect x="0.0" y="0.0" width="0.0" height="0.0" fill="white"/><g style="fill:#000000; fill-opacity:0.0;  stroke:#000000; stroke-width:0.000000; stroke-opacity:1;  stroke-linecap:round; stroke-linejoin:round;">
<g style="fill:#000000; fill-opacity:1.0;  stroke:#000000; stroke-width:0.100000; stroke-opacity:1;  stroke-linecap:round; stroke-linejoin:round;">
<path style="fill:#000000; fill-opacity:1.0;  stroke:#000000; stroke-width:0.100000; stroke-opacity:1;  stroke-linecap:round; stroke-linejoin:round;fill-rule:evenodd;" d="M 6851319.900000,5775020.100000 6851319.900000,5975019.900000 6651320.100000,5975019.900000 6651320.100000,5775020.100000 Z"/> 
</g>
<g style="fill:#000000; fill-opacity:1.0;  stroke:#000000; stroke-width:0.100000; stroke-opacity:1;  stroke-linecap:round; stroke-linejoin:round;">
<path style="fill:#000000; fill-opacity:1.0;  stroke:#000000; stroke-width:0.100000; stroke-opacity:1;  stroke-linecap:round; stroke-linejoin:round;fill-rule:evenodd;" d="M 9370999.900000,5769940.100000 9370999.900000,5969939.900000 9171000.100000,5969939.900000 9171000.100000,5769940.100000 Z"/> 
</g>
<g style="fill:#000000; fill-opacity:1.0;  stroke:#000000; stroke-width:0.100000; stroke-opacity:1;  stroke-linecap:round; stroke-linejoin:round;">
<path style="fill:#000000; fill-opacity:1.0;  stroke:#000000; stroke-width:0.100000; stroke-opacity:1;  stroke-linecap:round; stroke-linejoin:round;fill-rule:evenodd;" d="M 8100999.900000,7024700.100000 8100999.900000,7224699.900000 7901000.100000,7224699.900000 7901000.100000,7024700.100000 Z"/> 
</g>
<g style="fill:#000000; fill-opacity:1.0;  stroke:#000000; stroke-width:0.100000; stroke-opacity:1;  stroke-linecap:round; stroke-linejoin:round;">
<path style="fill:#000000; fill-opacity:1.0;  stroke:#000000; stroke-width:0.100000; stroke-opacity:1;  stroke-linecap:round; stroke-linejoin:round;fill-rule:evenodd;" d="M 8113699.900000,4505020.100000 8113699.900000,4705019.900000 7913700.100000,4705019.900000 7913700.100000,4505020.100000 Z"/> 
</g>
</g> 
</mask><mask id="hole-mask"><g><rect x="0.0" y="0.0" fill="white" width="0.0" height="0.0"/><polyline stroke-linecap="round" stroke="black" stroke-width="100000.0" points="0 -100000.0 0 100000.0" transform="translate(8010000.0 4967500.0) rotate(-0.0)"/><polyline stroke-linecap="round" stroke="black" stroke-width="100000.0" points="0 -100000.0 0 100000.0" transform="translate(8002500.0 6767500.0) rotate(-0.0)"/><polyline stroke-linecap="round" stroke="black" stroke-width="40000.0" points="-0.0 0 0.0 0" transform="translate(7770000.0 6480000.0) rotate(0)"/><polyline stroke-linecap="round" stroke="black" stroke-width="40000.0" points="-0.0 0 0.0 0" transform="translate(7192500.0 5187500.0) rotate(0)"/><polyline stroke-linecap="round" stroke="black" stroke-width="40000.0" points="-0.0 0 0.0 0" transform="translate(7807500.0 4962500.0) rotate(0)"/><polyline stroke-linecap="round" stroke="black" stroke-width="40000.0" points="-0.0 0 0.0 0" transform="translate(8380000.0 6310000.0) rotate(0)"/><polyline stroke-linecap="round" stroke="black" stroke-width="40000.0" points="-0.0 0 0.0 0" transform="translate(7440000.0 5425000.0) rotate(0)"/><polyline stroke-linecap="round" stroke="black" stroke-width="40000.0" points="-0.0 0 0.0 0" transform="translate(9142278.5 5287117.8) rotate(0)"/><polyline stroke-linecap="round" stroke="black" stroke-width="40000.0" points="-0.0 0 0.0 0" transform="translate(8895080.0 6764020.0) rotate(0)"/><polyline stroke-linecap="round" stroke="black" stroke-width="40000.0" points="-0.0 0 0.0 0" transform="translate(8586047.9 4730887.2) rotate(0)"/><polyline stroke-linecap="round" stroke="black" stroke-width="40000.0" points="-0.0 0 0.0 0" transform="translate(7019067.0 6665947.5) rotate(0)"/><polyline stroke-linecap="round" stroke="black" stroke-width="40000.0" points="-0.0 0 0.0 0" transform="translate(8207320.9 7122075.4) rotate(0)"/><polyline stroke-linecap="round" stroke="black" stroke-width="40000.0" points="-0.0 0 0.0 0" transform="translate(7207218.2 6854098.7) rotate(0)"/><polyline stroke-linecap="round" stroke="black" stroke-width="40000.0" points="-0.0 0 0.0 0" transform="translate(6842760.0 5372100.0) rotate(0)"/><polyline stroke-linecap="round" stroke="black" stroke-width="40000.0" points="-0.0 0 0.0 0" transform="translate(6766560.0 5595620.0) rotate(0)"/><polyline stroke-linecap="round" stroke="black" stroke-width="40000.0" points="-0.0 0 0.0 0" transform="translate(9253220.0 6121400.0) rotate(0)"/><polyline stroke-linecap="round" stroke="black" stroke-width="40000.0" points="-0.0 0 0.0 0" transform="translate(8337635.2 4635530.5) rotate(0)"/><polyline stroke-linecap="round" stroke="black" stroke-width="40000.0" points="-0.0 0 0.0 0" transform="translate(7678789.4 7094376.3) rotate(0)"/><polyline stroke-linecap="round" stroke="black" stroke-width="40000.0" points="-0.0 0 0.0 0" transform="translate(9047480.0 6586220.0) rotate(0)"/><polyline stroke-linecap="round" stroke="black" stroke-width="40000.0" points="-0.0 0 0.0 0" transform="translate(9174480.0 6360160.0) rotate(0)"/><polyline stroke-linecap="round" stroke="black" stroke-width="40000.0" points="-0.0 0 0.0 0" transform="translate(6874146.1 6442789.0) rotate(0)"/><polyline stroke-linecap="round" stroke="black" stroke-width="40000.0" points="-0.0 0 0.0 0" transform="translate(8701424.6 6932406.8) rotate(0)"/><polyline stroke-linecap="round" stroke="black" stroke-width="40000.0" points="-0.0 0 0.0 0" transform="translate(8997357.6 5063959.3) rotate(0)"/><polyline stroke-linecap="round" stroke="black" stroke-width="40000.0" points="-0.0 0 0.0 0" transform="translate(7430376.7 6999019.6) rotate(0)"/><polyline stroke-linecap="round" stroke="black" stroke-width="40000.0" points="-0.0 0 0.0 0" transform="translate(7513320.0 4696460.0) rotate(0)"/><polyline stroke-linecap="round" stroke="black" stroke-width="40000.0" points="-0.0 0 0.0 0" transform="translate(7315000.0 4797500.0) rotate(0)"/><polyline stroke-linecap="round" stroke="black" stroke-width="40000.0" points="-0.0 0 0.0 0" transform="translate(6778789.4 6194376.3) rotate(0)"/><polyline stroke-linecap="round" stroke="black" stroke-width="40000.0" points="-0.0 0 0.0 0" transform="translate(9237635.2 5535530.5) rotate(0)"/><polyline stroke-linecap="round" stroke="black" stroke-width="40000.0" points="-0.0 0 0.0 0" transform="translate(8464340.2 7053207.3) rotate(0)"/><polyline stroke-linecap="round" stroke="black" stroke-width="40000.0" points="-0.0 0 0.0 0" transform="translate(8809206.4 4875808.1) rotate(0)"/><polyline stroke-linecap="round" stroke="black" stroke-width="40000.0" points="-0.0 0 0.0 0" transform="translate(7752080.0 4617720.0) rotate(0)"/><polyline stroke-linecap="round" stroke="black" stroke-width="40000.0" points="-0.0 0 0.0 0" transform="translate(7540000.0 6750000.0) rotate(0)"/><polyline stroke-linecap="round" stroke="black" stroke-width="40000.0" points="-0.0 0 0.0 0" transform="translate(8205000.0 6817500.0) rotate(0)"/><polyline stroke-linecap="round" stroke="black" stroke-width="40000.0" points="-0.0 0 0.0 0" transform="translate(7805000.0 6755000.0) rotate(0)"/><polyline stroke-linecap="round" stroke="black" stroke-width="40000.0" points="-0.0 0 0.0 0" transform="translate(8420000.0 6810000.0) rotate(0)"/><polyline stroke-linecap="round" stroke="black" stroke-width="40000.0" points="-0.0 0 0.0 0" transform="translate(7470000.0 6372500.0) rotate(0)"/><polyline stroke-linecap="round" stroke="black" stroke-width="40000.0" points="-0.0 0 0.0 0" transform="translate(8770000.0 5960000.0) rotate(0)"/><polyline stroke-linecap="round" stroke="black" stroke-width="40000.0" points="-0.0 0 0.0 0" transform="translate(7357500.0 6492500.0) rotate(0)"/><polyline stroke-linecap="round" stroke="black" stroke-width="40000.0" points="-0.0 0 0.0 0" transform="translate(7085000.0 6225000.0) rotate(0)"/><polyline stroke-linecap="round" stroke="black" stroke-width="40000.0" points="-0.0 0 0.0 0" transform="translate(7297500.0 5760000.0) rotate(0)"/></g></mask></defs><g transform="scale(-1,1)" id="boardContainer"><g id="substrate" clip-path="url(#cut-off)" mask="url(#hole-mask)"><g id="substrate-board" style="fill:#285e3a; stroke:#285e3a;"><path d=" M 8010845.300000 5866829.100000 m-1410000.000000 0 a 1410000.000000 1410000.000000 0 1 0 2820000.0 0 a 1410000.000000 1410000.000000 0 1 0 -2820000.0 0  M 8010845.300000 5866829.100000 m-425000.000000 0 a 425000.000000 425000.000000 0 1 0 850000.0 0 a 425000.000000 425000.000000 0 1 0 -850000.0 0 " style="fill-rule: evenodd;"/><g style="fill-opacity: 0.0;stroke-width: 20000.000000;stroke-opacity: 1;stroke-linecap: round;stroke-linejoin: round">
<circle cx="8010845.300000" cy="5866829.100000" r="1410000.000000"/> 
<circle cx="8010845.300000" cy="5866829.100000" r="425000.000000"/> 
</g> 
</g><g id="substrate-clad" style="fill:#9c6b28; stroke:#9c6b28;"><g style="fill-opacity: 0.0;stroke-width: 0.000000;stroke-opacity: 1;stroke-linecap: round;stroke-linejoin: round">
<g style="fill-opacity: 1.0;stroke-width: 0.100000;stroke-opacity: 1;stroke-linecap: round;stroke-linejoin: round">
<path style="fill-opacity: 1.0;stroke-width: 0.100000;stroke-opacity: 1;stroke-linecap: round;stroke-linejoin: round;fill-rule: evenodd" d="M 6851319.900000,5775020.100000 6851319.900000,5975019.900000 6651320.100000,5975019.900000 6651320.100000,5775020.100000 Z"/> 
</g>
<g style="fill-opacity: 1.0;stroke-width: 0.100000;stroke-opacity: 1;stroke-linecap: round;stroke-linejoin: round">
<path style="fill-opacity: 1.0;stroke-width: 0.100000;stroke-opacity: 1;stroke-linecap: round;stroke-linejoin: round;fill-rule: evenodd" d="M 9370999.900000,5769940.100000 9370999.900000,5969939.900000 9171000.100000,5969939.900000 9171000.100000,5769940.100000 Z"/> 
</g>
<g style="fill-opacity: 1.0;stroke-width: 0.100000;stroke-opacity: 1;stroke-linecap: round;stroke-linejoin: round">
<path style="fill-opacity: 1.0;stroke-width: 0.100000;stroke-opacity: 1;stroke-linecap: round;stroke-linejoin: round;fill-rule: evenodd" d="M 8100999.900000,7024700.100000 8100999.900000,7224699.900000 7901000.100000,7224699.900000 7901000.100000,7024700.100000 Z"/> 
</g>
<g style="fill-opacity: 1.0;stroke-width: 0.100000;stroke-opacity: 1;stroke-linecap: round;stroke-linejoin: round">
<path style="fill-opacity: 1.0;stroke-width: 0.100000;stroke-opacity: 1;stroke-linecap: round;stroke-linejoin: round;fill-rule: evenodd" d="M 8113699.900000,4505020.100000 8113699.900000,4705019.900000 7913700.100000,4705019.900000 7913700.100000,4505020.100000 Z"/> 
</g>
</g> 
</g><g id="substrate-copper" style="fill:#208b47; stroke:#208b47;"><g style="fill-opacity: 0.0;stroke-width: 0.000000;stroke-opacity: 1;stroke-linecap: round;stroke-linejoin: round">
<g style="fill-opacity: 1.0;stroke-width: 0.100000;stroke-opacity: 1;stroke-linecap: round;stroke-linejoin: round">
<path style="fill-opacity: 1.0;stroke-width: 0.100000;stroke-opacity: 1;stroke-linecap: round;stroke-linejoin: round;fill-rule: evenodd" d="M 6851319.900000,5775020.100000 6851319.900000,5975019.900000 6651320.100000,5975019.900000 6651320.100000,5775020.100000 Z"/> 
</g>
<g style="fill-opacity: 1.0;stroke-width: 0.100000;stroke-opacity: 1;stroke-linecap: round;stroke-linejoin: round">
<path style="fill-opacity: 1.0;stroke-width: 0.100000;stroke-opacity: 1;stroke-linecap: round;stroke-linejoin: round;fill-rule: evenodd" d="M 9370999.900000,5769940.100000 9370999.900000,5969939.900000 9171000.100000,5969939.900000 9171000.100000,5769940.100000 Z"/> 
</g>
<g style="fill-opacity: 1.0;stroke-width: 0.100000;stroke-opacity: 1;stroke-linecap: round;stroke-linejoin: round">
<path style="fill-opacity: 1.0;stroke-width: 0.100000;stroke-opacity: 1;stroke-linecap: round;stroke-linejoin: round;fill-rule: evenodd" d="M 8100999.900000,7024700.100000 8100999.900000,7224699.900000 7901000.100000,7224699.900000 7901000.100000,7024700.100000 Z"/> 
</g>
<g style="fill-opacity: 1.0;stroke-width: 0.100000;stroke-opacity: 1;stroke-linecap: round;stroke-linejoin: round">
<path style="fill-opacity: 1.0;stroke-width: 0.100000;stroke-opacity: 1;stroke-linecap: round;stroke-linejoin: round;fill-rule: evenodd" d="M 8113699.900000,4505020.100000 8113699.900000,4705019.900000 7913700.100000,4705019.900000 7913700.100000,4505020.100000 Z"/> 
</g>
<g style="fill-opacity: 1.0;stroke-width: 0.100000;stroke-opacity: 1;stroke-linecap: round;stroke-linejoin: round">
<circle cx="7770000.000000" cy="6480000.000000" r="40000.000000"/> 
</g>
<g style="fill-opacity: 1.0;stroke-width: 0.100000;stroke-opacity: 1;stroke-linecap: round;stroke-linejoin: round">
<circle cx="7192500.000000" cy="5187500.000000" r="40000.000000"/> 
</g>
<g style="fill-opacity: 1.0;stroke-width: 0.100000;stroke-opacity: 1;stroke-linecap: round;stroke-linejoin: round">
<circle cx="7807500.000000" cy="4962500.000000" r="40000.000000"/> 
</g>
<g style="fill-opacity: 1.0;stroke-width: 0.100000;stroke-opacity: 1;stroke-linecap: round;stroke-linejoin: round">
<circle cx="8380000.000000" cy="6310000.000000" r="40000.000000"/> 
</g>
<g style="fill-opacity: 1.0;stroke-width: 0.100000;stroke-opacity: 1;stroke-linecap: round;stroke-linejoin: round">
<circle cx="7440000.000000" cy="5425000.000000" r="40000.000000"/> 
</g>
<g style="fill-opacity: 1.0;stroke-width: 0.100000;stroke-opacity: 1;stroke-linecap: round;stroke-linejoin: round">
<circle cx="9142278.500000" cy="5287117.800000" r="40000.000000"/> 
</g>
<g style="fill-opacity: 1.0;stroke-width: 0.100000;stroke-opacity: 1;stroke-linecap: round;stroke-linejoin: round">
<circle cx="8895080.000000" cy="6764020.000000" r="40000.000000"/> 
</g>
<g style="fill-opacity: 1.0;stroke-width: 0.100000;stroke-opacity: 1;stroke-linecap: round;stroke-linejoin: round">
<circle cx="8586047.900000" cy="4730887.200000" r="40000.000000"/> 
</g>
<g style="fill-opacity: 1.0;stroke-width: 0.100000;stroke-opacity: 1;stroke-linecap: round;stroke-linejoin: round">
<circle cx="7019067.000000" cy="6665947.500000" r="40000.000000"/> 
</g>
<g style="fill-opacity: 1.0;stroke-width: 0.100000;stroke-opacity: 1;stroke-linecap: round;stroke-linejoin: round">
<circle cx="8207320.900000" cy="7122075.400000" r="40000.000000"/> 
</g>
<g style="fill-opacity: 1.0;stroke-width: 0.100000;stroke-opacity: 1;stroke-linecap: round;stroke-linejoin: round">
<circle cx="7207218.200000" cy="6854098.700000" r="40000.000000"/> 
</g>
<g style="fill-opacity: 1.0;stroke-width: 0.100000;stroke-opacity: 1;stroke-linecap: round;stroke-linejoin: round">
<circle cx="6842760.000000" cy="5372100.000000" r="40000.000000"/> 
</g>
<g style="fill-opacity: 1.0;stroke-width: 0.100000;stroke-opacity: 1;stroke-linecap: round;stroke-linejoin: round">
<circle cx="6766560.000000" cy="5595620.000000" r="40000.000000"/> 
</g>
<g style="fill-opacity: 1.0;stroke-width: 0.100000;stroke-opacity: 1;stroke-linecap: round;stroke-linejoin: round">
<circle cx="9253220.000000" cy="6121400.000000" r="40000.000000"/> 
</g>
<g style="fill-opacity: 1.0;stroke-width: 0.100000;stroke-opacity: 1;stroke-linecap: round;stroke-linejoin: round">
<circle cx="8337635.200000" cy="4635530.500000" r="40000.000000"/> 
</g>
<g style="fill-opacity: 1.0;stroke-width: 0.100000;stroke-opacity: 1;stroke-linecap: round;stroke-linejoin: round">
<circle cx="7678789.400000" cy="7094376.300000" r="40000.000000"/> 
</g>
<g style="fill-opacity: 1.0;stroke-width: 0.100000;stroke-opacity: 1;stroke-linecap: round;stroke-linejoin: round">
<circle cx="9047480.000000" cy="6586220.000000" r="40000.000000"/> 
</g>
<g style="fill-opacity: 1.0;stroke-width: 0.100000;stroke-opacity: 1;stroke-linecap: round;stroke-linejoin: round">
<circle cx="9174480.000000" cy="6360160.000000" r="40000.000000"/> 
</g>
<g style="fill-opacity: 1.0;stroke-width: 0.100000;stroke-opacity: 1;stroke-linecap: round;stroke-linejoin: round">
<circle cx="6874146.100000" cy="6442789.000000" r="40000.000000"/> 
</g>
<g style="fill-opacity: 1.0;stroke-width: 0.100000;stroke-opacity: 1;stroke-linecap: round;stroke-linejoin: round">
<circle cx="8701424.600000" cy="6932406.800000" r="40000.000000"/> 
</g>
<g style="fill-opacity: 1.0;stroke-width: 0.100000;stroke-opacity: 1;stroke-linecap: round;stroke-linejoin: round">
<circle cx="8997357.600000" cy="5063959.300000" r="40000.000000"/> 
</g>
<g style="fill-opacity: 1.0;stroke-width: 0.100000;stroke-opacity: 1;stroke-linecap: round;stroke-linejoin: round">
<circle cx="7430376.700000" cy="6999019.600000" r="40000.000000"/> 
</g>
<g style="fill-opacity: 1.0;stroke-width: 0.100000;stroke-opacity: 1;stroke-linecap: round;stroke-linejoin: round">
<circle cx="7513320.000000" cy="4696460.000000" r="40000.000000"/> 
</g>
<g style="fill-opacity: 1.0;stroke-width: 0.100000;stroke-opacity: 1;stroke-linecap: round;stroke-linejoin: round">
<circle cx="7315000.000000" cy="4797500.000000" r="40000.000000"/> 
</g>
<g style="fill-opacity: 1.0;stroke-width: 0.100000;stroke-opacity: 1;stroke-linecap: round;stroke-linejoin: round">
<circle cx="6778789.400000" cy="6194376.300000" r="40000.000000"/> 
</g>
<g style="fill-opacity: 1.0;stroke-width: 0.100000;stroke-opacity: 1;stroke-linecap: round;stroke-linejoin: round">
<circle cx="9237635.200000" cy="5535530.500000" r="40000.000000"/> 
</g>
<g style="fill-opacity: 1.0;stroke-width: 0.100000;stroke-opacity: 1;stroke-linecap: round;stroke-linejoin: round">
<circle cx="8464340.200000" cy="7053207.300000" r="40000.000000"/> 
</g>
<g style="fill-opacity: 1.0;stroke-width: 0.100000;stroke-opacity: 1;stroke-linecap: round;stroke-linejoin: round">
<circle cx="8809206.400000" cy="4875808.100000" r="40000.000000"/> 
</g>
<g style="fill-opacity: 1.0;stroke-width: 0.100000;stroke-opacity: 1;stroke-linecap: round;stroke-linejoin: round">
<circle cx="7752080.000000" cy="4617720.000000" r="40000.000000"/> 
</g>
<g style="fill-opacity: 1.0;stroke-width: 0.100000;stroke-opacity: 1;stroke-linecap: round;stroke-linejoin: round">
<circle cx="7540000.000000" cy="6750000.000000" r="40000.000000"/> 
</g>
<g style="fill-opacity: 1.0;stroke-width: 0.100000;stroke-opacity: 1;stroke-linecap: round;stroke-linejoin: round">
<circle cx="8205000.000000" cy="6817500.000000" r="40000.000000"/> 
</g>
<g style="fill-opacity: 1.0;stroke-width: 0.100000;stroke-opacity: 1;stroke-linecap: round;stroke-linejoin: round">
<circle cx="7805000.000000" cy="6755000.000000" r="40000.000000"/> 
</g>
<g style="fill-opacity: 1.0;stroke-width: 0.100000;stroke-opacity: 1;stroke-linecap: round;stroke-linejoin: round">
<circle cx="8420000.000000" cy="6810000.000000" r="40000.000000"/> 
</g>
<g style="fill-opacity: 1.0;stroke-width: 0.100000;stroke-opacity: 1;stroke-linecap: round;stroke-linejoin: round">
<circle cx="7470000.000000" cy="6372500.000000" r="40000.000000"/> 
</g>
<g style="fill-opacity: 1.0;stroke-width: 0.100000;stroke-opacity: 1;stroke-linecap: round;stroke-linejoin: round">
<circle cx="8770000.000000" cy="5960000.000000" r="40000.000000"/> 
</g>
<g style="fill-opacity: 1.0;stroke-width: 0.100000;stroke-opacity: 1;stroke-linecap: round;stroke-linejoin: round">
<circle cx="7357500.000000" cy="6492500.000000" r="40000.000000"/> 
</g>
<g style="fill-opacity: 1.0;stroke-width: 0.100000;stroke-opacity: 1;stroke-linecap: round;stroke-linejoin: round">
<circle cx="7085000.000000" cy="6225000.000000" r="40000.000000"/> 
</g>
<g style="fill-opacity: 1.0;stroke-width: 0.100000;stroke-opacity: 1;stroke-linecap: round;stroke-linejoin: round">
<circle cx="7297500.000000" cy="5760000.000000" r="40000.000000"/> 
</g>
<g style="fill-opacity: 0.0;stroke-width: 50000.000000;stroke-opacity: 1;stroke-linecap: round;stroke-linejoin: round">
<path d="M7192500 5187500 L7202500 5187500 "/>
<path d="M7820048 6429951 L8260048 6429951 "/>
<path d="M7770000 6480000 L7820048 6429951 "/>
<path d="M7440000 5425000 L7440000 6092500 "/>
<path d="M7806840 4963160 L7807500 4962500 "/>
<path d="M8260048 6429951 L8380000 6310000 "/>
<path d="M7770000 6422500 L7770000 6480000 "/>
<path d="M7322500 5307500 L7440000 5425000 "/>
<path d="M7679340 4963160 L7806840 4963160 "/>
<path d="M7202500 5187500 L7322500 5307500 "/>
<path d="M7322500 5307500 L7335000 5307500 "/>
<path d="M7440000 6092500 L7770000 6422500 "/>
<path d="M7335000 5307500 L7679340 4963160 "/>
<path d="M8420000 6810000 L8212500 6810000 "/>
<path d="M8212500 6810000 L8205000 6817500 "/>
<path d="M7800000 6750000 L7805000 6755000 "/>
<path d="M7540000 6750000 L7800000 6750000 "/>
</g>
<g style="fill-opacity: 0.0;stroke-width: 25000.000000;stroke-opacity: 1;stroke-linecap: round;stroke-linejoin: round">
<path d="M7607500 6605000 L7792500 6605000 "/>
<path d="M8610000 6027500 L8610000 6020000 "/>
<path d="M7470000 6467500 L7607500 6605000 "/>
<path d="M8675000 5955000 L8765000 5955000 "/>
<path d="M8610000 6020000 L8675000 5955000 "/>
<path d="M8765000 5955000 L8770000 5960000 "/>
<path d="M8352500 6500000 L8610000 6242500 "/>
<path d="M7470000 6372500 L7470000 6467500 "/>
<path d="M7792500 6605000 L7897500 6500000 "/>
<path d="M8610000 6242500 L8610000 6027500 "/>
<path d="M7897500 6500000 L8352500 6500000 "/>
</g>
<g style="fill-opacity: 0.0;stroke-width: 50000.000000;stroke-opacity: 1;stroke-linecap: round;stroke-linejoin: round">
<path d="M7075000 5982500 L7075000 6177500 "/>
<path d="M7090000 6225000 L7357500 6492500 "/>
<path d="M7075000 6177500 L7075000 6215000 "/>
<path d="M7075000 6215000 L7085000 6225000 "/>
<path d="M7085000 6225000 L7090000 6225000 "/>
<path d="M7297500 5760000 L7075000 5982500 "/>
</g>
<g style="fill-opacity: 0.0;stroke-width: 50000.000000;stroke-opacity: 1;stroke-linecap: round;stroke-linejoin: round">
<g style="fill-opacity: 1.0;stroke-width: 0.100000;stroke-opacity: 1;stroke-linecap: round;stroke-linejoin: round">
<path style="fill-opacity: 1.0;stroke-width: 0.100000;stroke-opacity: 1;stroke-linecap: round;stroke-linejoin: round;fill-rule: evenodd" d="M 8082737.700000,4488761.700000 8083393.000000,4488796.000000 8146313.000000,4493747.900000 8154761.500000,4494412.800000 8155417.700000,4494481.800000 8226390.700000,4503825.600000 8227040.500000,4503928.600000 8297428.800000,4516974.200000 8298072.100000,4517110.900000 8367684.600000,4533823.400000 8368318.400000,4533993.300000 8436956.000000,4554324.700000 8437583.400000,4554528.500000 8505064.500000,4578424.800000 8505680.300000,4578661.200000 8571816.800000,4606055.800000 8572419.400000,4606324.100000 8637031.700000,4637142.600000 8637619.500000,4637442.100000 8661214.500000,4650253.100000 8700531.900000,4671600.700000 8701099.000000,4671928.100000 8749200.600000,4701404.800000 8762139.200000,4709333.600000 8762692.400000,4709692.900000 8821688.200000,4750239.600000 8822219.500000,4750625.500000 8879015.500000,4794206.600000 8879526.000000,4794620.000000 8921751.600000,4830684.100000 8933960.500000,4841111.500000 8934450.700000,4841552.900000 8986378.000000,4890830.000000 8986844.400000,4891296.400000 9036121.500000,4943223.700000 9036562.600000,4943713.600000 9083054.400000,4998148.400000 9083467.600000,4998658.600000 9112859.000000,5036962.200000 9127048.000000,5055453.700000 9127434.800000,5055986.200000 9146532.700000,5083773.800000 9167981.500000,5114982.000000 9168340.800000,5115535.200000 9205746.300000,5176575.400000 9206073.700000,5177142.500000 9210316.200000,5184956.200000 9240232.300000,5240054.900000 9240531.800000,5240642.700000 9271350.300000,5305255.000000 9271618.600000,5305857.600000 9299013.200000,5371994.100000 9299249.600000,5372609.900000 9323145.900000,5440091.000000 9323349.600000,5440718.000000 9341470.000000,5501891.300000 9343680.600000,5509354.300000 9343851.000000,5509989.800000 9360563.300000,5579601.400000 9360700.200000,5580245.600000 9369684.500000,5628720.900000 9373745.700000,5650633.000000 9373848.900000,5651284.600000 9383192.600000,5722256.900000 9383261.600000,5722912.900000 9388654.600000,5791436.900000 9388878.300000,5794279.700000 9388912.700000,5794936.700000 9390775.500000,5866072.800000 9390786.700000,5866499.300000 9390786.700000,5867157.500000 9389103.700000,5931430.600000 9388912.800000,5938719.700000 9388878.400000,5939376.800000 9387628.900000,5955253.400000 9383261.600000,6010745.300000 9383192.600000,6011401.300000 9373848.900000,6082373.600000 9373745.800000,6083024.300000 9373267.600000,6085605.000000 9360700.400000,6153411.600000 9360563.500000,6154055.900000 9346507.100000,6212605.100000 9343851.400000,6223666.700000 9343681.100000,6224302.200000 9323349.700000,6292939.800000 9323145.900000,6293567.200000 9299249.600000,6361048.300000 9299013.200000,6361664.100000 9271618.600000,6427800.600000 9271350.300000,6428403.200000 9240531.800000,6493015.500000 9240232.300000,6493603.300000 9233508.600000,6505986.800000 9206073.700000,6556515.700000 9205746.300000,6557082.800000 9184526.700000,6591710.100000 9168340.800000,6618123.000000 9167981.500000,6618676.200000 9152738.300000,6640855.300000 9127435.700000,6677670.800000 9127048.900000,6678203.300000 9119983.800000,6687410.700000 9083467.800000,6734999.300000 9083054.400000,6735509.800000 9050699.400000,6773392.600000 9036562.900000,6789944.300000 9036121.500000,6790434.500000 8986844.400000,6842361.800000 8986378.200000,6842828.000000 8984401.900000,6844703.400000 8934450.700000,6892105.300000 8933960.800000,6892546.400000 8879526.000000,6939038.200000 8879015.800000,6939451.400000 8822219.500000,6983032.700000 8821688.200000,6983418.600000 8796934.600000,7000431.300000 8762692.400000,7023965.300000 8762139.200000,7024324.600000 8701099.000000,7061730.100000 8700531.900000,7062057.500000 8661214.500000,7083405.100000 8637619.500000,7096216.100000 8637031.700000,7096515.600000 8572419.400000,7127334.100000 8571816.800000,7127602.400000 8505680.300000,7154997.000000 8505064.500000,7155233.400000 8437583.400000,7179129.700000 8436956.400000,7179333.400000 8368318.400000,7199664.900000 8367684.600000,7199834.800000 8298072.100000,7216547.300000 8297428.800000,7216684.000000 8227040.500000,7229729.600000 8226390.700000,7229832.600000 8172955.300000,7236867.500000 8155417.500000,7239176.400000 8154761.500000,7239245.400000 8146313.000000,7239910.300000 8083393.000000,7244862.200000 8082737.700000,7244896.500000 8011173.700000,7246770.500000 8010516.900000,7246770.500000 7938952.900000,7244896.500000 7938297.600000,7244862.200000 7875377.600000,7239910.300000 7866929.100000,7239245.400000 7866273.100000,7239176.400000 7848735.300000,7236867.500000 7795299.900000,7229832.600000 7794650.100000,7229729.600000 7724261.800000,7216684.000000 7723618.500000,7216547.300000 7654006.000000,7199834.800000 7653372.200000,7199664.900000 7584734.200000,7179333.400000 7584107.200000,7179129.700000 7516626.100000,7155233.400000 7516010.300000,7154997.000000 7449873.800000,7127602.400000 7449271.200000,7127334.100000 7384658.900000,7096515.600000 7384071.100000,7096216.100000 7360476.100000,7083405.100000 7321158.700000,7062057.500000 7320591.600000,7061730.100000 7259551.400000,7024324.600000 7258998.200000,7023965.300000 7224756.000000,7000431.300000 7200002.400000,6983418.600000 7199471.100000,6983032.700000 7142674.800000,6939451.400000 7142164.600000,6939038.200000 7087729.800000,6892546.400000 7087239.900000,6892105.300000 7037288.700000,6844703.400000 7035312.400000,6842828.000000 7034846.200000,6842361.800000 6985569.100000,6790434.500000 6985127.700000,6789944.300000 6970991.200000,6773392.600000 6938636.200000,6735509.800000 6938222.800000,6734999.300000 6901706.800000,6687410.700000 6894641.700000,6678203.300000 6894254.900000,6677670.800000 6868952.400000,6640855.300000 6853709.100000,6618676.200000 6853349.800000,6618123.000000 6837163.900000,6591710.100000 6815944.300000,6557082.800000 6815616.900000,6556515.700000 6788182.000000,6505986.800000 6781458.300000,6493603.300000 6781158.800000,6493015.500000 6750340.300000,6428403.200000 6750072.000000,6427800.600000 6722677.400000,6361664.100000 6722441.000000,6361048.300000 6698544.700000,6293567.200000 6698340.900000,6292939.800000 6678009.500000,6224302.200000 6677839.200000,6223666.700000 6675183.600000,6212605.100000 6661127.100000,6154055.900000 6660990.200000,6153411.600000 6648423.100000,6085605.000000 6647944.800000,6083024.300000 6647841.700000,6082373.600000 6638498.000000,6011401.300000 6638429.000000,6010745.300000 6634061.700000,5955253.400000 6632812.200000,5939376.800000 6632777.800000,5938719.700000 6632587.000000,5931430.600000 6631498.300000,5889854.800000 6869889.900000,5889854.800000 6869899.800000,5890034.100000 6869899.800000,5890035.300000 6872771.800000,5942221.300000 6873499.000000,5955434.700000 6880877.100000,6020698.000000 6880907.900000,6020877.200000 6891586.900000,6083025.200000 6891999.800000,6085428.400000 6906830.300000,6149411.200000 6925319.200000,6212434.200000 6925380.000000,6212604.400000 6925380.200000,6212605.100000 6929444.100000,6223986.400000 6947405.300000,6274288.400000 6973015.400000,6334768.600000 7002064.500000,6393674.400000 7034456.300000,6450810.300000 7070083.300000,6505986.800000 7070188.800000,6506131.300000 7070189.000000,6506131.500000 7107413.100000,6557084.900000 7108827.500000,6559021.000000 7150560.300000,6609737.100000 7195143.300000,6657966.700000 7242428.600000,6703549.900000 7292259.500000,6746335.700000 7344470.700000,6786182.000000 7370887.800000,6804034.100000 7398737.500000,6822854.400000 7398738.700000,6822855.100000 7398889.100000,6822956.800000 7455334.100000,6856538.000000 7513618.500000,6886814.400000 7573549.200000,6913685.400000 7600332.600000,6923886.200000 7634758.100000,6936997.700000 7634759.400000,6936998.100000 7634927.300000,6937062.100000 7675915.100000,6950024.800000 7697376.900000,6956812.300000 7697377.600000,6956812.500000 7697549.300000,6956866.800000 7761207.400000,6973033.900000 7825690.700000,6985509.800000 7825869.400000,6985533.800000 7825870.000000,6985533.900000 7890604.900000,6994228.900000 7890605.500000,6994229.000000 7890785.200000,6994253.100000 7890966.000000,6994266.900000 7890967.400000,6994267.000000 7927472.400000,6997043.800000 7956275.100000,6999234.800000 8000591.600000,7000047.100000 8021762.500000,7000435.100000 8021762.900000,7000435.100000 8021943.100000,7000438.400000 8033645.800000,6999978.600000 8087389.200000,6997867.000000 8087390.500000,6997866.900000 8087571.500000,6997859.800000 8087752.800000,6997842.200000 8087754.000000,6997842.100000 8152762.900000,6991525.200000 8152763.900000,6991525.100000 8152942.700000,6991507.700000 8217839.800000,6981403.100000 8218015.900000,6981365.200000 8218016.900000,6981365.000000 8281869.400000,6967617.900000 8281870.500000,6967617.600000 8282047.600000,6967579.500000 8345353.300000,6950082.800000 8345524.200000,6950024.800000 8407374.200000,6929029.600000 8407375.600000,6929029.100000 8407546.700000,6928971.000000 8445468.700000,6913611.000000 8468254.000000,6904382.000000 8468255.000000,6904381.600000 8468421.800000,6904314.000000 8468583.900000,6904237.200000 8468585.500000,6904236.500000 8527613.000000,6876271.200000 8527776.600000,6876193.700000 8527935.300000,6876107.000000 8585253.700000,6844791.100000 8585254.000000,6844790.900000 8585414.200000,6844703.400000 8641143.600000,6809947.400000 8694779.800000,6772041.100000 8728870.700000,6744875.400000 8746004.200000,6731222.400000 8746004.700000,6731222.000000 8746145.100000,6731110.100000 8765740.000000,6713559.400000 8794934.400000,6687410.700000 8794935.200000,6687410.000000 8795069.000000,6687290.100000 8841389.400000,6640726.600000 8841509.500000,6640591.100000 8884831.800000,6591710.100000 8884832.000000,6591709.900000 8884952.500000,6591573.900000 8888478.800000,6587100.900000 8925502.100000,6540137.100000 8925502.500000,6540136.600000 8925614.100000,6539995.000000 8949281.500000,6506131.500000 8963135.100000,6486309.700000 8963135.500000,6486309.100000 8963239.000000,6486161.000000 8971667.900000,6472486.800000 8997607.500000,6430405.100000 8997608.400000,6430403.600000 8997702.800000,6430250.400000 9028890.900000,6372448.700000 9046501.500000,6334768.600000 9056623.600000,6313111.100000 9056624.400000,6313109.300000 9056700.000000,6312947.500000 9081037.800000,6251944.200000 9094219.300000,6212434.200000 9101766.500000,6189812.600000 9101767.000000,6189811.000000 9101823.700000,6189641.000000 9118988.800000,6126244.600000 9126136.400000,6092179.800000 9132439.100000,6062141.300000 9132439.300000,6062140.300000 9132476.000000,6061965.300000 9142240.600000,5997016.200000 9146044.700000,5955616.600000 9148233.700000,5931794.600000 9148233.800000,5931793.800000 9148250.400000,5931612.600000 9149666.000000,5890035.300000 9150481.900000,5866072.800000 9150482.000000,5866069.900000 9150485.300000,5865971.600000 9150500.900000,5860000.000000 9148609.700000,5794348.200000 9145530.500000,5758794.800000 9142958.200000,5729095.200000 9142958.100000,5729094.700000 9142942.500000,5728914.100000 9133518.100000,5663914.700000 9120367.600000,5599565.600000 9103534.800000,5536080.200000 9083075.400000,5473669.100000 9059057.200000,5412539.200000 9043968.100000,5379808.300000 9031635.800000,5353057.300000 9031635.100000,5353055.900000 9031560.100000,5352893.200000 9031476.400000,5352736.100000 9031475.600000,5352734.500000 9006335.800000,5305552.900000 9000675.000000,5294928.900000 8966504.500000,5238838.700000 8929161.900000,5184808.400000 8888771.000000,5133017.400000 8845465.800000,5083637.200000 8827889.100000,5065782.200000 8799518.300000,5036962.200000 8799517.700000,5036961.600000 8799389.900000,5036831.800000 8750696.100000,4992756.300000 8699545.800000,4951556.900000 8646108.800000,4913370.200000 8611124.000000,4891296.400000 8590717.200000,4878420.700000 8590717.300000,4878420.700000 8590562.200000,4878322.900000 8533090.200000,4846531.200000 8532927.600000,4846453.100000 8532926.400000,4846452.500000 8499760.200000,4830526.400000 8473883.500000,4818100.600000 8473717.900000,4818032.500000 8473716.300000,4818031.800000 8413305.000000,4793193.700000 8413305.100000,4793193.700000 8413138.400000,4793125.200000 8351056.300000,4771688.000000 8287843.100000,4753860.100000 8287667.600000,4753821.400000 8287666.200000,4753821.000000 8223886.700000,4739739.800000 8223886.000000,4739739.700000 8223708.600000,4739700.500000 8223530.000000,4739671.700000 8223529.300000,4739671.600000 8159044.600000,4729285.100000 8159044.700000,4729285.100000 8158865.200000,4729256.200000 8158685.200000,4729237.800000 8158684.000000,4729237.600000 8093708.000000,4722580.300000 8093707.200000,4722580.200000 8093528.200000,4722561.900000 8093348.000000,4722553.900000 8093347.000000,4722553.800000 8028094.700000,4719647.800000 8028093.400000,4719647.800000 8027914.200000,4719639.800000 7992504.900000,4720103.300000 7962421.800000,4720497.100000 7962420.700000,4720497.100000 7962240.800000,4720499.500000 7896725.700000,4725138.200000 7831586.400000,4733540.600000 7805206.800000,4738501.200000 7767214.500000,4745645.500000 7767213.100000,4745645.800000 7767038.700000,4745678.600000 7703296.700000,4761512.200000 7670333.100000,4771747.700000 7640746.700000,4780934.500000 7640746.000000,4780934.700000 7640571.900000,4780988.800000 7640401.200000,4781052.800000 7579242.300000,4803980.000000 7579241.300000,4803980.400000 7579072.200000,4804043.800000 7578906.600000,4804117.000000 7578905.400000,4804117.500000 7547098.300000,4818179.300000 7519001.700000,4830600.700000 7518839.100000,4830684.100000 7460720.700000,4860488.700000 7460719.800000,4860489.200000 7460559.500000,4860571.400000 7460404.200000,4860662.700000 7460403.100000,4860663.300000 7435730.100000,4875167.900000 7403939.400000,4893856.700000 7403789.600000,4893956.800000 7349480.400000,4930245.000000 7349479.500000,4930245.600000 7349329.300000,4930346.000000 7349184.400000,4930455.400000 7349184.100000,4930455.600000 7331621.700000,4943713.900000 7296910.200000,4969918.400000 7246855.900000,5012442.700000 7199332.600000,5057777.700000 7199207.000000,5057912.200000 7154623.000000,5105638.900000 7154622.100000,5105640.000000 7154497.600000,5105773.200000 7154380.700000,5105913.800000 7154380.400000,5105914.100000 7120577.900000,5146557.300000 7112499.900000,5156270.000000 7073478.600000,5209100.700000 7057056.500000,5234244.200000 7037662.300000,5263937.900000 7037661.100000,5263939.800000 7037563.100000,5264089.900000 7004872.600000,5321055.400000 6975515.500000,5379808.300000 6949589.100000,5440153.600000 6949527.400000,5440323.700000 6949527.000000,5440324.600000 6949384.100000,5440718.400000 6927179.400000,5501891.300000 6927127.900000,5502063.400000 6927127.500000,5502064.700000 6924852.500000,5509671.800000 6908360.700000,5564816.600000 6893195.500000,5628720.900000 6881734.000000,5693392.200000 6881713.100000,5693569.100000 6881712.900000,5693570.200000 6878317.700000,5722256.900000 6874014.300000,5758616.000000 6874003.600000,5758794.100000 6874003.500000,5758794.800000 6871860.100000,5794348.200000 6870061.900000,5824176.000000 6869889.900000,5889854.800000 6631498.300000,5889854.800000 6630903.900000,5867157.500000 6630903.900000,5866499.300000 6630915.100000,5866072.800000 6632777.900000,5794936.700000 6632812.300000,5794279.700000 6633036.100000,5791436.900000 6638429.000000,5722912.900000 6638498.000000,5722256.900000 6647841.700000,5651284.600000 6647944.900000,5650633.000000 6652006.100000,5628720.900000 6660990.400000,5580245.600000 6661127.300000,5579601.400000 6677839.600000,5509989.800000 6678010.000000,5509354.300000 6680220.700000,5501891.300000 6698341.000000,5440718.000000 6698544.700000,5440091.000000 6722441.000000,5372609.900000 6722677.400000,5371994.100000 6750072.000000,5305857.600000 6750340.300000,5305255.000000 6781158.800000,5240642.700000 6781458.300000,5240054.900000 6811374.400000,5184956.200000 6815616.900000,5177142.500000 6815944.300000,5176575.400000 6853349.800000,5115535.200000 6853709.100000,5114982.000000 6875157.900000,5083773.800000 6894255.800000,5055986.200000 6894642.600000,5055453.700000 6908831.700000,5036962.200000 6938223.000000,4998658.600000 6938636.200000,4998148.400000 6985128.000000,4943713.600000 6985569.100000,4943223.700000 7034846.200000,4891296.400000 7035312.600000,4890830.000000 7087239.900000,4841552.900000 7087730.100000,4841111.500000 7099939.000000,4830684.100000 7142164.600000,4794620.000000 7142675.100000,4794206.600000 7199471.100000,4750625.500000 7200002.400000,4750239.600000 7258998.200000,4709692.900000 7259551.400000,4709333.600000 7272490.000000,4701404.800000 7320591.600000,4671928.100000 7321158.700000,4671600.700000 7360476.100000,4650253.100000 7384071.100000,4637442.100000 7384658.900000,4637142.600000 7449271.200000,4606324.100000 7449873.800000,4606055.800000 7516010.300000,4578661.200000 7516626.100000,4578424.800000 7584107.200000,4554528.500000 7584734.600000,4554324.700000 7653372.200000,4533993.300000 7654006.000000,4533823.400000 7723618.500000,4517110.900000 7724261.800000,4516974.200000 7794650.100000,4503928.600000 7795299.900000,4503825.600000 7866272.900000,4494481.800000 7866929.100000,4494412.800000 7875377.600000,4493747.900000 7938297.600000,4488796.000000 7938952.900000,4488761.700000 8010516.900000,4486887.700000 8011173.700000,4486887.700000 Z"/> 
</g>
</g>
</g> 
</g><g id="substrate-pads" style="fill:#b5ae30; stroke:#b5ae30;" mask="url(#pads-mask)"><g style="fill-opacity: 0.0;stroke-width: 0.000000;stroke-opacity: 1;stroke-linecap: round;stroke-linejoin: round">
<g style="fill-opacity: 1.0;stroke-width: 0.100000;stroke-opacity: 1;stroke-linecap: round;stroke-linejoin: round">
<path style="fill-opacity: 1.0;stroke-width: 0.100000;stroke-opacity: 1;stroke-linecap: round;stroke-linejoin: round;fill-rule: evenodd" d="M 6851319.900000,5775020.100000 6851319.900000,5975019.900000 6651320.100000,5975019.900000 6651320.100000,5775020.100000 Z"/> 
</g>
<g style="fill-opacity: 1.0;stroke-width: 0.100000;stroke-opacity: 1;stroke-linecap: round;stroke-linejoin: round">
<path style="fill-opacity: 1.0;stroke-width: 0.100000;stroke-opacity: 1;stroke-linecap: round;stroke-linejoin: round;fill-rule: evenodd" d="M 9370999.900000,5769940.100000 9370999.900000,5969939.900000 9171000.100000,5969939.900000 9171000.100000,5769940.100000 Z"/> 
</g>
<g style="fill-opacity: 1.0;stroke-width: 0.100000;stroke-opacity: 1;stroke-linecap: round;stroke-linejoin: round">
<path style="fill-opacity: 1.0;stroke-width: 0.100000;stroke-opacity: 1;stroke-linecap: round;stroke-linejoin: round;fill-rule: evenodd" d="M 8100999.900000,7024700.100000 8100999.900000,7224699.900000 7901000.100000,7224699.900000 7901000.100000,7024700.100000 Z"/> 
</g>
<g style="fill-opacity: 1.0;stroke-width: 0.100000;stroke-opacity: 1;stroke-linecap: round;stroke-linejoin: round">
<path style="fill-opacity: 1.0;stroke-width: 0.100000;stroke-opacity: 1;stroke-linecap: round;stroke-linejoin: round;fill-rule: evenodd" d="M 8113699.900000,4505020.100000 8113699.900000,4705019.900000 7913700.100000,4705019.900000 7913700.100000,4505020.100000 Z"/> 
</g>
<g style="fill-opacity: 1.0;stroke-width: 0.100000;stroke-opacity: 1;stroke-linecap: round;stroke-linejoin: round">
<circle cx="7770000.000000" cy="6480000.000000" r="40000.000000"/> 
</g>
<g style="fill-opacity: 1.0;stroke-width: 0.100000;stroke-opacity: 1;stroke-linecap: round;stroke-linejoin: round">
<circle cx="7192500.000000" cy="5187500.000000" r="40000.000000"/> 
</g>
<g style="fill-opacity: 1.0;stroke-width: 0.100000;stroke-opacity: 1;stroke-linecap: round;stroke-linejoin: round">
<circle cx="7807500.000000" cy="4962500.000000" r="40000.000000"/> 
</g>
<g style="fill-opacity: 1.0;stroke-width: 0.100000;stroke-opacity: 1;stroke-linecap: round;stroke-linejoin: round">
<circle cx="8380000.000000" cy="6310000.000000" r="40000.000000"/> 
</g>
<g style="fill-opacity: 1.0;stroke-width: 0.100000;stroke-opacity: 1;stroke-linecap: round;stroke-linejoin: round">
<circle cx="7440000.000000" cy="5425000.000000" r="40000.000000"/> 
</g>
<g style="fill-opacity: 1.0;stroke-width: 0.100000;stroke-opacity: 1;stroke-linecap: round;stroke-linejoin: round">
<circle cx="9142278.500000" cy="5287117.800000" r="40000.000000"/> 
</g>
<g style="fill-opacity: 1.0;stroke-width: 0.100000;stroke-opacity: 1;stroke-linecap: round;stroke-linejoin: round">
<circle cx="8895080.000000" cy="6764020.000000" r="40000.000000"/> 
</g>
<g style="fill-opacity: 1.0;stroke-width: 0.100000;stroke-opacity: 1;stroke-linecap: round;stroke-linejoin: round">
<circle cx="8586047.900000" cy="4730887.200000" r="40000.000000"/> 
</g>
<g style="fill-opacity: 1.0;stroke-width: 0.100000;stroke-opacity: 1;stroke-linecap: round;stroke-linejoin: round">
<circle cx="7019067.000000" cy="6665947.500000" r="40000.000000"/> 
</g>
<g style="fill-opacity: 1.0;stroke-width: 0.100000;stroke-opacity: 1;stroke-linecap: round;stroke-linejoin: round">
<circle cx="8207320.900000" cy="7122075.400000" r="40000.000000"/> 
</g>
<g style="fill-opacity: 1.0;stroke-width: 0.100000;stroke-opacity: 1;stroke-linecap: round;stroke-linejoin: round">
<circle cx="7207218.200000" cy="6854098.700000" r="40000.000000"/> 
</g>
<g style="fill-opacity: 1.0;stroke-width: 0.100000;stroke-opacity: 1;stroke-linecap: round;stroke-linejoin: round">
<circle cx="6842760.000000" cy="5372100.000000" r="40000.000000"/> 
</g>
<g style="fill-opacity: 1.0;stroke-width: 0.100000;stroke-opacity: 1;stroke-linecap: round;stroke-linejoin: round">
<circle cx="6766560.000000" cy="5595620.000000" r="40000.000000"/> 
</g>
<g style="fill-opacity: 1.0;stroke-width: 0.100000;stroke-opacity: 1;stroke-linecap: round;stroke-linejoin: round">
<circle cx="9253220.000000" cy="6121400.000000" r="40000.000000"/> 
</g>
<g style="fill-opacity: 1.0;stroke-width: 0.100000;stroke-opacity: 1;stroke-linecap: round;stroke-linejoin: round">
<circle cx="8337635.200000" cy="4635530.500000" r="40000.000000"/> 
</g>
<g style="fill-opacity: 1.0;stroke-width: 0.100000;stroke-opacity: 1;stroke-linecap: round;stroke-linejoin: round">
<circle cx="7678789.400000" cy="7094376.300000" r="40000.000000"/> 
</g>
<g style="fill-opacity: 1.0;stroke-width: 0.100000;stroke-opacity: 1;stroke-linecap: round;stroke-linejoin: round">
<circle cx="9047480.000000" cy="6586220.000000" r="40000.000000"/> 
</g>
<g style="fill-opacity: 1.0;stroke-width: 0.100000;stroke-opacity: 1;stroke-linecap: round;stroke-linejoin: round">
<circle cx="9174480.000000" cy="6360160.000000" r="40000.000000"/> 
</g>
<g style="fill-opacity: 1.0;stroke-width: 0.100000;stroke-opacity: 1;stroke-linecap: round;stroke-linejoin: round">
<circle cx="6874146.100000" cy="6442789.000000" r="40000.000000"/> 
</g>
<g style="fill-opacity: 1.0;stroke-width: 0.100000;stroke-opacity: 1;stroke-linecap: round;stroke-linejoin: round">
<circle cx="8701424.600000" cy="6932406.800000" r="40000.000000"/> 
</g>
<g style="fill-opacity: 1.0;stroke-width: 0.100000;stroke-opacity: 1;stroke-linecap: round;stroke-linejoin: round">
<circle cx="8997357.600000" cy="5063959.300000" r="40000.000000"/> 
</g>
<g style="fill-opacity: 1.0;stroke-width: 0.100000;stroke-opacity: 1;stroke-linecap: round;stroke-linejoin: round">
<circle cx="7430376.700000" cy="6999019.600000" r="40000.000000"/> 
</g>
<g style="fill-opacity: 1.0;stroke-width: 0.100000;stroke-opacity: 1;stroke-linecap: round;stroke-linejoin: round">
<circle cx="7513320.000000" cy="4696460.000000" r="40000.000000"/> 
</g>
<g style="fill-opacity: 1.0;stroke-width: 0.100000;stroke-opacity: 1;stroke-linecap: round;stroke-linejoin: round">
<circle cx="7315000.000000" cy="4797500.000000" r="40000.000000"/> 
</g>
<g style="fill-opacity: 1.0;stroke-width: 0.100000;stroke-opacity: 1;stroke-linecap: round;stroke-linejoin: round">
<circle cx="6778789.400000" cy="6194376.300000" r="40000.000000"/> 
</g>
<g style="fill-opacity: 1.0;stroke-width: 0.100000;stroke-opacity: 1;stroke-linecap: round;stroke-linejoin: round">
<circle cx="9237635.200000" cy="5535530.500000" r="40000.000000"/> 
</g>
<g style="fill-opacity: 1.0;stroke-width: 0.100000;stroke-opacity: 1;stroke-linecap: round;stroke-linejoin: round">
<circle cx="8464340.200000" cy="7053207.300000" r="40000.000000"/> 
</g>
<g style="fill-opacity: 1.0;stroke-width: 0.100000;stroke-opacity: 1;stroke-linecap: round;stroke-linejoin: round">
<circle cx="8809206.400000" cy="4875808.100000" r="40000.000000"/> 
</g>
<g style="fill-opacity: 1.0;stroke-width: 0.100000;stroke-opacity: 1;stroke-linecap: round;stroke-linejoin: round">
<circle cx="7752080.000000" cy="4617720.000000" r="40000.000000"/> 
</g>
<g style="fill-opacity: 1.0;stroke-width: 0.100000;stroke-opacity: 1;stroke-linecap: round;stroke-linejoin: round">
<circle cx="7540000.000000" cy="6750000.000000" r="40000.000000"/> 
</g>
<g style="fill-opacity: 1.0;stroke-width: 0.100000;stroke-opacity: 1;stroke-linecap: round;stroke-linejoin: round">
<circle cx="8205000.000000" cy="6817500.000000" r="40000.000000"/> 
</g>
<g style="fill-opacity: 1.0;stroke-width: 0.100000;stroke-opacity: 1;stroke-linecap: round;stroke-linejoin: round">
<circle cx="7805000.000000" cy="6755000.000000" r="40000.000000"/> 
</g>
<g style="fill-opacity: 1.0;stroke-width: 0.100000;stroke-opacity: 1;stroke-linecap: round;stroke-linejoin: round">
<circle cx="8420000.000000" cy="6810000.000000" r="40000.000000"/> 
</g>
<g style="fill-opacity: 1.0;stroke-width: 0.100000;stroke-opacity: 1;stroke-linecap: round;stroke-linejoin: round">
<circle cx="7470000.000000" cy="6372500.000000" r="40000.000000"/> 
</g>
<g style="fill-opacity: 1.0;stroke-width: 0.100000;stroke-opacity: 1;stroke-linecap: round;stroke-linejoin: round">
<circle cx="8770000.000000" cy="5960000.000000" r="40000.000000"/> 
</g>
<g style="fill-opacity: 1.0;stroke-width: 0.100000;stroke-opacity: 1;stroke-linecap: round;stroke-linejoin: round">
<circle cx="7357500.000000" cy="6492500.000000" r="40000.000000"/> 
</g>
<g style="fill-opacity: 1.0;stroke-width: 0.100000;stroke-opacity: 1;stroke-linecap: round;stroke-linejoin: round">
<circle cx="7085000.000000" cy="6225000.000000" r="40000.000000"/> 
</g>
<g style="fill-opacity: 1.0;stroke-width: 0.100000;stroke-opacity: 1;stroke-linecap: round;stroke-linejoin: round">
<circle cx="7297500.000000" cy="5760000.000000" r="40000.000000"/> 
</g>
<g style="fill-opacity: 0.0;stroke-width: 50000.000000;stroke-opacity: 1;stroke-linecap: round;stroke-linejoin: round">
<path d="M7192500 5187500 L7202500 5187500 "/>
<path d="M7820048 6429951 L8260048 6429951 "/>
<path d="M7770000 6480000 L7820048 6429951 "/>
<path d="M7440000 5425000 L7440000 6092500 "/>
<path d="M7806840 4963160 L7807500 4962500 "/>
<path d="M8260048 6429951 L8380000 6310000 "/>
<path d="M7770000 6422500 L7770000 6480000 "/>
<path d="M7322500 5307500 L7440000 5425000 "/>
<path d="M7679340 4963160 L7806840 4963160 "/>
<path d="M7202500 5187500 L7322500 5307500 "/>
<path d="M7322500 5307500 L7335000 5307500 "/>
<path d="M7440000 6092500 L7770000 6422500 "/>
<path d="M7335000 5307500 L7679340 4963160 "/>
<path d="M8420000 6810000 L8212500 6810000 "/>
<path d="M8212500 6810000 L8205000 6817500 "/>
<path d="M7800000 6750000 L7805000 6755000 "/>
<path d="M7540000 6750000 L7800000 6750000 "/>
</g>
<g style="fill-opacity: 0.0;stroke-width: 25000.000000;stroke-opacity: 1;stroke-linecap: round;stroke-linejoin: round">
<path d="M7607500 6605000 L7792500 6605000 "/>
<path d="M8610000 6027500 L8610000 6020000 "/>
<path d="M7470000 6467500 L7607500 6605000 "/>
<path d="M8675000 5955000 L8765000 5955000 "/>
<path d="M8610000 6020000 L8675000 5955000 "/>
<path d="M8765000 5955000 L8770000 5960000 "/>
<path d="M8352500 6500000 L8610000 6242500 "/>
<path d="M7470000 6372500 L7470000 6467500 "/>
<path d="M7792500 6605000 L7897500 6500000 "/>
<path d="M8610000 6242500 L8610000 6027500 "/>
<path d="M7897500 6500000 L8352500 6500000 "/>
</g>
<g style="fill-opacity: 0.0;stroke-width: 50000.000000;stroke-opacity: 1;stroke-linecap: round;stroke-linejoin: round">
<path d="M7075000 5982500 L7075000 6177500 "/>
<path d="M7090000 6225000 L7357500 6492500 "/>
<path d="M7075000 6177500 L7075000 6215000 "/>
<path d="M7075000 6215000 L7085000 6225000 "/>
<path d="M7085000 6225000 L7090000 6225000 "/>
<path d="M7297500 5760000 L7075000 5982500 "/>
</g>
<g style="fill-opacity: 0.0;stroke-width: 50000.000000;stroke-opacity: 1;stroke-linecap: round;stroke-linejoin: round">
<g style="fill-opacity: 1.0;stroke-width: 0.100000;stroke-opacity: 1;stroke-linecap: round;stroke-linejoin: round">
<path style="fill-opacity: 1.0;stroke-width: 0.100000;stroke-opacity: 1;stroke-linecap: round;stroke-linejoin: round;fill-rule: evenodd" d="M 8082737.700000,4488761.700000 8083393.000000,4488796.000000 8146313.000000,4493747.900000 8154761.500000,4494412.800000 8155417.700000,4494481.800000 8226390.700000,4503825.600000 8227040.500000,4503928.600000 8297428.800000,4516974.200000 8298072.100000,4517110.900000 8367684.600000,4533823.400000 8368318.400000,4533993.300000 8436956.000000,4554324.700000 8437583.400000,4554528.500000 8505064.500000,4578424.800000 8505680.300000,4578661.200000 8571816.800000,4606055.800000 8572419.400000,4606324.100000 8637031.700000,4637142.600000 8637619.500000,4637442.100000 8661214.500000,4650253.100000 8700531.900000,4671600.700000 8701099.000000,4671928.100000 8749200.600000,4701404.800000 8762139.200000,4709333.600000 8762692.400000,4709692.900000 8821688.200000,4750239.600000 8822219.500000,4750625.500000 8879015.500000,4794206.600000 8879526.000000,4794620.000000 8921751.600000,4830684.100000 8933960.500000,4841111.500000 8934450.700000,4841552.900000 8986378.000000,4890830.000000 8986844.400000,4891296.400000 9036121.500000,4943223.700000 9036562.600000,4943713.600000 9083054.400000,4998148.400000 9083467.600000,4998658.600000 9112859.000000,5036962.200000 9127048.000000,5055453.700000 9127434.800000,5055986.200000 9146532.700000,5083773.800000 9167981.500000,5114982.000000 9168340.800000,5115535.200000 9205746.300000,5176575.400000 9206073.700000,5177142.500000 9210316.200000,5184956.200000 9240232.300000,5240054.900000 9240531.800000,5240642.700000 9271350.300000,5305255.000000 9271618.600000,5305857.600000 9299013.200000,5371994.100000 9299249.600000,5372609.900000 9323145.900000,5440091.000000 9323349.600000,5440718.000000 9341470.000000,5501891.300000 9343680.600000,5509354.300000 9343851.000000,5509989.800000 9360563.300000,5579601.400000 9360700.200000,5580245.600000 9369684.500000,5628720.900000 9373745.700000,5650633.000000 9373848.900000,5651284.600000 9383192.600000,5722256.900000 9383261.600000,5722912.900000 9388654.600000,5791436.900000 9388878.300000,5794279.700000 9388912.700000,5794936.700000 9390775.500000,5866072.800000 9390786.700000,5866499.300000 9390786.700000,5867157.500000 9389103.700000,5931430.600000 9388912.800000,5938719.700000 9388878.400000,5939376.800000 9387628.900000,5955253.400000 9383261.600000,6010745.300000 9383192.600000,6011401.300000 9373848.900000,6082373.600000 9373745.800000,6083024.300000 9373267.600000,6085605.000000 9360700.400000,6153411.600000 9360563.500000,6154055.900000 9346507.100000,6212605.100000 9343851.400000,6223666.700000 9343681.100000,6224302.200000 9323349.700000,6292939.800000 9323145.900000,6293567.200000 9299249.600000,6361048.300000 9299013.200000,6361664.100000 9271618.600000,6427800.600000 9271350.300000,6428403.200000 9240531.800000,6493015.500000 9240232.300000,6493603.300000 9233508.600000,6505986.800000 9206073.700000,6556515.700000 9205746.300000,6557082.800000 9184526.700000,6591710.100000 9168340.800000,6618123.000000 9167981.500000,6618676.200000 9152738.300000,6640855.300000 9127435.700000,6677670.800000 9127048.900000,6678203.300000 9119983.800000,6687410.700000 9083467.800000,6734999.300000 9083054.400000,6735509.800000 9050699.400000,6773392.600000 9036562.900000,6789944.300000 9036121.500000,6790434.500000 8986844.400000,6842361.800000 8986378.200000,6842828.000000 8984401.900000,6844703.400000 8934450.700000,6892105.300000 8933960.800000,6892546.400000 8879526.000000,6939038.200000 8879015.800000,6939451.400000 8822219.500000,6983032.700000 8821688.200000,6983418.600000 8796934.600000,7000431.300000 8762692.400000,7023965.300000 8762139.200000,7024324.600000 8701099.000000,7061730.100000 8700531.900000,7062057.500000 8661214.500000,7083405.100000 8637619.500000,7096216.100000 8637031.700000,7096515.600000 8572419.400000,7127334.100000 8571816.800000,7127602.400000 8505680.300000,7154997.000000 8505064.500000,7155233.400000 8437583.400000,7179129.700000 8436956.400000,7179333.400000 8368318.400000,7199664.900000 8367684.600000,7199834.800000 8298072.100000,7216547.300000 8297428.800000,7216684.000000 8227040.500000,7229729.600000 8226390.700000,7229832.600000 8172955.300000,7236867.500000 8155417.500000,7239176.400000 8154761.500000,7239245.400000 8146313.000000,7239910.300000 8083393.000000,7244862.200000 8082737.700000,7244896.500000 8011173.700000,7246770.500000 8010516.900000,7246770.500000 7938952.900000,7244896.500000 7938297.600000,7244862.200000 7875377.600000,7239910.300000 7866929.100000,7239245.400000 7866273.100000,7239176.400000 7848735.300000,7236867.500000 7795299.900000,7229832.600000 7794650.100000,7229729.600000 7724261.800000,7216684.000000 7723618.500000,7216547.300000 7654006.000000,7199834.800000 7653372.200000,7199664.900000 7584734.200000,7179333.400000 7584107.200000,7179129.700000 7516626.100000,7155233.400000 7516010.300000,7154997.000000 7449873.800000,7127602.400000 7449271.200000,7127334.100000 7384658.900000,7096515.600000 7384071.100000,7096216.100000 7360476.100000,7083405.100000 7321158.700000,7062057.500000 7320591.600000,7061730.100000 7259551.400000,7024324.600000 7258998.200000,7023965.300000 7224756.000000,7000431.300000 7200002.400000,6983418.600000 7199471.100000,6983032.700000 7142674.800000,6939451.400000 7142164.600000,6939038.200000 7087729.800000,6892546.400000 7087239.900000,6892105.300000 7037288.700000,6844703.400000 7035312.400000,6842828.000000 7034846.200000,6842361.800000 6985569.100000,6790434.500000 6985127.700000,6789944.300000 6970991.200000,6773392.600000 6938636.200000,6735509.800000 6938222.800000,6734999.300000 6901706.800000,6687410.700000 6894641.700000,6678203.300000 6894254.900000,6677670.800000 6868952.400000,6640855.300000 6853709.100000,6618676.200000 6853349.800000,6618123.000000 6837163.900000,6591710.100000 6815944.300000,6557082.800000 6815616.900000,6556515.700000 6788182.000000,6505986.800000 6781458.300000,6493603.300000 6781158.800000,6493015.500000 6750340.300000,6428403.200000 6750072.000000,6427800.600000 6722677.400000,6361664.100000 6722441.000000,6361048.300000 6698544.700000,6293567.200000 6698340.900000,6292939.800000 6678009.500000,6224302.200000 6677839.200000,6223666.700000 6675183.600000,6212605.100000 6661127.100000,6154055.900000 6660990.200000,6153411.600000 6648423.100000,6085605.000000 6647944.800000,6083024.300000 6647841.700000,6082373.600000 6638498.000000,6011401.300000 6638429.000000,6010745.300000 6634061.700000,5955253.400000 6632812.200000,5939376.800000 6632777.800000,5938719.700000 6632587.000000,5931430.600000 6631498.300000,5889854.800000 6869889.900000,5889854.800000 6869899.800000,5890034.100000 6869899.800000,5890035.300000 6872771.800000,5942221.300000 6873499.000000,5955434.700000 6880877.100000,6020698.000000 6880907.900000,6020877.200000 6891586.900000,6083025.200000 6891999.800000,6085428.400000 6906830.300000,6149411.200000 6925319.200000,6212434.200000 6925380.000000,6212604.400000 6925380.200000,6212605.100000 6929444.100000,6223986.400000 6947405.300000,6274288.400000 6973015.400000,6334768.600000 7002064.500000,6393674.400000 7034456.300000,6450810.300000 7070083.300000,6505986.800000 7070188.800000,6506131.300000 7070189.000000,6506131.500000 7107413.100000,6557084.900000 7108827.500000,6559021.000000 7150560.300000,6609737.100000 7195143.300000,6657966.700000 7242428.600000,6703549.900000 7292259.500000,6746335.700000 7344470.700000,6786182.000000 7370887.800000,6804034.100000 7398737.500000,6822854.400000 7398738.700000,6822855.100000 7398889.100000,6822956.800000 7455334.100000,6856538.000000 7513618.500000,6886814.400000 7573549.200000,6913685.400000 7600332.600000,6923886.200000 7634758.100000,6936997.700000 7634759.400000,6936998.100000 7634927.300000,6937062.100000 7675915.100000,6950024.800000 7697376.900000,6956812.300000 7697377.600000,6956812.500000 7697549.300000,6956866.800000 7761207.400000,6973033.900000 7825690.700000,6985509.800000 7825869.400000,6985533.800000 7825870.000000,6985533.900000 7890604.900000,6994228.900000 7890605.500000,6994229.000000 7890785.200000,6994253.100000 7890966.000000,6994266.900000 7890967.400000,6994267.000000 7927472.400000,6997043.800000 7956275.100000,6999234.800000 8000591.600000,7000047.100000 8021762.500000,7000435.100000 8021762.900000,7000435.100000 8021943.100000,7000438.400000 8033645.800000,6999978.600000 8087389.200000,6997867.000000 8087390.500000,6997866.900000 8087571.500000,6997859.800000 8087752.800000,6997842.200000 8087754.000000,6997842.100000 8152762.900000,6991525.200000 8152763.900000,6991525.100000 8152942.700000,6991507.700000 8217839.800000,6981403.100000 8218015.900000,6981365.200000 8218016.900000,6981365.000000 8281869.400000,6967617.900000 8281870.500000,6967617.600000 8282047.600000,6967579.500000 8345353.300000,6950082.800000 8345524.200000,6950024.800000 8407374.200000,6929029.600000 8407375.600000,6929029.100000 8407546.700000,6928971.000000 8445468.700000,6913611.000000 8468254.000000,6904382.000000 8468255.000000,6904381.600000 8468421.800000,6904314.000000 8468583.900000,6904237.200000 8468585.500000,6904236.500000 8527613.000000,6876271.200000 8527776.600000,6876193.700000 8527935.300000,6876107.000000 8585253.700000,6844791.100000 8585254.000000,6844790.900000 8585414.200000,6844703.400000 8641143.600000,6809947.400000 8694779.800000,6772041.100000 8728870.700000,6744875.400000 8746004.200000,6731222.400000 8746004.700000,6731222.000000 8746145.100000,6731110.100000 8765740.000000,6713559.400000 8794934.400000,6687410.700000 8794935.200000,6687410.000000 8795069.000000,6687290.100000 8841389.400000,6640726.600000 8841509.500000,6640591.100000 8884831.800000,6591710.100000 8884832.000000,6591709.900000 8884952.500000,6591573.900000 8888478.800000,6587100.900000 8925502.100000,6540137.100000 8925502.500000,6540136.600000 8925614.100000,6539995.000000 8949281.500000,6506131.500000 8963135.100000,6486309.700000 8963135.500000,6486309.100000 8963239.000000,6486161.000000 8971667.900000,6472486.800000 8997607.500000,6430405.100000 8997608.400000,6430403.600000 8997702.800000,6430250.400000 9028890.900000,6372448.700000 9046501.500000,6334768.600000 9056623.600000,6313111.100000 9056624.400000,6313109.300000 9056700.000000,6312947.500000 9081037.800000,6251944.200000 9094219.300000,6212434.200000 9101766.500000,6189812.600000 9101767.000000,6189811.000000 9101823.700000,6189641.000000 9118988.800000,6126244.600000 9126136.400000,6092179.800000 9132439.100000,6062141.300000 9132439.300000,6062140.300000 9132476.000000,6061965.300000 9142240.600000,5997016.200000 9146044.700000,5955616.600000 9148233.700000,5931794.600000 9148233.800000,5931793.800000 9148250.400000,5931612.600000 9149666.000000,5890035.300000 9150481.900000,5866072.800000 9150482.000000,5866069.900000 9150485.300000,5865971.600000 9150500.900000,5860000.000000 9148609.700000,5794348.200000 9145530.500000,5758794.800000 9142958.200000,5729095.200000 9142958.100000,5729094.700000 9142942.500000,5728914.100000 9133518.100000,5663914.700000 9120367.600000,5599565.600000 9103534.800000,5536080.200000 9083075.400000,5473669.100000 9059057.200000,5412539.200000 9043968.100000,5379808.300000 9031635.800000,5353057.300000 9031635.100000,5353055.900000 9031560.100000,5352893.200000 9031476.400000,5352736.100000 9031475.600000,5352734.500000 9006335.800000,5305552.900000 9000675.000000,5294928.900000 8966504.500000,5238838.700000 8929161.900000,5184808.400000 8888771.000000,5133017.400000 8845465.800000,5083637.200000 8827889.100000,5065782.200000 8799518.300000,5036962.200000 8799517.700000,5036961.600000 8799389.900000,5036831.800000 8750696.100000,4992756.300000 8699545.800000,4951556.900000 8646108.800000,4913370.200000 8611124.000000,4891296.400000 8590717.200000,4878420.700000 8590717.300000,4878420.700000 8590562.200000,4878322.900000 8533090.200000,4846531.200000 8532927.600000,4846453.100000 8532926.400000,4846452.500000 8499760.200000,4830526.400000 8473883.500000,4818100.600000 8473717.900000,4818032.500000 8473716.300000,4818031.800000 8413305.000000,4793193.700000 8413305.100000,4793193.700000 8413138.400000,4793125.200000 8351056.300000,4771688.000000 8287843.100000,4753860.100000 8287667.600000,4753821.400000 8287666.200000,4753821.000000 8223886.700000,4739739.800000 8223886.000000,4739739.700000 8223708.600000,4739700.500000 8223530.000000,4739671.700000 8223529.300000,4739671.600000 8159044.600000,4729285.100000 8159044.700000,4729285.100000 8158865.200000,4729256.200000 8158685.200000,4729237.800000 8158684.000000,4729237.600000 8093708.000000,4722580.300000 8093707.200000,4722580.200000 8093528.200000,4722561.900000 8093348.000000,4722553.900000 8093347.000000,4722553.800000 8028094.700000,4719647.800000 8028093.400000,4719647.800000 8027914.200000,4719639.800000 7992504.900000,4720103.300000 7962421.800000,4720497.100000 7962420.700000,4720497.100000 7962240.800000,4720499.500000 7896725.700000,4725138.200000 7831586.400000,4733540.600000 7805206.800000,4738501.200000 7767214.500000,4745645.500000 7767213.100000,4745645.800000 7767038.700000,4745678.600000 7703296.700000,4761512.200000 7670333.100000,4771747.700000 7640746.700000,4780934.500000 7640746.000000,4780934.700000 7640571.900000,4780988.800000 7640401.200000,4781052.800000 7579242.300000,4803980.000000 7579241.300000,4803980.400000 7579072.200000,4804043.800000 7578906.600000,4804117.000000 7578905.400000,4804117.500000 7547098.300000,4818179.300000 7519001.700000,4830600.700000 7518839.100000,4830684.100000 7460720.700000,4860488.700000 7460719.800000,4860489.200000 7460559.500000,4860571.400000 7460404.200000,4860662.700000 7460403.100000,4860663.300000 7435730.100000,4875167.900000 7403939.400000,4893856.700000 7403789.600000,4893956.800000 7349480.400000,4930245.000000 7349479.500000,4930245.600000 7349329.300000,4930346.000000 7349184.400000,4930455.400000 7349184.100000,4930455.600000 7331621.700000,4943713.900000 7296910.200000,4969918.400000 7246855.900000,5012442.700000 7199332.600000,5057777.700000 7199207.000000,5057912.200000 7154623.000000,5105638.900000 7154622.100000,5105640.000000 7154497.600000,5105773.200000 7154380.700000,5105913.800000 7154380.400000,5105914.100000 7120577.900000,5146557.300000 7112499.900000,5156270.000000 7073478.600000,5209100.700000 7057056.500000,5234244.200000 7037662.300000,5263937.900000 7037661.100000,5263939.800000 7037563.100000,5264089.900000 7004872.600000,5321055.400000 6975515.500000,5379808.300000 6949589.100000,5440153.600000 6949527.400000,5440323.700000 6949527.000000,5440324.600000 6949384.100000,5440718.400000 6927179.400000,5501891.300000 6927127.900000,5502063.400000 6927127.500000,5502064.700000 6924852.500000,5509671.800000 6908360.700000,5564816.600000 6893195.500000,5628720.900000 6881734.000000,5693392.200000 6881713.100000,5693569.100000 6881712.900000,5693570.200000 6878317.700000,5722256.900000 6874014.300000,5758616.000000 6874003.600000,5758794.100000 6874003.500000,5758794.800000 6871860.100000,5794348.200000 6870061.900000,5824176.000000 6869889.900000,5889854.800000 6631498.300000,5889854.800000 6630903.900000,5867157.500000 6630903.900000,5866499.300000 6630915.100000,5866072.800000 6632777.900000,5794936.700000 6632812.300000,5794279.700000 6633036.100000,5791436.900000 6638429.000000,5722912.900000 6638498.000000,5722256.900000 6647841.700000,5651284.600000 6647944.900000,5650633.000000 6652006.100000,5628720.900000 6660990.400000,5580245.600000 6661127.300000,5579601.400000 6677839.600000,5509989.800000 6678010.000000,5509354.300000 6680220.700000,5501891.300000 6698341.000000,5440718.000000 6698544.700000,5440091.000000 6722441.000000,5372609.900000 6722677.400000,5371994.100000 6750072.000000,5305857.600000 6750340.300000,5305255.000000 6781158.800000,5240642.700000 6781458.300000,5240054.900000 6811374.400000,5184956.200000 6815616.900000,5177142.500000 6815944.300000,5176575.400000 6853349.800000,5115535.200000 6853709.100000,5114982.000000 6875157.900000,5083773.800000 6894255.800000,5055986.200000 6894642.600000,5055453.700000 6908831.700000,5036962.200000 6938223.000000,4998658.600000 6938636.200000,4998148.400000 6985128.000000,4943713.600000 6985569.100000,4943223.700000 7034846.200000,4891296.400000 7035312.600000,4890830.000000 7087239.900000,4841552.900000 7087730.100000,4841111.500000 7099939.000000,4830684.100000 7142164.600000,4794620.000000 7142675.100000,4794206.600000 7199471.100000,4750625.500000 7200002.400000,4750239.600000 7258998.200000,4709692.900000 7259551.400000,4709333.600000 7272490.000000,4701404.800000 7320591.600000,4671928.100000 7321158.700000,4671600.700000 7360476.100000,4650253.100000 7384071.100000,4637442.100000 7384658.900000,4637142.600000 7449271.200000,4606324.100000 7449873.800000,4606055.800000 7516010.300000,4578661.200000 7516626.100000,4578424.800000 7584107.200000,4554528.500000 7584734.600000,4554324.700000 7653372.200000,4533993.300000 7654006.000000,4533823.400000 7723618.500000,4517110.900000 7724261.800000,4516974.200000 7794650.100000,4503928.600000 7795299.900000,4503825.600000 7866272.900000,4494481.800000 7866929.100000,4494412.800000 7875377.600000,4493747.900000 7938297.600000,4488796.000000 7938952.900000,4488761.700000 8010516.900000,4486887.700000 8011173.700000,4486887.700000 Z"/> 
</g>
</g>
</g> 
</g><g id="substrate-silk" style="fill:#f0f0f0; stroke:#f0f0f0;" mask="url(#pads-mask-silkscreen)"><g style="fill-opacity: 0.0;stroke-width: 12000.000000;stroke-opacity: 1;stroke-linecap: round;stroke-linejoin: round">
<path d="M6631320 5995020 L6871320 5995020 "/>
<path d="M6871320 5995020 L6871320 5755020 "/>
<path d="M6871320 5755020 L6631320 5755020 "/>
<path d="M6631320 5755020 L6631320 5995020 "/>
<path d="M9391000 5989940 L9391000 5749940 "/>
<path d="M9151000 5749940 L9151000 5989940 "/>
<path d="M9151000 5989940 L9391000 5989940 "/>
<path d="M9391000 5749940 L9151000 5749940 "/>
<path d="M8121000 7244700 L8121000 7004700 "/>
<path d="M8121000 7004700 L7881000 7004700 "/>
<path d="M7881000 7004700 L7881000 7244700 "/>
<path d="M7881000 7244700 L8121000 7244700 "/>
<path d="M8133700 4485020 L7893700 4485020 "/>
<path d="M7893700 4485020 L7893700 4725020 "/>
<path d="M8133700 4725020 L8133700 4485020 "/>
<path d="M7893700 4725020 L8133700 4725020 "/>
</g> 
</g><g id="substrate-outline" style="fill:#000000; stroke:#000000; stroke-width: 15000.0"><g style="fill-opacity: 0.0;stroke-opacity: 1;stroke-linecap: round;stroke-linejoin: round">
<circle cx="8010845.300000" cy="5866829.100000" r="1410000.000000"/> 
<circle cx="8010845.300000" cy="5866829.100000" r="425000.000000"/> 
</g> 
<path d="M -50000.0 100000.0 A 50000.0 50000.0 0 1 1 50000.0 100000.0 L 50000.0 -100000.0 A 50000.0 50000.0 0 1 1 -50000.0 -100000.0 Z" transform="translate(8010000.0 4967500.0) rotate(-0.0)"/><path d="M -50000.0 100000.0 A 50000.0 50000.0 0 1 1 50000.0 100000.0 L 50000.0 -100000.0 A 50000.0 50000.0 0 1 1 -50000.0 -100000.0 Z" transform="translate(8002500.0 6767500.0) rotate(-0.0)"/><path d="M -20000.0 0.0 A 20000.0 20000.0 0 1 1 20000.0 0.0 L 20000.0 -0.0 A 20000.0 20000.0 0 1 1 -20000.0 -0.0 Z" transform="translate(7770000.0 6480000.0) rotate(0)"/><path d="M -20000.0 0.0 A 20000.0 20000.0 0 1 1 20000.0 0.0 L 20000.0 -0.0 A 20000.0 20000.0 0 1 1 -20000.0 -0.0 Z" transform="translate(7192500.0 5187500.0) rotate(0)"/><path d="M -20000.0 0.0 A 20000.0 20000.0 0 1 1 20000.0 0.0 L 20000.0 -0.0 A 20000.0 20000.0 0 1 1 -20000.0 -0.0 Z" transform="translate(7807500.0 4962500.0) rotate(0)"/><path d="M -20000.0 0.0 A 20000.0 20000.0 0 1 1 20000.0 0.0 L 20000.0 -0.0 A 20000.0 20000.0 0 1 1 -20000.0 -0.0 Z" transform="translate(8380000.0 6310000.0) rotate(0)"/><path d="M -20000.0 0.0 A 20000.0 20000.0 0 1 1 20000.0 0.0 L 20000.0 -0.0 A 20000.0 20000.0 0 1 1 -20000.0 -0.0 Z" transform="translate(7440000.0 5425000.0) rotate(0)"/><path d="M -20000.0 0.0 A 20000.0 20000.0 0 1 1 20000.0 0.0 L 20000.0 -0.0 A 20000.0 20000.0 0 1 1 -20000.0 -0.0 Z" transform="translate(9142278.5 5287117.8) rotate(0)"/><path d="M -20000.0 0.0 A 20000.0 20000.0 0 1 1 20000.0 0.0 L 20000.0 -0.0 A 20000.0 20000.0 0 1 1 -20000.0 -0.0 Z" transform="translate(8895080.0 6764020.0) rotate(0)"/><path d="M -20000.0 0.0 A 20000.0 20000.0 0 1 1 20000.0 0.0 L 20000.0 -0.0 A 20000.0 20000.0 0 1 1 -20000.0 -0.0 Z" transform="translate(8586047.9 4730887.2) rotate(0)"/><path d="M -20000.0 0.0 A 20000.0 20000.0 0 1 1 20000.0 0.0 L 20000.0 -0.0 A 20000.0 20000.0 0 1 1 -20000.0 -0.0 Z" transform="translate(7019067.0 6665947.5) rotate(0)"/><path d="M -20000.0 0.0 A 20000.0 20000.0 0 1 1 20000.0 0.0 L 20000.0 -0.0 A 20000.0 20000.0 0 1 1 -20000.0 -0.0 Z" transform="translate(8207320.9 7122075.4) rotate(0)"/><path d="M -20000.0 0.0 A 20000.0 20000.0 0 1 1 20000.0 0.0 L 20000.0 -0.0 A 20000.0 20000.0 0 1 1 -20000.0 -0.0 Z" transform="translate(7207218.2 6854098.7) rotate(0)"/><path d="M -20000.0 0.0 A 20000.0 20000.0 0 1 1 20000.0 0.0 L 20000.0 -0.0 A 20000.0 20000.0 0 1 1 -20000.0 -0.0 Z" transform="translate(6842760.0 5372100.0) rotate(0)"/><path d="M -20000.0 0.0 A 20000.0 20000.0 0 1 1 20000.0 0.0 L 20000.0 -0.0 A 20000.0 20000.0 0 1 1 -20000.0 -0.0 Z" transform="translate(6766560.0 5595620.0) rotate(0)"/><path d="M -20000.0 0.0 A 20000.0 20000.0 0 1 1 20000.0 0.0 L 20000.0 -0.0 A 20000.0 20000.0 0 1 1 -20000.0 -0.0 Z" transform="translate(9253220.0 6121400.0) rotate(0)"/><path d="M -20000.0 0.0 A 20000.0 20000.0 0 1 1 20000.0 0.0 L 20000.0 -0.0 A 20000.0 20000.0 0 1 1 -20000.0 -0.0 Z" transform="translate(8337635.2 4635530.5) rotate(0)"/><path d="M -20000.0 0.0 A 20000.0 20000.0 0 1 1 20000.0 0.0 L 20000.0 -0.0 A 20000.0 20000.0 0 1 1 -20000.0 -0.0 Z" transform="translate(7678789.4 7094376.3) rotate(0)"/><path d="M -20000.0 0.0 A 20000.0 20000.0 0 1 1 20000.0 0.0 L 20000.0 -0.0 A 20000.0 20000.0 0 1 1 -20000.0 -0.0 Z" transform="translate(9047480.0 6586220.0) rotate(0)"/><path d="M -20000.0 0.0 A 20000.0 20000.0 0 1 1 20000.0 0.0 L 20000.0 -0.0 A 20000.0 20000.0 0 1 1 -20000.0 -0.0 Z" transform="translate(9174480.0 6360160.0) rotate(0)"/><path d="M -20000.0 0.0 A 20000.0 20000.0 0 1 1 20000.0 0.0 L 20000.0 -0.0 A 20000.0 20000.0 0 1 1 -20000.0 -0.0 Z" transform="translate(6874146.1 6442789.0) rotate(0)"/><path d="M -20000.0 0.0 A 20000.0 20000.0 0 1 1 20000.0 0.0 L 20000.0 -0.0 A 20000.0 20000.0 0 1 1 -20000.0 -0.0 Z" transform="translate(8701424.6 6932406.8) rotate(0)"/><path d="M -20000.0 0.0 A 20000.0 20000.0 0 1 1 20000.0 0.0 L 20000.0 -0.0 A 20000.0 20000.0 0 1 1 -20000.0 -0.0 Z" transform="translate(8997357.6 5063959.3) rotate(0)"/><path d="M -20000.0 0.0 A 20000.0 20000.0 0 1 1 20000.0 0.0 L 20000.0 -0.0 A 20000.0 20000.0 0 1 1 -20000.0 -0.0 Z" transform="translate(7430376.7 6999019.6) rotate(0)"/><path d="M -20000.0 0.0 A 20000.0 20000.0 0 1 1 20000.0 0.0 L 20000.0 -0.0 A 20000.0 20000.0 0 1 1 -20000.0 -0.0 Z" transform="translate(7513320.0 4696460.0) rotate(0)"/><path d="M -20000.0 0.0 A 20000.0 20000.0 0 1 1 20000.0 0.0 L 20000.0 -0.0 A 20000.0 20000.0 0 1 1 -20000.0 -0.0 Z" transform="translate(7315000.0 4797500.0) rotate(0)"/><path d="M -20000.0 0.0 A 20000.0 20000.0 0 1 1 20000.0 0.0 L 20000.0 -0.0 A 20000.0 20000.0 0 1 1 -20000.0 -0.0 Z" transform="translate(6778789.4 6194376.3) rotate(0)"/><path d="M -20000.0 0.0 A 20000.0 20000.0 0 1 1 20000.0 0.0 L 20000.0 -0.0 A 20000.0 20000.0 0 1 1 -20000.0 -0.0 Z" transform="translate(9237635.2 5535530.5) rotate(0)"/><path d="M -20000.0 0.0 A 20000.0 20000.0 0 1 1 20000.0 0.0 L 20000.0 -0.0 A 20000.0 20000.0 0 1 1 -20000.0 -0.0 Z" transform="translate(8464340.2 7053207.3) rotate(0)"/><path d="M -20000.0 0.0 A 20000.0 20000.0 0 1 1 20000.0 0.0 L 20000.0 -0.0 A 20000.0 20000.0 0 1 1 -20000.0 -0.0 Z" transform="translate(8809206.4 4875808.1) rotate(0)"/><path d="M -20000.0 0.0 A 20000.0 20000.0 0 1 1 20000.0 0.0 L 20000.0 -0.0 A 20000.0 20000.0 0 1 1 -20000.0 -0.0 Z" transform="translate(7752080.0 4617720.0) rotate(0)"/><path d="M -20000.0 0.0 A 20000.0 20000.0 0 1 1 20000.0 0.0 L 20000.0 -0.0 A 20000.0 20000.0 0 1 1 -20000.0 -0.0 Z" transform="translate(7540000.0 6750000.0) rotate(0)"/><path d="M -20000.0 0.0 A 20000.0 20000.0 0 1 1 20000.0 0.0 L 20000.0 -0.0 A 20000.0 20000.0 0 1 1 -20000.0 -0.0 Z" transform="translate(8205000.0 6817500.0) rotate(0)"/><path d="M -20000.0 0.0 A 20000.0 20000.0 0 1 1 20000.0 0.0 L 20000.0 -0.0 A 20000.0 20000.0 0 1 1 -20000.0 -0.0 Z" transform="translate(7805000.0 6755000.0) rotate(0)"/><path d="M -20000.0 0.0 A 20000.0 20000.0 0 1 1 20000.0 0.0 L 20000.0 -0.0 A 20000.0 20000.0 0 1 1 -20000.0 -0.0 Z" transform="translate(8420000.0 6810000.0) rotate(0)"/><path d="M -20000.0 0.0 A 20000.0 20000.0 0 1 1 20000.0 0.0 L 20000.0 -0.0 A 20000.0 20000.0 0 1 1 -20000.0 -0.0 Z" transform="translate(7470000.0 6372500.0) rotate(0)"/><path d="M -20000.0 0.0 A 20000.0 20000.0 0 1 1 20000.0 0.0 L 20000.0 -0.0 A 20000.0 20000.0 0 1 1 -20000.0 -0.0 Z" transform="translate(8770000.0 5960000.0) rotate(0)"/><path d="M -20000.0 0.0 A 20000.0 20000.0 0 1 1 20000.0 0.0 L 20000.0 -0.0 A 20000.0 20000.0 0 1 1 -20000.0 -0.0 Z" transform="translate(7357500.0 6492500.0) rotate(0)"/><path d="M -20000.0 0.0 A 20000.0 20000.0 0 1 1 20000.0 0.0 L 20000.0 -0.0 A 20000.0 20000.0 0 1 1 -20000.0 -0.0 Z" transform="translate(7085000.0 6225000.0) rotate(0)"/><path d="M -20000.0 0.0 A 20000.0 20000.0 0 1 1 20000.0 0.0 L 20000.0 -0.0 A 20000.0 20000.0 0 1 1 -20000.0 -0.0 Z" transform="translate(7297500.0 5760000.0) rotate(0)"/></g></g></g></svg>