G04 #@! TF.GenerationSoftware,KiCad,Pcbnew,6.0.0-d3dd2cf0fa~116~ubuntu20.04.1*
G04 #@! TF.CreationDate,2023-03-10T13:04:00+00:00*
G04 #@! TF.ProjectId,pixel-pump-motor-board-panel,70697865-6c2d-4707-956d-702d6d6f746f,rev?*
G04 #@! TF.SameCoordinates,Original*
G04 #@! TF.FileFunction,Soldermask,Top*
G04 #@! TF.FilePolarity,Negative*
%FSLAX46Y46*%
G04 Gerber Fmt 4.6, Leading zero omitted, Abs format (unit mm)*
G04 Created by KiCad (PCBNEW 6.0.0-d3dd2cf0fa~116~ubuntu20.04.1) date 2023-03-10 13:04:00*
%MOMM*%
%LPD*%
G01*
G04 APERTURE LIST*
G04 Aperture macros list*
%AMRoundRect*
0 Rectangle with rounded corners*
0 $1 Rounding radius*
0 $2 $3 $4 $5 $6 $7 $8 $9 X,Y pos of 4 corners*
0 Add a 4 corners polygon primitive as box body*
4,1,4,$2,$3,$4,$5,$6,$7,$8,$9,$2,$3,0*
0 Add four circle primitives for the rounded corners*
1,1,$1+$1,$2,$3*
1,1,$1+$1,$4,$5*
1,1,$1+$1,$6,$7*
1,1,$1+$1,$8,$9*
0 Add four rect primitives between the rounded corners*
20,1,$1+$1,$2,$3,$4,$5,0*
20,1,$1+$1,$4,$5,$6,$7,0*
20,1,$1+$1,$6,$7,$8,$9,0*
20,1,$1+$1,$8,$9,$2,$3,0*%
%AMRotRect*
0 Rectangle, with rotation*
0 The origin of the aperture is its center*
0 $1 length*
0 $2 width*
0 $3 Rotation angle, in degrees counterclockwise*
0 Add horizontal line*
21,1,$1,$2,0,0,$3*%
G04 Aperture macros list end*
%ADD10C,0.500000*%
%ADD11O,2.500000X4.200000*%
%ADD12RoundRect,0.200000X0.053033X-0.335876X0.335876X-0.053033X-0.053033X0.335876X-0.335876X0.053033X0*%
%ADD13RoundRect,0.150000X0.625000X-0.150000X0.625000X0.150000X-0.625000X0.150000X-0.625000X-0.150000X0*%
%ADD14RoundRect,0.250000X0.650000X-0.350000X0.650000X0.350000X-0.650000X0.350000X-0.650000X-0.350000X0*%
%ADD15C,1.000000*%
%ADD16RotRect,1.100000X1.100000X45.000000*%
%ADD17RoundRect,0.250000X0.618718X-0.017678X-0.017678X0.618718X-0.618718X0.017678X0.017678X-0.618718X0*%
%ADD18RotRect,0.863600X1.473200X315.000000*%
%ADD19RotRect,0.685800X0.533400X315.000000*%
%ADD20RotRect,0.990600X1.498600X45.000000*%
%ADD21RotRect,3.276600X1.498600X45.000000*%
%ADD22C,3.000000*%
G04 APERTURE END LIST*
D10*
G04 #@! TO.C,REF\u002A\u002A*
X35594429Y-94395719D03*
G04 #@! TD*
D11*
G04 #@! TO.C,J3*
X25087233Y-55305630D03*
G04 #@! TD*
D10*
G04 #@! TO.C,REF\u002A\u002A*
X14389985Y-73157724D03*
G04 #@! TD*
G04 #@! TO.C,REF\u002A\u002A*
X113459380Y-93812918D03*
G04 #@! TD*
G04 #@! TO.C,REF\u002A\u002A*
X114496050Y-16607548D03*
G04 #@! TD*
G04 #@! TO.C,REF\u002A\u002A*
X73692557Y-54060942D03*
G04 #@! TD*
G04 #@! TO.C,REF\u002A\u002A*
X113459380Y-54612918D03*
G04 #@! TD*
D12*
G04 #@! TO.C,R1*
X57009870Y-30666393D03*
X58176596Y-29499667D03*
G04 #@! TD*
D10*
G04 #@! TO.C,REF\u002A\u002A*
X54111890Y-73753430D03*
G04 #@! TD*
G04 #@! TO.C,REF\u002A\u002A*
X54666344Y-74319006D03*
G04 #@! TD*
D12*
G04 #@! TO.C,R1*
X17809870Y-69866393D03*
X18976596Y-68699667D03*
G04 #@! TD*
D10*
G04 #@! TO.C,REF\u002A\u002A*
X54111890Y-34553430D03*
G04 #@! TD*
D13*
G04 #@! TO.C,J1*
X112662233Y-66230630D03*
X112662233Y-65230630D03*
X112662233Y-64230630D03*
X112662233Y-63230630D03*
D14*
X110137233Y-61930630D03*
X110137233Y-67530630D03*
G04 #@! TD*
D10*
G04 #@! TO.C,REF\u002A\u002A*
X54666344Y-113519006D03*
G04 #@! TD*
D15*
G04 #@! TO.C,FID3*
X32972833Y-74109030D03*
G04 #@! TD*
D16*
G04 #@! TO.C,D1*
X97897284Y-72220579D03*
X99877182Y-70240681D03*
G04 #@! TD*
D10*
G04 #@! TO.C,REF\u002A\u002A*
X92789984Y-33957724D03*
G04 #@! TD*
D12*
G04 #@! TO.C,R1*
X96209870Y-109066393D03*
X97376596Y-107899667D03*
G04 #@! TD*
D16*
G04 #@! TO.C,D1*
X19497284Y-33020579D03*
X21477182Y-31040681D03*
G04 #@! TD*
D12*
G04 #@! TO.C,R1*
X96209870Y-30666393D03*
X97376596Y-29499667D03*
G04 #@! TD*
D16*
G04 #@! TO.C,D1*
X97897284Y-111420579D03*
X99877182Y-109440681D03*
G04 #@! TD*
D10*
G04 #@! TO.C,REF\u002A\u002A*
X15466345Y-35119006D03*
G04 #@! TD*
D15*
G04 #@! TO.C,FID1*
X112388833Y-94513030D03*
G04 #@! TD*
D10*
G04 #@! TO.C,REF\u002A\u002A*
X15466345Y-74319006D03*
G04 #@! TD*
D16*
G04 #@! TO.C,D1*
X19497284Y-72220579D03*
X21477182Y-70240681D03*
G04 #@! TD*
D17*
G04 #@! TO.C,C1*
X108641827Y-72885224D03*
X106732639Y-70976036D03*
G04 #@! TD*
D10*
G04 #@! TO.C,REF\u002A\u002A*
X114496050Y-95007547D03*
G04 #@! TD*
D11*
G04 #@! TO.C,J3*
X64287233Y-55305630D03*
G04 #@! TD*
D18*
G04 #@! TO.C,U1*
X69350852Y-69394249D03*
X70823614Y-70867011D03*
D19*
X70670950Y-69546913D03*
X69503516Y-70714347D03*
G04 #@! TD*
D17*
G04 #@! TO.C,C1*
X69441827Y-112085224D03*
X67532639Y-110176036D03*
G04 #@! TD*
D12*
G04 #@! TO.C,R1*
X57009870Y-69866393D03*
X58176596Y-68699667D03*
G04 #@! TD*
D15*
G04 #@! TO.C,FID2*
X55266433Y-112445430D03*
G04 #@! TD*
D10*
G04 #@! TO.C,REF\u002A\u002A*
X15466345Y-113519006D03*
G04 #@! TD*
G04 #@! TO.C,REF\u002A\u002A*
X112892557Y-54060942D03*
G04 #@! TD*
D13*
G04 #@! TO.C,J1*
X73462233Y-105430630D03*
X73462233Y-104430630D03*
X73462233Y-103430630D03*
X73462233Y-102430630D03*
D14*
X70937233Y-101130630D03*
X70937233Y-106730630D03*
G04 #@! TD*
D10*
G04 #@! TO.C,REF\u002A\u002A*
X13902241Y-72533731D03*
G04 #@! TD*
G04 #@! TO.C,REF\u002A\u002A*
X35059380Y-54612918D03*
G04 #@! TD*
D15*
G04 #@! TO.C,FID2*
X94466433Y-34045430D03*
G04 #@! TD*
G04 #@! TO.C,FID3*
X72172833Y-74109030D03*
G04 #@! TD*
D20*
G04 #@! TO.C,Q1*
X18739274Y-101690564D03*
X20355721Y-100074118D03*
X21972167Y-98457671D03*
D21*
X15901513Y-95619910D03*
G04 #@! TD*
D10*
G04 #@! TO.C,REF\u002A\u002A*
X74794429Y-55195719D03*
G04 #@! TD*
D13*
G04 #@! TO.C,J1*
X34262233Y-105430630D03*
X34262233Y-104430630D03*
X34262233Y-103430630D03*
X34262233Y-102430630D03*
D14*
X31737233Y-106730630D03*
X31737233Y-101130630D03*
G04 #@! TD*
D10*
G04 #@! TO.C,REF\u002A\u002A*
X36096050Y-16607548D03*
G04 #@! TD*
D15*
G04 #@! TO.C,FID1*
X112388833Y-16113030D03*
G04 #@! TD*
D20*
G04 #@! TO.C,Q1*
X97139274Y-62490564D03*
X98755721Y-60874118D03*
X100372167Y-59257671D03*
D21*
X94301513Y-56419910D03*
G04 #@! TD*
D10*
G04 #@! TO.C,REF\u002A\u002A*
X54666344Y-35119006D03*
G04 #@! TD*
D17*
G04 #@! TO.C,C1*
X108641827Y-112085224D03*
X106732639Y-110176036D03*
G04 #@! TD*
D20*
G04 #@! TO.C,Q1*
X18739274Y-23290564D03*
X20355721Y-21674118D03*
X21972167Y-20057671D03*
D21*
X15901513Y-17219910D03*
G04 #@! TD*
D15*
G04 #@! TO.C,FID2*
X16066433Y-73245430D03*
G04 #@! TD*
G04 #@! TO.C,FID2*
X55266433Y-34045430D03*
G04 #@! TD*
D10*
G04 #@! TO.C,REF\u002A\u002A*
X114496050Y-55807547D03*
G04 #@! TD*
D11*
G04 #@! TO.C,J2*
X64212233Y-112505630D03*
G04 #@! TD*
D10*
G04 #@! TO.C,REF\u002A\u002A*
X14911891Y-112953430D03*
G04 #@! TD*
G04 #@! TO.C,REF\u002A\u002A*
X74259380Y-15412919D03*
G04 #@! TD*
D12*
G04 #@! TO.C,R1*
X96209870Y-69866393D03*
X97376596Y-68699667D03*
G04 #@! TD*
D10*
G04 #@! TO.C,REF\u002A\u002A*
X14389985Y-112357724D03*
G04 #@! TD*
D12*
G04 #@! TO.C,R2*
X16514470Y-29320193D03*
X17681196Y-28153467D03*
G04 #@! TD*
G04 #@! TO.C,R1*
X17809870Y-109066393D03*
X18976596Y-107899667D03*
G04 #@! TD*
D10*
G04 #@! TO.C,REF\u002A\u002A*
X75296050Y-95007547D03*
G04 #@! TD*
D18*
G04 #@! TO.C,U1*
X30150852Y-69394249D03*
X31623614Y-70867011D03*
D19*
X31470950Y-69546913D03*
X30303516Y-70714347D03*
G04 #@! TD*
D10*
G04 #@! TO.C,REF\u002A\u002A*
X93311890Y-34553430D03*
G04 #@! TD*
D17*
G04 #@! TO.C,C1*
X30241827Y-72885224D03*
X28332639Y-70976036D03*
G04 #@! TD*
D15*
G04 #@! TO.C,FID1*
X33988833Y-94513030D03*
G04 #@! TD*
D10*
G04 #@! TO.C,REF\u002A\u002A*
X36096050Y-55807547D03*
G04 #@! TD*
D11*
G04 #@! TO.C,J2*
X25012233Y-73305630D03*
G04 #@! TD*
D10*
G04 #@! TO.C,REF\u002A\u002A*
X74259380Y-93812918D03*
G04 #@! TD*
D12*
G04 #@! TO.C,R2*
X94914470Y-68520193D03*
X96081196Y-67353467D03*
G04 #@! TD*
D10*
G04 #@! TO.C,REF\u002A\u002A*
X53102240Y-72533731D03*
G04 #@! TD*
G04 #@! TO.C,REF\u002A\u002A*
X75296050Y-55807547D03*
G04 #@! TD*
D20*
G04 #@! TO.C,Q1*
X18739274Y-62490564D03*
X20355721Y-60874118D03*
X21972167Y-59257671D03*
D21*
X15901513Y-56419910D03*
G04 #@! TD*
D20*
G04 #@! TO.C,Q1*
X57939274Y-62490564D03*
X59555721Y-60874118D03*
X61172167Y-59257671D03*
D21*
X55101513Y-56419910D03*
G04 #@! TD*
D16*
G04 #@! TO.C,D1*
X58697284Y-72220579D03*
X60677182Y-70240681D03*
G04 #@! TD*
D18*
G04 #@! TO.C,U1*
X30150852Y-30194249D03*
X31623614Y-31667011D03*
D19*
X31470950Y-30346913D03*
X30303516Y-31514347D03*
G04 #@! TD*
D10*
G04 #@! TO.C,REF\u002A\u002A*
X54111890Y-112953430D03*
G04 #@! TD*
G04 #@! TO.C,REF\u002A\u002A*
X35059380Y-15412919D03*
G04 #@! TD*
D15*
G04 #@! TO.C,FID3*
X32972833Y-113309030D03*
G04 #@! TD*
D10*
G04 #@! TO.C,REF\u002A\u002A*
X92789984Y-73157724D03*
G04 #@! TD*
D13*
G04 #@! TO.C,J1*
X112662233Y-27030630D03*
X112662233Y-26030630D03*
X112662233Y-25030630D03*
X112662233Y-24030630D03*
D14*
X110137233Y-22730630D03*
X110137233Y-28330630D03*
G04 #@! TD*
D10*
G04 #@! TO.C,REF\u002A\u002A*
X35059380Y-93812918D03*
G04 #@! TD*
D16*
G04 #@! TO.C,D1*
X58697284Y-111420579D03*
X60677182Y-109440681D03*
G04 #@! TD*
D13*
G04 #@! TO.C,J1*
X73462233Y-27030630D03*
X73462233Y-26030630D03*
X73462233Y-25030630D03*
X73462233Y-24030630D03*
D14*
X70937233Y-28330630D03*
X70937233Y-22730630D03*
G04 #@! TD*
D10*
G04 #@! TO.C,REF\u002A\u002A*
X93866344Y-35119006D03*
G04 #@! TD*
G04 #@! TO.C,REF\u002A\u002A*
X113459380Y-15412919D03*
G04 #@! TD*
D11*
G04 #@! TO.C,J3*
X103487233Y-16105630D03*
G04 #@! TD*
D20*
G04 #@! TO.C,Q1*
X97139274Y-23290564D03*
X98755721Y-21674118D03*
X100372167Y-20057671D03*
D21*
X94301513Y-17219910D03*
G04 #@! TD*
D15*
G04 #@! TO.C,FID1*
X112388833Y-55313030D03*
G04 #@! TD*
D10*
G04 #@! TO.C,REF\u002A\u002A*
X93866344Y-74319006D03*
G04 #@! TD*
D11*
G04 #@! TO.C,J2*
X25012233Y-112505630D03*
G04 #@! TD*
D10*
G04 #@! TO.C,REF\u002A\u002A*
X113994429Y-94395719D03*
G04 #@! TD*
D15*
G04 #@! TO.C,REF\u002A\u002A*
X4000000Y-125597842D03*
G04 #@! TD*
G04 #@! TO.C,FID1*
X33988833Y-16113030D03*
G04 #@! TD*
D17*
G04 #@! TO.C,C1*
X108641827Y-33685224D03*
X106732639Y-31776036D03*
G04 #@! TD*
D15*
G04 #@! TO.C,FID2*
X55266433Y-73245430D03*
G04 #@! TD*
D11*
G04 #@! TO.C,J3*
X64287233Y-94505630D03*
G04 #@! TD*
D10*
G04 #@! TO.C,REF\u002A\u002A*
X13902241Y-33333731D03*
G04 #@! TD*
D17*
G04 #@! TO.C,C1*
X69441827Y-33685224D03*
X67532639Y-31776036D03*
G04 #@! TD*
D11*
G04 #@! TO.C,J3*
X25087233Y-16105630D03*
G04 #@! TD*
D15*
G04 #@! TO.C,FID3*
X111372833Y-113309030D03*
G04 #@! TD*
D11*
G04 #@! TO.C,J2*
X103412233Y-112505630D03*
G04 #@! TD*
D13*
G04 #@! TO.C,J1*
X73462233Y-66230630D03*
X73462233Y-65230630D03*
X73462233Y-64230630D03*
X73462233Y-63230630D03*
D14*
X70937233Y-61930630D03*
X70937233Y-67530630D03*
G04 #@! TD*
D12*
G04 #@! TO.C,R2*
X16514470Y-68520193D03*
X17681196Y-67353467D03*
G04 #@! TD*
D10*
G04 #@! TO.C,REF\u002A\u002A*
X14389985Y-33957724D03*
G04 #@! TD*
G04 #@! TO.C,REF\u002A\u002A*
X92302240Y-33333731D03*
G04 #@! TD*
D18*
G04 #@! TO.C,U1*
X108550852Y-108594249D03*
X110023614Y-110067011D03*
D19*
X109870950Y-108746913D03*
X108703516Y-109914347D03*
G04 #@! TD*
D17*
G04 #@! TO.C,C1*
X30241827Y-112085224D03*
X28332639Y-110176036D03*
G04 #@! TD*
D15*
G04 #@! TO.C,FID1*
X33988833Y-55313030D03*
G04 #@! TD*
G04 #@! TO.C,FID3*
X111372833Y-74109030D03*
G04 #@! TD*
D12*
G04 #@! TO.C,R2*
X94914470Y-29320193D03*
X96081196Y-28153467D03*
G04 #@! TD*
D15*
G04 #@! TO.C,FID3*
X32972833Y-34909030D03*
G04 #@! TD*
D18*
G04 #@! TO.C,U1*
X108550852Y-69394249D03*
X110023614Y-70867011D03*
D19*
X109870950Y-69546913D03*
X108703516Y-70714347D03*
G04 #@! TD*
D10*
G04 #@! TO.C,REF\u002A\u002A*
X34492557Y-54060942D03*
G04 #@! TD*
G04 #@! TO.C,REF\u002A\u002A*
X14911891Y-73753430D03*
G04 #@! TD*
G04 #@! TO.C,REF\u002A\u002A*
X113994429Y-55195719D03*
G04 #@! TD*
D11*
G04 #@! TO.C,J3*
X64287233Y-16105630D03*
G04 #@! TD*
D10*
G04 #@! TO.C,REF\u002A\u002A*
X53589984Y-112357724D03*
G04 #@! TD*
D16*
G04 #@! TO.C,D1*
X58697284Y-33020579D03*
X60677182Y-31040681D03*
G04 #@! TD*
D15*
G04 #@! TO.C,FID3*
X111372833Y-34909030D03*
G04 #@! TD*
D18*
G04 #@! TO.C,U1*
X69350852Y-30194249D03*
X70823614Y-31667011D03*
D19*
X70670950Y-30346913D03*
X69503516Y-31514347D03*
G04 #@! TD*
D12*
G04 #@! TO.C,R2*
X55714470Y-29320193D03*
X56881196Y-28153467D03*
G04 #@! TD*
D10*
G04 #@! TO.C,REF\u002A\u002A*
X34492557Y-14860943D03*
G04 #@! TD*
G04 #@! TO.C,REF\u002A\u002A*
X53102240Y-33333731D03*
G04 #@! TD*
D15*
G04 #@! TO.C,REF\u002A\u002A*
X124595686Y-3000000D03*
G04 #@! TD*
D10*
G04 #@! TO.C,REF\u002A\u002A*
X112892557Y-14860943D03*
G04 #@! TD*
G04 #@! TO.C,REF\u002A\u002A*
X113994429Y-15995720D03*
G04 #@! TD*
D11*
G04 #@! TO.C,J3*
X103487233Y-55305630D03*
G04 #@! TD*
D15*
G04 #@! TO.C,FID2*
X94466433Y-112445430D03*
G04 #@! TD*
D11*
G04 #@! TO.C,J3*
X25087233Y-94505630D03*
G04 #@! TD*
D15*
G04 #@! TO.C,REF\u002A\u002A*
X124595686Y-125597842D03*
G04 #@! TD*
D10*
G04 #@! TO.C,REF\u002A\u002A*
X14911891Y-34553430D03*
G04 #@! TD*
D12*
G04 #@! TO.C,R1*
X57009870Y-109066393D03*
X58176596Y-107899667D03*
G04 #@! TD*
D11*
G04 #@! TO.C,J2*
X25012233Y-34105630D03*
G04 #@! TD*
D22*
G04 #@! TO.C,REF\u002A\u002A*
X124595686Y-121597842D03*
G04 #@! TD*
D12*
G04 #@! TO.C,R2*
X55714470Y-68520193D03*
X56881196Y-67353467D03*
G04 #@! TD*
D13*
G04 #@! TO.C,J1*
X34262233Y-27030630D03*
X34262233Y-26030630D03*
X34262233Y-25030630D03*
X34262233Y-24030630D03*
D14*
X31737233Y-28330630D03*
X31737233Y-22730630D03*
G04 #@! TD*
D11*
G04 #@! TO.C,J2*
X64212233Y-73305630D03*
G04 #@! TD*
D13*
G04 #@! TO.C,J1*
X34262233Y-66230630D03*
X34262233Y-65230630D03*
X34262233Y-64230630D03*
X34262233Y-63230630D03*
D14*
X31737233Y-61930630D03*
X31737233Y-67530630D03*
G04 #@! TD*
D10*
G04 #@! TO.C,REF\u002A\u002A*
X92302240Y-111733731D03*
G04 #@! TD*
G04 #@! TO.C,REF\u002A\u002A*
X112892557Y-93260942D03*
G04 #@! TD*
G04 #@! TO.C,REF\u002A\u002A*
X92302240Y-72533731D03*
G04 #@! TD*
D15*
G04 #@! TO.C,FID1*
X73188833Y-94513030D03*
G04 #@! TD*
D17*
G04 #@! TO.C,C1*
X69441827Y-72885224D03*
X67532639Y-70976036D03*
G04 #@! TD*
D13*
G04 #@! TO.C,J1*
X112662233Y-105430630D03*
X112662233Y-104430630D03*
X112662233Y-103430630D03*
X112662233Y-102430630D03*
D14*
X110137233Y-101130630D03*
X110137233Y-106730630D03*
G04 #@! TD*
D16*
G04 #@! TO.C,D1*
X97897284Y-33020579D03*
X99877182Y-31040681D03*
G04 #@! TD*
D15*
G04 #@! TO.C,FID3*
X72172833Y-34909030D03*
G04 #@! TD*
D18*
G04 #@! TO.C,U1*
X69350852Y-108594249D03*
X70823614Y-110067011D03*
D19*
X70670950Y-108746913D03*
X69503516Y-109914347D03*
G04 #@! TD*
D20*
G04 #@! TO.C,Q1*
X57939274Y-23290564D03*
X59555721Y-21674118D03*
X61172167Y-20057671D03*
D21*
X55101513Y-17219910D03*
G04 #@! TD*
D15*
G04 #@! TO.C,FID2*
X16066433Y-112445430D03*
G04 #@! TD*
D22*
G04 #@! TO.C,REF\u002A\u002A*
X4000000Y-7000000D03*
G04 #@! TD*
D15*
G04 #@! TO.C,FID1*
X73188833Y-16113030D03*
G04 #@! TD*
D10*
G04 #@! TO.C,REF\u002A\u002A*
X74794429Y-15995720D03*
G04 #@! TD*
D15*
G04 #@! TO.C,FID2*
X94466433Y-73245430D03*
G04 #@! TD*
D10*
G04 #@! TO.C,REF\u002A\u002A*
X74794429Y-94395719D03*
G04 #@! TD*
G04 #@! TO.C,REF\u002A\u002A*
X73692557Y-14860943D03*
G04 #@! TD*
D18*
G04 #@! TO.C,U1*
X108550852Y-30194249D03*
X110023614Y-31667011D03*
D19*
X109870950Y-30346913D03*
X108703516Y-31514347D03*
G04 #@! TD*
D15*
G04 #@! TO.C,FID1*
X73188833Y-55313030D03*
G04 #@! TD*
D20*
G04 #@! TO.C,Q1*
X57939274Y-101690564D03*
X59555721Y-100074118D03*
X61172167Y-98457671D03*
D21*
X55101513Y-95619910D03*
G04 #@! TD*
D10*
G04 #@! TO.C,REF\u002A\u002A*
X93311890Y-112953430D03*
G04 #@! TD*
D15*
G04 #@! TO.C,FID3*
X72172833Y-113309030D03*
G04 #@! TD*
D18*
G04 #@! TO.C,U1*
X30150852Y-108594249D03*
X31623614Y-110067011D03*
D19*
X31470950Y-108746913D03*
X30303516Y-109914347D03*
G04 #@! TD*
D10*
G04 #@! TO.C,REF\u002A\u002A*
X53102240Y-111733731D03*
G04 #@! TD*
G04 #@! TO.C,REF\u002A\u002A*
X93866344Y-113519006D03*
G04 #@! TD*
G04 #@! TO.C,REF\u002A\u002A*
X73692557Y-93260942D03*
G04 #@! TD*
G04 #@! TO.C,REF\u002A\u002A*
X75296050Y-16607548D03*
G04 #@! TD*
D17*
G04 #@! TO.C,C1*
X30241827Y-33685224D03*
X28332639Y-31776036D03*
G04 #@! TD*
D10*
G04 #@! TO.C,REF\u002A\u002A*
X53589984Y-73157724D03*
G04 #@! TD*
D11*
G04 #@! TO.C,J3*
X103487233Y-94505630D03*
G04 #@! TD*
D10*
G04 #@! TO.C,REF\u002A\u002A*
X53589984Y-33957724D03*
G04 #@! TD*
G04 #@! TO.C,REF\u002A\u002A*
X34492557Y-93260942D03*
G04 #@! TD*
D12*
G04 #@! TO.C,R2*
X16514470Y-107720193D03*
X17681196Y-106553467D03*
G04 #@! TD*
G04 #@! TO.C,R2*
X94914470Y-107720193D03*
X96081196Y-106553467D03*
G04 #@! TD*
D16*
G04 #@! TO.C,D1*
X19497284Y-111420579D03*
X21477182Y-109440681D03*
G04 #@! TD*
D11*
G04 #@! TO.C,J2*
X103412233Y-34105630D03*
G04 #@! TD*
G04 #@! TO.C,J2*
X103412233Y-73305630D03*
G04 #@! TD*
D10*
G04 #@! TO.C,REF\u002A\u002A*
X74259380Y-54612918D03*
G04 #@! TD*
D12*
G04 #@! TO.C,R2*
X55714470Y-107720193D03*
X56881196Y-106553467D03*
G04 #@! TD*
D10*
G04 #@! TO.C,REF\u002A\u002A*
X92789984Y-112357724D03*
G04 #@! TD*
D12*
G04 #@! TO.C,R1*
X17809870Y-30666393D03*
X18976596Y-29499667D03*
G04 #@! TD*
D15*
G04 #@! TO.C,FID2*
X16066433Y-34045430D03*
G04 #@! TD*
D10*
G04 #@! TO.C,REF\u002A\u002A*
X93311890Y-73753430D03*
G04 #@! TD*
G04 #@! TO.C,REF\u002A\u002A*
X13902241Y-111733731D03*
G04 #@! TD*
G04 #@! TO.C,REF\u002A\u002A*
X35594429Y-55195719D03*
G04 #@! TD*
D11*
G04 #@! TO.C,J2*
X64212233Y-34105630D03*
G04 #@! TD*
D20*
G04 #@! TO.C,Q1*
X97139274Y-101690564D03*
X98755721Y-100074118D03*
X100372167Y-98457671D03*
D21*
X94301513Y-95619910D03*
G04 #@! TD*
D22*
G04 #@! TO.C,REF\u002A\u002A*
X124595686Y-7000000D03*
G04 #@! TD*
D15*
G04 #@! TO.C,REF\u002A\u002A*
X4000000Y-3000000D03*
G04 #@! TD*
D10*
G04 #@! TO.C,REF\u002A\u002A*
X35594429Y-15995720D03*
G04 #@! TD*
D22*
G04 #@! TO.C,REF\u002A\u002A*
X4000000Y-121597842D03*
G04 #@! TD*
D10*
G04 #@! TO.C,REF\u002A\u002A*
X36096050Y-95007547D03*
G04 #@! TD*
M02*
