M48
; DRILL file {KiCad 6.0.0-d3dd2cf0fa~116~ubuntu20.04.1} date Mon Feb 13 12:59:42 2023
; FORMAT={-:-/ absolute / metric / decimal}
; #@! TF.CreationDate,2023-02-13T12:59:42+00:00
; #@! TF.GenerationSoftware,Kicad,Pcbnew,6.0.0-d3dd2cf0fa~116~ubuntu20.04.1
; #@! TF.FileFunction,MixedPlating,1,2
FMAT,2
METRIC
; #@! TA.AperFunction,Plated,PTH,ViaDrill
T1C0.400
; #@! TA.AperFunction,Plated,PTH,ComponentDrill
T2C1.000
; #@! TA.AperFunction,NonPlated,NPTH,ComponentDrill
T3C0.500
; #@! TA.AperFunction,NonPlated,NPTH,ComponentDrill
T4C3.000
%
G90
G05
T1
X12.653Y-22.387
X12.653Y-61.587
X12.653Y-100.787
X12.653Y-139.987
X12.775Y-28.374
X12.775Y-67.574
X12.775Y-106.774
X12.775Y-145.974
X13.415Y-20.152
X13.415Y-59.352
X13.415Y-98.552
X13.415Y-137.752
X13.729Y-30.859
X13.729Y-70.059
X13.729Y-109.259
X13.729Y-148.459
X15.178Y-33.09
X15.178Y-72.29
X15.178Y-111.49
X15.178Y-150.69
X15.837Y-28.681
X15.837Y-67.881
X15.837Y-107.081
X15.837Y-146.281
X16.912Y-18.306
X16.912Y-57.506
X16.912Y-96.706
X16.912Y-135.906
X17.059Y-34.972
X17.059Y-74.172
X17.059Y-113.372
X17.059Y-152.572
X17.962Y-24.031
X17.962Y-63.231
X17.962Y-102.431
X17.962Y-141.631
X18.137Y-14.406
X18.137Y-53.606
X18.137Y-92.806
X18.137Y-132.006
X18.562Y-31.356
X18.562Y-70.556
X18.562Y-109.756
X18.562Y-148.956
X19.291Y-36.421
X19.291Y-75.621
X19.291Y-114.821
X19.291Y-154.021
X19.387Y-20.681
X19.387Y-59.881
X19.387Y-99.081
X19.387Y-138.281
X19.687Y-30.156
X19.687Y-69.356
X19.687Y-108.556
X19.687Y-147.756
X20.12Y-13.395
X20.12Y-52.595
X20.12Y-91.795
X20.12Y-130.995
X20.387Y-33.931
X20.387Y-73.131
X20.387Y-112.331
X20.387Y-151.531
X21.775Y-37.374
X21.775Y-76.574
X21.775Y-115.774
X21.775Y-154.974
X22.508Y-12.608
X22.508Y-51.808
X22.508Y-91.008
X22.508Y-130.208
X22.687Y-31.231
X22.687Y-70.431
X22.687Y-109.631
X22.687Y-148.831
X23.037Y-33.981
X23.037Y-73.181
X23.037Y-112.381
X23.037Y-151.581
X23.062Y-16.056
X23.062Y-55.256
X23.062Y-94.456
X23.062Y-133.656
X27.037Y-34.606
X27.037Y-73.806
X27.037Y-113.006
X27.037Y-152.206
X27.06Y-37.651
X27.06Y-76.851
X27.06Y-116.051
X27.06Y-155.251
X28.364Y-12.786
X28.364Y-51.986
X28.364Y-91.186
X28.364Y-130.386
X28.787Y-29.531
X28.787Y-68.731
X28.787Y-107.931
X28.787Y-147.131
X29.187Y-34.531
X29.187Y-73.731
X29.187Y-112.931
X29.187Y-152.131
X29.631Y-36.963
X29.631Y-76.163
X29.631Y-115.363
X29.631Y-154.563
X30.848Y-13.74
X30.848Y-52.94
X30.848Y-92.14
X30.848Y-131.34
X32.001Y-35.755
X32.001Y-74.955
X32.001Y-114.155
X32.001Y-153.355
X32.687Y-26.031
X32.687Y-65.231
X32.687Y-104.431
X32.687Y-143.631
X33.079Y-15.189
X33.079Y-54.389
X33.079Y-93.589
X33.079Y-132.789
X33.938Y-34.071
X33.938Y-73.271
X33.938Y-112.471
X33.938Y-151.671
X34.961Y-17.07
X34.961Y-56.27
X34.961Y-95.47
X34.961Y-134.67
X35.462Y-32.293
X35.462Y-71.493
X35.462Y-110.693
X35.462Y-149.893
X36.41Y-19.302
X36.41Y-58.502
X36.41Y-97.702
X36.41Y-136.902
X36.732Y-30.032
X36.732Y-69.232
X36.732Y-108.432
X36.732Y-147.632
X37.364Y-21.786
X37.364Y-60.986
X37.364Y-100.186
X37.364Y-139.386
X37.519Y-27.645
X37.519Y-66.845
X37.519Y-106.045
X37.519Y-145.245
X51.853Y-22.387
X51.853Y-61.587
X51.853Y-100.787
X51.853Y-139.987
X51.975Y-28.374
X51.975Y-67.574
X51.975Y-106.774
X51.975Y-145.974
X52.615Y-20.152
X52.615Y-59.352
X52.615Y-98.552
X52.615Y-137.752
X52.929Y-30.859
X52.929Y-70.059
X52.929Y-109.259
X52.929Y-148.459
X54.378Y-33.09
X54.378Y-72.29
X54.378Y-111.49
X54.378Y-150.69
X55.037Y-28.681
X55.037Y-67.881
X55.037Y-107.081
X55.037Y-146.281
X56.112Y-18.306
X56.112Y-57.506
X56.112Y-96.706
X56.112Y-135.906
X56.259Y-34.972
X56.259Y-74.172
X56.259Y-113.372
X56.259Y-152.572
X57.162Y-24.031
X57.162Y-63.231
X57.162Y-102.431
X57.162Y-141.631
X57.337Y-14.406
X57.337Y-53.606
X57.337Y-92.806
X57.337Y-132.006
X57.762Y-31.356
X57.762Y-70.556
X57.762Y-109.756
X57.762Y-148.956
X58.491Y-36.421
X58.491Y-75.621
X58.491Y-114.821
X58.491Y-154.021
X58.587Y-20.681
X58.587Y-59.881
X58.587Y-99.081
X58.587Y-138.281
X58.887Y-30.156
X58.887Y-69.356
X58.887Y-108.556
X58.887Y-147.756
X59.32Y-13.395
X59.32Y-52.595
X59.32Y-91.795
X59.32Y-130.995
X59.587Y-33.931
X59.587Y-73.131
X59.587Y-112.331
X59.587Y-151.531
X60.975Y-37.374
X60.975Y-76.574
X60.975Y-115.774
X60.975Y-154.974
X61.708Y-12.608
X61.708Y-51.808
X61.708Y-91.008
X61.708Y-130.208
X61.887Y-31.231
X61.887Y-70.431
X61.887Y-109.631
X61.887Y-148.831
X62.237Y-33.981
X62.237Y-73.181
X62.237Y-112.381
X62.237Y-151.581
X62.262Y-16.056
X62.262Y-55.256
X62.262Y-94.456
X62.262Y-133.656
X66.237Y-34.606
X66.237Y-73.806
X66.237Y-113.006
X66.237Y-152.206
X66.26Y-37.651
X66.26Y-76.851
X66.26Y-116.051
X66.26Y-155.251
X67.564Y-12.786
X67.564Y-51.986
X67.564Y-91.186
X67.564Y-130.386
X67.987Y-29.531
X67.987Y-68.731
X67.987Y-107.931
X67.987Y-147.131
X68.387Y-34.531
X68.387Y-73.731
X68.387Y-112.931
X68.387Y-152.131
X68.831Y-36.963
X68.831Y-76.163
X68.831Y-115.363
X68.831Y-154.563
X70.048Y-13.74
X70.048Y-52.94
X70.048Y-92.14
X70.048Y-131.34
X71.201Y-35.755
X71.201Y-74.955
X71.201Y-114.155
X71.201Y-153.355
X71.887Y-26.031
X71.887Y-65.231
X71.887Y-104.431
X71.887Y-143.631
X72.279Y-15.189
X72.279Y-54.389
X72.279Y-93.589
X72.279Y-132.789
X73.138Y-34.071
X73.138Y-73.271
X73.138Y-112.471
X73.138Y-151.671
X74.161Y-17.07
X74.161Y-56.27
X74.161Y-95.47
X74.161Y-134.67
X74.662Y-32.293
X74.662Y-71.493
X74.662Y-110.693
X74.662Y-149.893
X75.61Y-19.302
X75.61Y-58.502
X75.61Y-97.702
X75.61Y-136.902
X75.932Y-30.032
X75.932Y-69.232
X75.932Y-108.432
X75.932Y-147.632
X76.564Y-21.786
X76.564Y-60.986
X76.564Y-100.186
X76.564Y-139.386
X76.719Y-27.645
X76.719Y-66.845
X76.719Y-106.045
X76.719Y-145.245
X91.053Y-22.387
X91.053Y-61.587
X91.053Y-100.787
X91.053Y-139.987
X91.175Y-28.374
X91.175Y-67.574
X91.175Y-106.774
X91.175Y-145.974
X91.815Y-20.152
X91.815Y-59.352
X91.815Y-98.552
X91.815Y-137.752
X92.129Y-30.859
X92.129Y-70.059
X92.129Y-109.259
X92.129Y-148.459
X93.578Y-33.09
X93.578Y-72.29
X93.578Y-111.49
X93.578Y-150.69
X94.237Y-28.681
X94.237Y-67.881
X94.237Y-107.081
X94.237Y-146.281
X95.312Y-18.306
X95.312Y-57.506
X95.312Y-96.706
X95.312Y-135.906
X95.459Y-34.972
X95.459Y-74.172
X95.459Y-113.372
X95.459Y-152.572
X96.362Y-24.031
X96.362Y-63.231
X96.362Y-102.431
X96.362Y-141.631
X96.537Y-14.406
X96.537Y-53.606
X96.537Y-92.806
X96.537Y-132.006
X96.962Y-31.356
X96.962Y-70.556
X96.962Y-109.756
X96.962Y-148.956
X97.691Y-36.421
X97.691Y-75.621
X97.691Y-114.821
X97.691Y-154.021
X97.787Y-20.681
X97.787Y-59.881
X97.787Y-99.081
X97.787Y-138.281
X98.087Y-30.156
X98.087Y-69.356
X98.087Y-108.556
X98.087Y-147.756
X98.52Y-13.395
X98.52Y-52.595
X98.52Y-91.795
X98.52Y-130.995
X98.787Y-33.931
X98.787Y-73.131
X98.787Y-112.331
X98.787Y-151.531
X100.175Y-37.374
X100.175Y-76.574
X100.175Y-115.774
X100.175Y-154.974
X100.908Y-12.608
X100.908Y-51.808
X100.908Y-91.008
X100.908Y-130.208
X101.087Y-31.231
X101.087Y-70.431
X101.087Y-109.631
X101.087Y-148.831
X101.437Y-33.981
X101.437Y-73.181
X101.437Y-112.381
X101.437Y-151.581
X101.462Y-16.056
X101.462Y-55.256
X101.462Y-94.456
X101.462Y-133.656
X105.437Y-34.606
X105.437Y-73.806
X105.437Y-113.006
X105.437Y-152.206
X105.46Y-37.651
X105.46Y-76.851
X105.46Y-116.051
X105.46Y-155.251
X106.764Y-12.786
X106.764Y-51.986
X106.764Y-91.186
X106.764Y-130.386
X107.187Y-29.531
X107.187Y-68.731
X107.187Y-107.931
X107.187Y-147.131
X107.587Y-34.531
X107.587Y-73.731
X107.587Y-112.931
X107.587Y-152.131
X108.031Y-36.963
X108.031Y-76.163
X108.031Y-115.363
X108.031Y-154.563
X109.248Y-13.74
X109.248Y-52.94
X109.248Y-92.14
X109.248Y-131.34
X110.401Y-35.755
X110.401Y-74.955
X110.401Y-114.155
X110.401Y-153.355
X111.087Y-26.031
X111.087Y-65.231
X111.087Y-104.431
X111.087Y-143.631
X111.479Y-15.189
X111.479Y-54.389
X111.479Y-93.589
X111.479Y-132.789
X112.338Y-34.071
X112.338Y-73.271
X112.338Y-112.471
X112.338Y-151.671
X113.361Y-17.07
X113.361Y-56.27
X113.361Y-95.47
X113.361Y-134.67
X113.862Y-32.293
X113.862Y-71.493
X113.862Y-110.693
X113.862Y-149.893
X114.81Y-19.302
X114.81Y-58.502
X114.81Y-97.702
X114.81Y-136.902
X115.132Y-30.032
X115.132Y-69.232
X115.132Y-108.432
X115.132Y-147.632
X115.764Y-21.786
X115.764Y-60.986
X115.764Y-100.186
X115.764Y-139.386
X115.919Y-27.645
X115.919Y-66.845
X115.919Y-106.045
X115.919Y-145.245
X130.253Y-22.387
X130.253Y-61.587
X130.253Y-100.787
X130.253Y-139.987
X130.375Y-28.374
X130.375Y-67.574
X130.375Y-106.774
X130.375Y-145.974
X131.015Y-20.152
X131.015Y-59.352
X131.015Y-98.552
X131.015Y-137.752
X131.329Y-30.859
X131.329Y-70.059
X131.329Y-109.259
X131.329Y-148.459
X132.778Y-33.09
X132.778Y-72.29
X132.778Y-111.49
X132.778Y-150.69
X133.437Y-28.681
X133.437Y-67.881
X133.437Y-107.081
X133.437Y-146.281
X134.512Y-18.306
X134.512Y-57.506
X134.512Y-96.706
X134.512Y-135.906
X134.659Y-34.972
X134.659Y-74.172
X134.659Y-113.372
X134.659Y-152.572
X135.562Y-24.031
X135.562Y-63.231
X135.562Y-102.431
X135.562Y-141.631
X135.737Y-14.406
X135.737Y-53.606
X135.737Y-92.806
X135.737Y-132.006
X136.162Y-31.356
X136.162Y-70.556
X136.162Y-109.756
X136.162Y-148.956
X136.891Y-36.421
X136.891Y-75.621
X136.891Y-114.821
X136.891Y-154.021
X136.987Y-20.681
X136.987Y-59.881
X136.987Y-99.081
X136.987Y-138.281
X137.287Y-30.156
X137.287Y-69.356
X137.287Y-108.556
X137.287Y-147.756
X137.72Y-13.395
X137.72Y-52.595
X137.72Y-91.795
X137.72Y-130.995
X137.987Y-33.931
X137.987Y-73.131
X137.987Y-112.331
X137.987Y-151.531
X139.375Y-37.374
X139.375Y-76.574
X139.375Y-115.774
X139.375Y-154.974
X140.108Y-12.608
X140.108Y-51.808
X140.108Y-91.008
X140.108Y-130.208
X140.287Y-31.231
X140.287Y-70.431
X140.287Y-109.631
X140.287Y-148.831
X140.637Y-33.981
X140.637Y-73.181
X140.637Y-112.381
X140.637Y-151.581
X140.662Y-16.056
X140.662Y-55.256
X140.662Y-94.456
X140.662Y-133.656
X144.637Y-34.606
X144.637Y-73.806
X144.637Y-113.006
X144.637Y-152.206
X144.66Y-37.651
X144.66Y-76.851
X144.66Y-116.051
X144.66Y-155.251
X145.964Y-12.786
X145.964Y-51.986
X145.964Y-91.186
X145.964Y-130.386
X146.387Y-29.531
X146.387Y-68.731
X146.387Y-107.931
X146.387Y-147.131
X146.787Y-34.531
X146.787Y-73.731
X146.787Y-112.931
X146.787Y-152.131
X147.231Y-36.963
X147.231Y-76.163
X147.231Y-115.363
X147.231Y-154.563
X148.448Y-13.74
X148.448Y-52.94
X148.448Y-92.14
X148.448Y-131.34
X149.601Y-35.755
X149.601Y-74.955
X149.601Y-114.155
X149.601Y-153.355
X150.287Y-26.031
X150.287Y-65.231
X150.287Y-104.431
X150.287Y-143.631
X150.679Y-15.189
X150.679Y-54.389
X150.679Y-93.589
X150.679Y-132.789
X151.538Y-34.071
X151.538Y-73.271
X151.538Y-112.471
X151.538Y-151.671
X152.561Y-17.07
X152.561Y-56.27
X152.561Y-95.47
X152.561Y-134.67
X153.062Y-32.293
X153.062Y-71.493
X153.062Y-110.693
X153.062Y-149.893
X154.01Y-19.302
X154.01Y-58.502
X154.01Y-97.702
X154.01Y-136.902
X154.332Y-30.032
X154.332Y-69.232
X154.332Y-108.432
X154.332Y-147.632
X154.964Y-21.786
X154.964Y-60.986
X154.964Y-100.186
X154.964Y-139.386
X155.119Y-27.645
X155.119Y-66.845
X155.119Y-106.045
X155.119Y-145.245
T3
X13.616Y-32.929
X13.616Y-72.129
X13.616Y-111.329
X13.616Y-150.529
X14.008Y-33.475
X14.008Y-72.675
X14.008Y-111.875
X14.008Y-151.075
X14.426Y-34.002
X14.426Y-73.202
X14.426Y-112.402
X14.426Y-151.602
X14.87Y-34.507
X14.87Y-73.707
X14.87Y-112.907
X14.87Y-152.107
X15.337Y-34.991
X15.337Y-74.191
X15.337Y-113.391
X15.337Y-152.591
X15.827Y-35.451
X15.827Y-74.651
X15.827Y-113.851
X15.827Y-153.051
X34.31Y-14.69
X34.31Y-53.89
X34.31Y-93.09
X34.31Y-132.29
X34.834Y-15.182
X34.834Y-54.382
X34.834Y-93.582
X34.834Y-132.782
X35.335Y-15.698
X35.335Y-54.898
X35.335Y-94.098
X35.335Y-133.298
X35.807Y-16.241
X35.807Y-55.441
X35.807Y-94.641
X35.807Y-133.841
X36.252Y-16.805
X36.252Y-56.005
X36.252Y-95.205
X36.252Y-134.405
X52.816Y-32.929
X52.816Y-72.129
X52.816Y-111.329
X52.816Y-150.529
X53.208Y-33.475
X53.208Y-72.675
X53.208Y-111.875
X53.208Y-151.075
X53.626Y-34.002
X53.626Y-73.202
X53.626Y-112.402
X53.626Y-151.602
X54.07Y-34.507
X54.07Y-73.707
X54.07Y-112.907
X54.07Y-152.107
X54.537Y-34.991
X54.537Y-74.191
X54.537Y-113.391
X54.537Y-152.591
X55.027Y-35.451
X55.027Y-74.651
X55.027Y-113.851
X55.027Y-153.051
X73.51Y-14.69
X73.51Y-53.89
X73.51Y-93.09
X73.51Y-132.29
X74.034Y-15.182
X74.034Y-54.382
X74.034Y-93.582
X74.034Y-132.782
X74.535Y-15.698
X74.535Y-54.898
X74.535Y-94.098
X74.535Y-133.298
X75.007Y-16.241
X75.007Y-55.441
X75.007Y-94.641
X75.007Y-133.841
X75.452Y-16.805
X75.452Y-56.005
X75.452Y-95.205
X75.452Y-134.405
X92.016Y-32.929
X92.016Y-72.129
X92.016Y-111.329
X92.016Y-150.529
X92.408Y-33.475
X92.408Y-72.675
X92.408Y-111.875
X92.408Y-151.075
X92.826Y-34.002
X92.826Y-73.202
X92.826Y-112.402
X92.826Y-151.602
X93.27Y-34.507
X93.27Y-73.707
X93.27Y-112.907
X93.27Y-152.107
X93.737Y-34.991
X93.737Y-74.191
X93.737Y-113.391
X93.737Y-152.591
X94.227Y-35.451
X94.227Y-74.651
X94.227Y-113.851
X94.227Y-153.051
X112.71Y-14.69
X112.71Y-53.89
X112.71Y-93.09
X112.71Y-132.29
X113.234Y-15.182
X113.234Y-54.382
X113.234Y-93.582
X113.234Y-132.782
X113.735Y-15.698
X113.735Y-54.898
X113.735Y-94.098
X113.735Y-133.298
X114.207Y-16.241
X114.207Y-55.441
X114.207Y-94.641
X114.207Y-133.841
X114.652Y-16.805
X114.652Y-56.005
X114.652Y-95.205
X114.652Y-134.405
X131.216Y-32.929
X131.216Y-72.129
X131.216Y-111.329
X131.216Y-150.529
X131.608Y-33.475
X131.608Y-72.675
X131.608Y-111.875
X131.608Y-151.075
X132.026Y-34.002
X132.026Y-73.202
X132.026Y-112.402
X132.026Y-151.602
X132.47Y-34.507
X132.47Y-73.707
X132.47Y-112.907
X132.47Y-152.107
X132.937Y-34.991
X132.937Y-74.191
X132.937Y-113.391
X132.937Y-152.591
X133.427Y-35.451
X133.427Y-74.651
X133.427Y-113.851
X133.427Y-153.051
X151.91Y-14.69
X151.91Y-53.89
X151.91Y-93.09
X151.91Y-132.29
X152.434Y-15.182
X152.434Y-54.382
X152.434Y-93.582
X152.434Y-132.782
X152.935Y-15.698
X152.935Y-54.898
X152.935Y-94.098
X152.935Y-133.298
X153.407Y-16.241
X153.407Y-55.441
X153.407Y-94.641
X153.407Y-133.841
X153.852Y-16.805
X153.852Y-56.005
X153.852Y-95.205
X153.852Y-134.405
T4
X4.0Y-7.0
X4.0Y-160.798
X163.796Y-7.0
X163.796Y-160.798
T2
X25.012Y-33.106G85X25.012Y-35.106
G05
X25.012Y-72.306G85X25.012Y-74.306
G05
X25.012Y-111.506G85X25.012Y-113.506
G05
X25.012Y-150.706G85X25.012Y-152.706
G05
X25.087Y-15.106G85X25.087Y-17.106
G05
X25.087Y-54.306G85X25.087Y-56.306
G05
X25.087Y-93.506G85X25.087Y-95.506
G05
X25.087Y-132.706G85X25.087Y-134.706
G05
X64.212Y-33.106G85X64.212Y-35.106
G05
X64.212Y-72.306G85X64.212Y-74.306
G05
X64.212Y-111.506G85X64.212Y-113.506
G05
X64.212Y-150.706G85X64.212Y-152.706
G05
X64.287Y-15.106G85X64.287Y-17.106
G05
X64.287Y-54.306G85X64.287Y-56.306
G05
X64.287Y-93.506G85X64.287Y-95.506
G05
X64.287Y-132.706G85X64.287Y-134.706
G05
X103.412Y-33.106G85X103.412Y-35.106
G05
X103.412Y-72.306G85X103.412Y-74.306
G05
X103.412Y-111.506G85X103.412Y-113.506
G05
X103.412Y-150.706G85X103.412Y-152.706
G05
X103.487Y-15.106G85X103.487Y-17.106
G05
X103.487Y-54.306G85X103.487Y-56.306
G05
X103.487Y-93.506G85X103.487Y-95.506
G05
X103.487Y-132.706G85X103.487Y-134.706
G05
X142.612Y-33.106G85X142.612Y-35.106
G05
X142.612Y-72.306G85X142.612Y-74.306
G05
X142.612Y-111.506G85X142.612Y-113.506
G05
X142.612Y-150.706G85X142.612Y-152.706
G05
X142.687Y-15.106G85X142.687Y-17.106
G05
X142.687Y-54.306G85X142.687Y-56.306
G05
X142.687Y-93.506G85X142.687Y-95.506
G05
X142.687Y-132.706G85X142.687Y-134.706
G05
T0
M30
