M48
; DRILL file {KiCad 6.0.0-d3dd2cf0fa~116~ubuntu20.04.1} date Fri Feb 24 20:43:10 2023
; FORMAT={-:-/ absolute / metric / decimal}
; #@! TF.CreationDate,2023-02-24T20:43:10+00:00
; #@! TF.GenerationSoftware,Kicad,Pcbnew,6.0.0-d3dd2cf0fa~116~ubuntu20.04.1
; #@! TF.FileFunction,MixedPlating,1,2
FMAT,2
METRIC
; #@! TA.AperFunction,Plated,PTH,ViaDrill
T1C0.400
; #@! TA.AperFunction,Plated,PTH,ComponentDrill
T2C1.000
; #@! TA.AperFunction,NonPlated,NPTH,ComponentDrill
T3C0.500
; #@! TA.AperFunction,NonPlated,NPTH,ComponentDrill
T4C3.000
%
G90
G05
T1
X12.653Y-22.387
X12.653Y-61.587
X12.653Y-100.787
X12.775Y-28.374
X12.775Y-67.574
X12.775Y-106.774
X13.415Y-20.152
X13.415Y-59.352
X13.415Y-98.552
X13.729Y-30.859
X13.729Y-70.059
X13.729Y-109.259
X15.178Y-33.09
X15.178Y-72.29
X15.178Y-111.49
X15.837Y-28.681
X15.837Y-67.881
X15.837Y-107.081
X16.912Y-18.306
X16.912Y-57.506
X16.912Y-96.706
X17.059Y-34.972
X17.059Y-74.172
X17.059Y-113.372
X17.962Y-24.031
X17.962Y-63.231
X17.962Y-102.431
X18.137Y-14.406
X18.137Y-53.606
X18.137Y-92.806
X18.562Y-31.356
X18.562Y-70.556
X18.562Y-109.756
X19.291Y-36.421
X19.291Y-75.621
X19.291Y-114.821
X19.387Y-20.681
X19.387Y-59.881
X19.387Y-99.081
X19.687Y-30.156
X19.687Y-69.356
X19.687Y-108.556
X20.12Y-13.395
X20.12Y-52.595
X20.12Y-91.795
X20.387Y-33.931
X20.387Y-73.131
X20.387Y-112.331
X21.775Y-37.374
X21.775Y-76.574
X21.775Y-115.774
X22.508Y-12.608
X22.508Y-51.808
X22.508Y-91.008
X22.687Y-31.231
X22.687Y-70.431
X22.687Y-109.631
X23.037Y-33.981
X23.037Y-73.181
X23.037Y-112.381
X23.062Y-16.056
X23.062Y-55.256
X23.062Y-94.456
X27.037Y-34.606
X27.037Y-73.806
X27.037Y-113.006
X27.06Y-37.651
X27.06Y-76.851
X27.06Y-116.051
X28.364Y-12.786
X28.364Y-51.986
X28.364Y-91.186
X28.787Y-29.531
X28.787Y-68.731
X28.787Y-107.931
X29.187Y-34.531
X29.187Y-73.731
X29.187Y-112.931
X29.631Y-36.963
X29.631Y-76.163
X29.631Y-115.363
X30.848Y-13.74
X30.848Y-52.94
X30.848Y-92.14
X32.001Y-35.755
X32.001Y-74.955
X32.001Y-114.155
X32.687Y-26.031
X32.687Y-65.231
X32.687Y-104.431
X33.079Y-15.189
X33.079Y-54.389
X33.079Y-93.589
X33.938Y-34.071
X33.938Y-73.271
X33.938Y-112.471
X34.961Y-17.07
X34.961Y-56.27
X34.961Y-95.47
X35.462Y-32.293
X35.462Y-71.493
X35.462Y-110.693
X36.41Y-19.302
X36.41Y-58.502
X36.41Y-97.702
X36.732Y-30.032
X36.732Y-69.232
X36.732Y-108.432
X37.364Y-21.786
X37.364Y-60.986
X37.364Y-100.186
X37.519Y-27.645
X37.519Y-66.845
X37.519Y-106.045
X51.853Y-22.387
X51.853Y-61.587
X51.853Y-100.787
X51.975Y-28.374
X51.975Y-67.574
X51.975Y-106.774
X52.615Y-20.152
X52.615Y-59.352
X52.615Y-98.552
X52.929Y-30.859
X52.929Y-70.059
X52.929Y-109.259
X54.378Y-33.09
X54.378Y-72.29
X54.378Y-111.49
X55.037Y-28.681
X55.037Y-67.881
X55.037Y-107.081
X56.112Y-18.306
X56.112Y-57.506
X56.112Y-96.706
X56.259Y-34.972
X56.259Y-74.172
X56.259Y-113.372
X57.162Y-24.031
X57.162Y-63.231
X57.162Y-102.431
X57.337Y-14.406
X57.337Y-53.606
X57.337Y-92.806
X57.762Y-31.356
X57.762Y-70.556
X57.762Y-109.756
X58.491Y-36.421
X58.491Y-75.621
X58.491Y-114.821
X58.587Y-20.681
X58.587Y-59.881
X58.587Y-99.081
X58.887Y-30.156
X58.887Y-69.356
X58.887Y-108.556
X59.32Y-13.395
X59.32Y-52.595
X59.32Y-91.795
X59.587Y-33.931
X59.587Y-73.131
X59.587Y-112.331
X60.975Y-37.374
X60.975Y-76.574
X60.975Y-115.774
X61.708Y-12.608
X61.708Y-51.808
X61.708Y-91.008
X61.887Y-31.231
X61.887Y-70.431
X61.887Y-109.631
X62.237Y-33.981
X62.237Y-73.181
X62.237Y-112.381
X62.262Y-16.056
X62.262Y-55.256
X62.262Y-94.456
X66.237Y-34.606
X66.237Y-73.806
X66.237Y-113.006
X66.26Y-37.651
X66.26Y-76.851
X66.26Y-116.051
X67.564Y-12.786
X67.564Y-51.986
X67.564Y-91.186
X67.987Y-29.531
X67.987Y-68.731
X67.987Y-107.931
X68.387Y-34.531
X68.387Y-73.731
X68.387Y-112.931
X68.831Y-36.963
X68.831Y-76.163
X68.831Y-115.363
X70.048Y-13.74
X70.048Y-52.94
X70.048Y-92.14
X71.201Y-35.755
X71.201Y-74.955
X71.201Y-114.155
X71.887Y-26.031
X71.887Y-65.231
X71.887Y-104.431
X72.279Y-15.189
X72.279Y-54.389
X72.279Y-93.589
X73.138Y-34.071
X73.138Y-73.271
X73.138Y-112.471
X74.161Y-17.07
X74.161Y-56.27
X74.161Y-95.47
X74.662Y-32.293
X74.662Y-71.493
X74.662Y-110.693
X75.61Y-19.302
X75.61Y-58.502
X75.61Y-97.702
X75.932Y-30.032
X75.932Y-69.232
X75.932Y-108.432
X76.564Y-21.786
X76.564Y-60.986
X76.564Y-100.186
X76.719Y-27.645
X76.719Y-66.845
X76.719Y-106.045
X91.053Y-22.387
X91.053Y-61.587
X91.053Y-100.787
X91.175Y-28.374
X91.175Y-67.574
X91.175Y-106.774
X91.815Y-20.152
X91.815Y-59.352
X91.815Y-98.552
X92.129Y-30.859
X92.129Y-70.059
X92.129Y-109.259
X93.578Y-33.09
X93.578Y-72.29
X93.578Y-111.49
X94.237Y-28.681
X94.237Y-67.881
X94.237Y-107.081
X95.312Y-18.306
X95.312Y-57.506
X95.312Y-96.706
X95.459Y-34.972
X95.459Y-74.172
X95.459Y-113.372
X96.362Y-24.031
X96.362Y-63.231
X96.362Y-102.431
X96.537Y-14.406
X96.537Y-53.606
X96.537Y-92.806
X96.962Y-31.356
X96.962Y-70.556
X96.962Y-109.756
X97.691Y-36.421
X97.691Y-75.621
X97.691Y-114.821
X97.787Y-20.681
X97.787Y-59.881
X97.787Y-99.081
X98.087Y-30.156
X98.087Y-69.356
X98.087Y-108.556
X98.52Y-13.395
X98.52Y-52.595
X98.52Y-91.795
X98.787Y-33.931
X98.787Y-73.131
X98.787Y-112.331
X100.175Y-37.374
X100.175Y-76.574
X100.175Y-115.774
X100.908Y-12.608
X100.908Y-51.808
X100.908Y-91.008
X101.087Y-31.231
X101.087Y-70.431
X101.087Y-109.631
X101.437Y-33.981
X101.437Y-73.181
X101.437Y-112.381
X101.462Y-16.056
X101.462Y-55.256
X101.462Y-94.456
X105.437Y-34.606
X105.437Y-73.806
X105.437Y-113.006
X105.46Y-37.651
X105.46Y-76.851
X105.46Y-116.051
X106.764Y-12.786
X106.764Y-51.986
X106.764Y-91.186
X107.187Y-29.531
X107.187Y-68.731
X107.187Y-107.931
X107.587Y-34.531
X107.587Y-73.731
X107.587Y-112.931
X108.031Y-36.963
X108.031Y-76.163
X108.031Y-115.363
X109.248Y-13.74
X109.248Y-52.94
X109.248Y-92.14
X110.401Y-35.755
X110.401Y-74.955
X110.401Y-114.155
X111.087Y-26.031
X111.087Y-65.231
X111.087Y-104.431
X111.479Y-15.189
X111.479Y-54.389
X111.479Y-93.589
X112.338Y-34.071
X112.338Y-73.271
X112.338Y-112.471
X113.361Y-17.07
X113.361Y-56.27
X113.361Y-95.47
X113.862Y-32.293
X113.862Y-71.493
X113.862Y-110.693
X114.81Y-19.302
X114.81Y-58.502
X114.81Y-97.702
X115.132Y-30.032
X115.132Y-69.232
X115.132Y-108.432
X115.764Y-21.786
X115.764Y-60.986
X115.764Y-100.186
X115.919Y-27.645
X115.919Y-66.845
X115.919Y-106.045
T3
X13.902Y-33.334
X13.902Y-72.534
X13.902Y-111.734
X14.39Y-33.958
X14.39Y-73.158
X14.39Y-112.358
X14.912Y-34.553
X14.912Y-73.753
X14.912Y-112.953
X15.466Y-35.119
X15.466Y-74.319
X15.466Y-113.519
X34.493Y-14.861
X34.493Y-54.061
X34.493Y-93.261
X35.059Y-15.413
X35.059Y-54.613
X35.059Y-93.813
X35.594Y-15.996
X35.594Y-55.196
X35.594Y-94.396
X36.096Y-16.608
X36.096Y-55.808
X36.096Y-95.008
X53.102Y-33.334
X53.102Y-72.534
X53.102Y-111.734
X53.59Y-33.958
X53.59Y-73.158
X53.59Y-112.358
X54.112Y-34.553
X54.112Y-73.753
X54.112Y-112.953
X54.666Y-35.119
X54.666Y-74.319
X54.666Y-113.519
X73.693Y-14.861
X73.693Y-54.061
X73.693Y-93.261
X74.259Y-15.413
X74.259Y-54.613
X74.259Y-93.813
X74.794Y-15.996
X74.794Y-55.196
X74.794Y-94.396
X75.296Y-16.608
X75.296Y-55.808
X75.296Y-95.008
X92.302Y-33.334
X92.302Y-72.534
X92.302Y-111.734
X92.79Y-33.958
X92.79Y-73.158
X92.79Y-112.358
X93.312Y-34.553
X93.312Y-73.753
X93.312Y-112.953
X93.866Y-35.119
X93.866Y-74.319
X93.866Y-113.519
X112.893Y-14.861
X112.893Y-54.061
X112.893Y-93.261
X113.459Y-15.413
X113.459Y-54.613
X113.459Y-93.813
X113.994Y-15.996
X113.994Y-55.196
X113.994Y-94.396
X114.496Y-16.608
X114.496Y-55.808
X114.496Y-95.008
T4
X4.0Y-7.0
X4.0Y-121.598
X124.596Y-7.0
X124.596Y-121.598
T2
X25.012Y-33.106G85X25.012Y-35.106
G05
X25.012Y-72.306G85X25.012Y-74.306
G05
X25.012Y-111.506G85X25.012Y-113.506
G05
X25.087Y-15.106G85X25.087Y-17.106
G05
X25.087Y-54.306G85X25.087Y-56.306
G05
X25.087Y-93.506G85X25.087Y-95.506
G05
X64.212Y-33.106G85X64.212Y-35.106
G05
X64.212Y-72.306G85X64.212Y-74.306
G05
X64.212Y-111.506G85X64.212Y-113.506
G05
X64.287Y-15.106G85X64.287Y-17.106
G05
X64.287Y-54.306G85X64.287Y-56.306
G05
X64.287Y-93.506G85X64.287Y-95.506
G05
X103.412Y-33.106G85X103.412Y-35.106
G05
X103.412Y-72.306G85X103.412Y-74.306
G05
X103.412Y-111.506G85X103.412Y-113.506
G05
X103.487Y-15.106G85X103.487Y-17.106
G05
X103.487Y-54.306G85X103.487Y-56.306
G05
X103.487Y-93.506G85X103.487Y-95.506
G05
T0
M30
