G04 #@! TF.GenerationSoftware,KiCad,Pcbnew,6.0.0-d3dd2cf0fa~116~ubuntu20.04.1*
G04 #@! TF.CreationDate,2023-02-13T13:45:33+00:00*
G04 #@! TF.ProjectId,pixel-pump-motor-board-panel,70697865-6c2d-4707-956d-702d6d6f746f,rev?*
G04 #@! TF.SameCoordinates,Original*
G04 #@! TF.FileFunction,Legend,Bot*
G04 #@! TF.FilePolarity,Positive*
%FSLAX46Y46*%
G04 Gerber Fmt 4.6, Leading zero omitted, Abs format (unit mm)*
G04 Created by KiCad (PCBNEW 6.0.0-d3dd2cf0fa~116~ubuntu20.04.1) date 2023-02-13 13:45:33*
%MOMM*%
%LPD*%
G01*
G04 APERTURE LIST*
%ADD10C,0.120000*%
G04 APERTURE END LIST*
D10*
G04 #@! TO.C,J8*
X23797233Y-36477630D02*
X23797233Y-38877630D01*
X23797233Y-38877630D02*
X26197233Y-38877630D01*
X26197233Y-36477630D02*
X23797233Y-36477630D01*
X26197233Y-38877630D02*
X26197233Y-36477630D01*
G04 #@! TO.C,J5*
X78097233Y-23930030D02*
X75697233Y-23930030D01*
X78097233Y-26330030D02*
X78097233Y-23930030D01*
X75697233Y-26330030D02*
X78097233Y-26330030D01*
X75697233Y-23930030D02*
X75697233Y-26330030D01*
G04 #@! TO.C,J8*
X102197233Y-114877630D02*
X102197233Y-117277630D01*
X104597233Y-117277630D02*
X104597233Y-114877630D01*
X102197233Y-117277630D02*
X104597233Y-117277630D01*
X104597233Y-114877630D02*
X102197233Y-114877630D01*
G04 #@! TO.C,J5*
X78097233Y-102330030D02*
X75697233Y-102330030D01*
X78097233Y-104730030D02*
X78097233Y-102330030D01*
X75697233Y-104730030D02*
X78097233Y-104730030D01*
X75697233Y-102330030D02*
X75697233Y-104730030D01*
G04 #@! TO.C,J7*
X65524233Y-13680830D02*
X65524233Y-11280830D01*
X63124233Y-13680830D02*
X65524233Y-13680830D01*
X63124233Y-11280830D02*
X63124233Y-13680830D01*
X65524233Y-11280830D02*
X63124233Y-11280830D01*
G04 #@! TO.C,J8*
X65397233Y-75677630D02*
X62997233Y-75677630D01*
X62997233Y-75677630D02*
X62997233Y-78077630D01*
X65397233Y-78077630D02*
X65397233Y-75677630D01*
X62997233Y-78077630D02*
X65397233Y-78077630D01*
G04 #@! TO.C,J11*
X89700433Y-63180830D02*
X89700433Y-65580830D01*
X89700433Y-65580830D02*
X92100433Y-65580830D01*
X92100433Y-65580830D02*
X92100433Y-63180830D01*
X92100433Y-63180830D02*
X89700433Y-63180830D01*
X50500433Y-23980830D02*
X50500433Y-26380830D01*
X52900433Y-23980830D02*
X50500433Y-23980830D01*
X50500433Y-26380830D02*
X52900433Y-26380830D01*
X52900433Y-26380830D02*
X52900433Y-23980830D01*
X52900433Y-65580830D02*
X52900433Y-63180830D01*
X50500433Y-65580830D02*
X52900433Y-65580830D01*
X52900433Y-63180830D02*
X50500433Y-63180830D01*
X50500433Y-63180830D02*
X50500433Y-65580830D01*
G04 #@! TO.C,J7*
X102324233Y-50480830D02*
X102324233Y-52880830D01*
X104724233Y-50480830D02*
X102324233Y-50480830D01*
X102324233Y-52880830D02*
X104724233Y-52880830D01*
X104724233Y-52880830D02*
X104724233Y-50480830D01*
G04 #@! TO.C,J5*
X78097233Y-65530030D02*
X78097233Y-63130030D01*
X75697233Y-65530030D02*
X78097233Y-65530030D01*
X75697233Y-63130030D02*
X75697233Y-65530030D01*
X78097233Y-63130030D02*
X75697233Y-63130030D01*
G04 #@! TO.C,J7*
X23924233Y-92080830D02*
X26324233Y-92080830D01*
X26324233Y-89680830D02*
X23924233Y-89680830D01*
X26324233Y-92080830D02*
X26324233Y-89680830D01*
X23924233Y-89680830D02*
X23924233Y-92080830D01*
X102324233Y-13680830D02*
X104724233Y-13680830D01*
X104724233Y-11280830D02*
X102324233Y-11280830D01*
X104724233Y-13680830D02*
X104724233Y-11280830D01*
X102324233Y-11280830D02*
X102324233Y-13680830D01*
G04 #@! TO.C,J8*
X62997233Y-114877630D02*
X62997233Y-117277630D01*
X65397233Y-117277630D02*
X65397233Y-114877630D01*
X62997233Y-117277630D02*
X65397233Y-117277630D01*
X65397233Y-114877630D02*
X62997233Y-114877630D01*
X104597233Y-75677630D02*
X102197233Y-75677630D01*
X102197233Y-75677630D02*
X102197233Y-78077630D01*
X104597233Y-78077630D02*
X104597233Y-75677630D01*
X102197233Y-78077630D02*
X104597233Y-78077630D01*
G04 #@! TO.C,J7*
X26324233Y-50480830D02*
X23924233Y-50480830D01*
X23924233Y-52880830D02*
X26324233Y-52880830D01*
X26324233Y-52880830D02*
X26324233Y-50480830D01*
X23924233Y-50480830D02*
X23924233Y-52880830D01*
G04 #@! TO.C,J11*
X13700433Y-23980830D02*
X11300433Y-23980830D01*
X11300433Y-23980830D02*
X11300433Y-26380830D01*
X13700433Y-26380830D02*
X13700433Y-23980830D01*
X11300433Y-26380830D02*
X13700433Y-26380830D01*
G04 #@! TO.C,J8*
X23797233Y-75677630D02*
X23797233Y-78077630D01*
X26197233Y-75677630D02*
X23797233Y-75677630D01*
X23797233Y-78077630D02*
X26197233Y-78077630D01*
X26197233Y-78077630D02*
X26197233Y-75677630D01*
G04 #@! TO.C,J5*
X38897233Y-63130030D02*
X36497233Y-63130030D01*
X36497233Y-63130030D02*
X36497233Y-65530030D01*
X38897233Y-65530030D02*
X38897233Y-63130030D01*
X36497233Y-65530030D02*
X38897233Y-65530030D01*
X38897233Y-23930030D02*
X36497233Y-23930030D01*
X38897233Y-26330030D02*
X38897233Y-23930030D01*
X36497233Y-26330030D02*
X38897233Y-26330030D01*
X36497233Y-23930030D02*
X36497233Y-26330030D01*
X117297233Y-23930030D02*
X114897233Y-23930030D01*
X117297233Y-26330030D02*
X117297233Y-23930030D01*
X114897233Y-23930030D02*
X114897233Y-26330030D01*
X114897233Y-26330030D02*
X117297233Y-26330030D01*
G04 #@! TO.C,J8*
X23797233Y-114877630D02*
X23797233Y-117277630D01*
X26197233Y-117277630D02*
X26197233Y-114877630D01*
X26197233Y-114877630D02*
X23797233Y-114877630D01*
X23797233Y-117277630D02*
X26197233Y-117277630D01*
X104597233Y-36477630D02*
X102197233Y-36477630D01*
X104597233Y-38877630D02*
X104597233Y-36477630D01*
X102197233Y-36477630D02*
X102197233Y-38877630D01*
X102197233Y-38877630D02*
X104597233Y-38877630D01*
G04 #@! TO.C,J7*
X65524233Y-50480830D02*
X63124233Y-50480830D01*
X65524233Y-52880830D02*
X65524233Y-50480830D01*
X63124233Y-50480830D02*
X63124233Y-52880830D01*
X63124233Y-52880830D02*
X65524233Y-52880830D01*
G04 #@! TO.C,J5*
X117297233Y-102330030D02*
X114897233Y-102330030D01*
X114897233Y-102330030D02*
X114897233Y-104730030D01*
X117297233Y-104730030D02*
X117297233Y-102330030D01*
X114897233Y-104730030D02*
X117297233Y-104730030D01*
G04 #@! TO.C,J7*
X102324233Y-89680830D02*
X102324233Y-92080830D01*
X104724233Y-92080830D02*
X104724233Y-89680830D01*
X102324233Y-92080830D02*
X104724233Y-92080830D01*
X104724233Y-89680830D02*
X102324233Y-89680830D01*
G04 #@! TO.C,J11*
X92100433Y-104780830D02*
X92100433Y-102380830D01*
X89700433Y-104780830D02*
X92100433Y-104780830D01*
X89700433Y-102380830D02*
X89700433Y-104780830D01*
X92100433Y-102380830D02*
X89700433Y-102380830D01*
X11300433Y-104780830D02*
X13700433Y-104780830D01*
X11300433Y-102380830D02*
X11300433Y-104780830D01*
X13700433Y-102380830D02*
X11300433Y-102380830D01*
X13700433Y-104780830D02*
X13700433Y-102380830D01*
G04 #@! TO.C,J8*
X62997233Y-38877630D02*
X65397233Y-38877630D01*
X62997233Y-36477630D02*
X62997233Y-38877630D01*
X65397233Y-38877630D02*
X65397233Y-36477630D01*
X65397233Y-36477630D02*
X62997233Y-36477630D01*
G04 #@! TO.C,J7*
X65524233Y-89680830D02*
X63124233Y-89680830D01*
X63124233Y-92080830D02*
X65524233Y-92080830D01*
X65524233Y-92080830D02*
X65524233Y-89680830D01*
X63124233Y-89680830D02*
X63124233Y-92080830D01*
X26324233Y-11280830D02*
X23924233Y-11280830D01*
X23924233Y-11280830D02*
X23924233Y-13680830D01*
X26324233Y-13680830D02*
X26324233Y-11280830D01*
X23924233Y-13680830D02*
X26324233Y-13680830D01*
G04 #@! TO.C,J5*
X38897233Y-104730030D02*
X38897233Y-102330030D01*
X38897233Y-102330030D02*
X36497233Y-102330030D01*
X36497233Y-104730030D02*
X38897233Y-104730030D01*
X36497233Y-102330030D02*
X36497233Y-104730030D01*
G04 #@! TO.C,J11*
X11300433Y-65580830D02*
X13700433Y-65580830D01*
X13700433Y-63180830D02*
X11300433Y-63180830D01*
X11300433Y-63180830D02*
X11300433Y-65580830D01*
X13700433Y-65580830D02*
X13700433Y-63180830D01*
X52900433Y-102380830D02*
X50500433Y-102380830D01*
X52900433Y-104780830D02*
X52900433Y-102380830D01*
X50500433Y-104780830D02*
X52900433Y-104780830D01*
X50500433Y-102380830D02*
X50500433Y-104780830D01*
X89700433Y-23980830D02*
X89700433Y-26380830D01*
X89700433Y-26380830D02*
X92100433Y-26380830D01*
X92100433Y-26380830D02*
X92100433Y-23980830D01*
X92100433Y-23980830D02*
X89700433Y-23980830D01*
G04 #@! TO.C,J5*
X114897233Y-65530030D02*
X117297233Y-65530030D01*
X117297233Y-65530030D02*
X117297233Y-63130030D01*
X117297233Y-63130030D02*
X114897233Y-63130030D01*
X114897233Y-63130030D02*
X114897233Y-65530030D01*
G04 #@! TD*
M02*
