G04 #@! TF.GenerationSoftware,KiCad,Pcbnew,6.0.0-d3dd2cf0fa~116~ubuntu20.04.1*
G04 #@! TF.CreationDate,2023-03-10T13:04:00+00:00*
G04 #@! TF.ProjectId,pixel-pump-motor-board-panel,70697865-6c2d-4707-956d-702d6d6f746f,rev?*
G04 #@! TF.SameCoordinates,Original*
G04 #@! TF.FileFunction,Soldermask,Bot*
G04 #@! TF.FilePolarity,Negative*
%FSLAX46Y46*%
G04 Gerber Fmt 4.6, Leading zero omitted, Abs format (unit mm)*
G04 Created by KiCad (PCBNEW 6.0.0-d3dd2cf0fa~116~ubuntu20.04.1) date 2023-03-10 13:04:00*
%MOMM*%
%LPD*%
G01*
G04 APERTURE LIST*
%ADD10C,0.500000*%
%ADD11C,3.000000*%
%ADD12R,2.000000X2.000000*%
%ADD13C,1.000000*%
G04 APERTURE END LIST*
D10*
G04 #@! TO.C,REF\u002A\u002A*
X35594429Y-94395719D03*
G04 #@! TD*
G04 #@! TO.C,REF\u002A\u002A*
X14389985Y-73157724D03*
G04 #@! TD*
G04 #@! TO.C,REF\u002A\u002A*
X113459380Y-93812918D03*
G04 #@! TD*
G04 #@! TO.C,REF\u002A\u002A*
X114496050Y-16607548D03*
G04 #@! TD*
G04 #@! TO.C,REF\u002A\u002A*
X73692557Y-54060942D03*
G04 #@! TD*
G04 #@! TO.C,REF\u002A\u002A*
X113459380Y-54612918D03*
G04 #@! TD*
G04 #@! TO.C,REF\u002A\u002A*
X54111890Y-73753430D03*
G04 #@! TD*
G04 #@! TO.C,REF\u002A\u002A*
X54666344Y-74319006D03*
G04 #@! TD*
G04 #@! TO.C,REF\u002A\u002A*
X54111890Y-34553430D03*
G04 #@! TD*
G04 #@! TO.C,REF\u002A\u002A*
X54666344Y-113519006D03*
G04 #@! TD*
G04 #@! TO.C,REF\u002A\u002A*
X92789984Y-33957724D03*
G04 #@! TD*
G04 #@! TO.C,REF\u002A\u002A*
X15466345Y-35119006D03*
G04 #@! TD*
G04 #@! TO.C,REF\u002A\u002A*
X15466345Y-74319006D03*
G04 #@! TD*
G04 #@! TO.C,REF\u002A\u002A*
X114496050Y-95007547D03*
G04 #@! TD*
G04 #@! TO.C,REF\u002A\u002A*
X15466345Y-113519006D03*
G04 #@! TD*
G04 #@! TO.C,REF\u002A\u002A*
X112892557Y-54060942D03*
G04 #@! TD*
G04 #@! TO.C,REF\u002A\u002A*
X13902241Y-72533731D03*
G04 #@! TD*
G04 #@! TO.C,REF\u002A\u002A*
X35059380Y-54612918D03*
G04 #@! TD*
G04 #@! TO.C,REF\u002A\u002A*
X74794429Y-55195719D03*
G04 #@! TD*
G04 #@! TO.C,REF\u002A\u002A*
X36096050Y-16607548D03*
G04 #@! TD*
G04 #@! TO.C,REF\u002A\u002A*
X54666344Y-35119006D03*
G04 #@! TD*
G04 #@! TO.C,REF\u002A\u002A*
X114496050Y-55807547D03*
G04 #@! TD*
G04 #@! TO.C,REF\u002A\u002A*
X14911891Y-112953430D03*
G04 #@! TD*
G04 #@! TO.C,REF\u002A\u002A*
X74259380Y-15412919D03*
G04 #@! TD*
G04 #@! TO.C,REF\u002A\u002A*
X14389985Y-112357724D03*
G04 #@! TD*
G04 #@! TO.C,REF\u002A\u002A*
X75296050Y-95007547D03*
G04 #@! TD*
G04 #@! TO.C,REF\u002A\u002A*
X93311890Y-34553430D03*
G04 #@! TD*
G04 #@! TO.C,REF\u002A\u002A*
X36096050Y-55807547D03*
G04 #@! TD*
G04 #@! TO.C,REF\u002A\u002A*
X74259380Y-93812918D03*
G04 #@! TD*
G04 #@! TO.C,REF\u002A\u002A*
X53102240Y-72533731D03*
G04 #@! TD*
G04 #@! TO.C,REF\u002A\u002A*
X75296050Y-55807547D03*
G04 #@! TD*
G04 #@! TO.C,REF\u002A\u002A*
X54111890Y-112953430D03*
G04 #@! TD*
G04 #@! TO.C,REF\u002A\u002A*
X35059380Y-15412919D03*
G04 #@! TD*
G04 #@! TO.C,REF\u002A\u002A*
X92789984Y-73157724D03*
G04 #@! TD*
G04 #@! TO.C,REF\u002A\u002A*
X35059380Y-93812918D03*
G04 #@! TD*
G04 #@! TO.C,REF\u002A\u002A*
X93866344Y-35119006D03*
G04 #@! TD*
G04 #@! TO.C,REF\u002A\u002A*
X113459380Y-15412919D03*
G04 #@! TD*
G04 #@! TO.C,REF\u002A\u002A*
X93866344Y-74319006D03*
G04 #@! TD*
G04 #@! TO.C,REF\u002A\u002A*
X113994429Y-94395719D03*
G04 #@! TD*
G04 #@! TO.C,REF\u002A\u002A*
X13902241Y-33333731D03*
G04 #@! TD*
G04 #@! TO.C,REF\u002A\u002A*
X14389985Y-33957724D03*
G04 #@! TD*
G04 #@! TO.C,REF\u002A\u002A*
X92302240Y-33333731D03*
G04 #@! TD*
G04 #@! TO.C,REF\u002A\u002A*
X34492557Y-54060942D03*
G04 #@! TD*
G04 #@! TO.C,REF\u002A\u002A*
X14911891Y-73753430D03*
G04 #@! TD*
G04 #@! TO.C,REF\u002A\u002A*
X113994429Y-55195719D03*
G04 #@! TD*
G04 #@! TO.C,REF\u002A\u002A*
X53589984Y-112357724D03*
G04 #@! TD*
G04 #@! TO.C,REF\u002A\u002A*
X34492557Y-14860943D03*
G04 #@! TD*
G04 #@! TO.C,REF\u002A\u002A*
X53102240Y-33333731D03*
G04 #@! TD*
G04 #@! TO.C,REF\u002A\u002A*
X112892557Y-14860943D03*
G04 #@! TD*
G04 #@! TO.C,REF\u002A\u002A*
X113994429Y-15995720D03*
G04 #@! TD*
G04 #@! TO.C,REF\u002A\u002A*
X14911891Y-34553430D03*
G04 #@! TD*
D11*
G04 #@! TO.C,REF\u002A\u002A*
X124595686Y-121597842D03*
G04 #@! TD*
D10*
G04 #@! TO.C,REF\u002A\u002A*
X92302240Y-111733731D03*
G04 #@! TD*
G04 #@! TO.C,REF\u002A\u002A*
X112892557Y-93260942D03*
G04 #@! TD*
G04 #@! TO.C,REF\u002A\u002A*
X92302240Y-72533731D03*
G04 #@! TD*
D11*
G04 #@! TO.C,REF\u002A\u002A*
X4000000Y-7000000D03*
G04 #@! TD*
D10*
G04 #@! TO.C,REF\u002A\u002A*
X74794429Y-15995720D03*
G04 #@! TD*
G04 #@! TO.C,REF\u002A\u002A*
X74794429Y-94395719D03*
G04 #@! TD*
G04 #@! TO.C,REF\u002A\u002A*
X73692557Y-14860943D03*
G04 #@! TD*
G04 #@! TO.C,REF\u002A\u002A*
X93311890Y-112953430D03*
G04 #@! TD*
G04 #@! TO.C,REF\u002A\u002A*
X53102240Y-111733731D03*
G04 #@! TD*
G04 #@! TO.C,REF\u002A\u002A*
X93866344Y-113519006D03*
G04 #@! TD*
G04 #@! TO.C,REF\u002A\u002A*
X73692557Y-93260942D03*
G04 #@! TD*
G04 #@! TO.C,REF\u002A\u002A*
X75296050Y-16607548D03*
G04 #@! TD*
G04 #@! TO.C,REF\u002A\u002A*
X53589984Y-73157724D03*
G04 #@! TD*
G04 #@! TO.C,REF\u002A\u002A*
X53589984Y-33957724D03*
G04 #@! TD*
G04 #@! TO.C,REF\u002A\u002A*
X34492557Y-93260942D03*
G04 #@! TD*
G04 #@! TO.C,REF\u002A\u002A*
X74259380Y-54612918D03*
G04 #@! TD*
G04 #@! TO.C,REF\u002A\u002A*
X92789984Y-112357724D03*
G04 #@! TD*
G04 #@! TO.C,REF\u002A\u002A*
X93311890Y-73753430D03*
G04 #@! TD*
G04 #@! TO.C,REF\u002A\u002A*
X13902241Y-111733731D03*
G04 #@! TD*
G04 #@! TO.C,REF\u002A\u002A*
X35594429Y-55195719D03*
G04 #@! TD*
D11*
G04 #@! TO.C,REF\u002A\u002A*
X124595686Y-7000000D03*
G04 #@! TD*
D10*
G04 #@! TO.C,REF\u002A\u002A*
X35594429Y-15995720D03*
G04 #@! TD*
D11*
G04 #@! TO.C,REF\u002A\u002A*
X4000000Y-121597842D03*
G04 #@! TD*
D10*
G04 #@! TO.C,REF\u002A\u002A*
X36096050Y-95007547D03*
G04 #@! TD*
D12*
G04 #@! TO.C,J8*
X24997233Y-37677630D03*
G04 #@! TD*
D13*
G04 #@! TO.C,REF\u002A\u002A*
X4000000Y-3000000D03*
G04 #@! TD*
D12*
G04 #@! TO.C,J5*
X76897233Y-25130030D03*
G04 #@! TD*
G04 #@! TO.C,J8*
X103397233Y-116077630D03*
G04 #@! TD*
G04 #@! TO.C,J5*
X76897233Y-103530030D03*
G04 #@! TD*
G04 #@! TO.C,J7*
X64324233Y-12480830D03*
G04 #@! TD*
G04 #@! TO.C,J8*
X64197233Y-76877630D03*
G04 #@! TD*
G04 #@! TO.C,J11*
X90900433Y-64380830D03*
G04 #@! TD*
G04 #@! TO.C,J11*
X51700433Y-25180830D03*
G04 #@! TD*
G04 #@! TO.C,J11*
X51700433Y-64380830D03*
G04 #@! TD*
D13*
G04 #@! TO.C,REF\u002A\u002A*
X4000000Y-125597842D03*
G04 #@! TD*
D12*
G04 #@! TO.C,J7*
X103524233Y-51680830D03*
G04 #@! TD*
G04 #@! TO.C,J5*
X76897233Y-64330030D03*
G04 #@! TD*
G04 #@! TO.C,J7*
X25124233Y-90880830D03*
G04 #@! TD*
G04 #@! TO.C,J7*
X103524233Y-12480830D03*
G04 #@! TD*
G04 #@! TO.C,J8*
X64197233Y-116077630D03*
G04 #@! TD*
G04 #@! TO.C,J8*
X103397233Y-76877630D03*
G04 #@! TD*
G04 #@! TO.C,J7*
X25124233Y-51680830D03*
G04 #@! TD*
G04 #@! TO.C,J11*
X12500433Y-25180830D03*
G04 #@! TD*
G04 #@! TO.C,J8*
X24997233Y-76877630D03*
G04 #@! TD*
D13*
G04 #@! TO.C,REF\u002A\u002A*
X124595686Y-125597842D03*
G04 #@! TD*
D12*
G04 #@! TO.C,J5*
X37697233Y-64330030D03*
G04 #@! TD*
G04 #@! TO.C,J5*
X37697233Y-25130030D03*
G04 #@! TD*
G04 #@! TO.C,J5*
X116097233Y-25130030D03*
G04 #@! TD*
G04 #@! TO.C,J8*
X24997233Y-116077630D03*
G04 #@! TD*
G04 #@! TO.C,J8*
X103397233Y-37677630D03*
G04 #@! TD*
G04 #@! TO.C,J7*
X64324233Y-51680830D03*
G04 #@! TD*
G04 #@! TO.C,J5*
X116097233Y-103530030D03*
G04 #@! TD*
G04 #@! TO.C,J7*
X103524233Y-90880830D03*
G04 #@! TD*
G04 #@! TO.C,J11*
X90900433Y-103580830D03*
G04 #@! TD*
G04 #@! TO.C,J11*
X12500433Y-103580830D03*
G04 #@! TD*
G04 #@! TO.C,J8*
X64197233Y-37677630D03*
G04 #@! TD*
G04 #@! TO.C,J7*
X64324233Y-90880830D03*
G04 #@! TD*
G04 #@! TO.C,J7*
X25124233Y-12480830D03*
G04 #@! TD*
G04 #@! TO.C,J5*
X37697233Y-103530030D03*
G04 #@! TD*
G04 #@! TO.C,J11*
X12500433Y-64380830D03*
G04 #@! TD*
D13*
G04 #@! TO.C,REF\u002A\u002A*
X124595686Y-3000000D03*
G04 #@! TD*
D12*
G04 #@! TO.C,J11*
X51700433Y-103580830D03*
G04 #@! TD*
G04 #@! TO.C,J11*
X90900433Y-25180830D03*
G04 #@! TD*
G04 #@! TO.C,J5*
X116097233Y-64330030D03*
G04 #@! TD*
M02*
