G04 #@! TF.GenerationSoftware,KiCad,Pcbnew,6.0.0-d3dd2cf0fa~116~ubuntu20.04.1*
G04 #@! TF.CreationDate,2023-02-13T13:45:33+00:00*
G04 #@! TF.ProjectId,pixel-pump-motor-board-panel,70697865-6c2d-4707-956d-702d6d6f746f,rev?*
G04 #@! TF.SameCoordinates,Original*
G04 #@! TF.FileFunction,Soldermask,Bot*
G04 #@! TF.FilePolarity,Negative*
%FSLAX46Y46*%
G04 Gerber Fmt 4.6, Leading zero omitted, Abs format (unit mm)*
G04 Created by KiCad (PCBNEW 6.0.0-d3dd2cf0fa~116~ubuntu20.04.1) date 2023-02-13 13:45:33*
%MOMM*%
%LPD*%
G01*
G04 APERTURE LIST*
%ADD10C,0.500000*%
%ADD11C,3.000000*%
%ADD12R,2.000000X2.000000*%
%ADD13C,1.000000*%
G04 APERTURE END LIST*
D10*
G04 #@! TO.C,REF\u002A\u002A*
X75451958Y-56005189D03*
G04 #@! TD*
G04 #@! TO.C,REF\u002A\u002A*
X92408218Y-33475136D03*
G04 #@! TD*
G04 #@! TO.C,REF\u002A\u002A*
X14426419Y-112401632D03*
G04 #@! TD*
G04 #@! TO.C,REF\u002A\u002A*
X93736677Y-34990933D03*
G04 #@! TD*
G04 #@! TO.C,REF\u002A\u002A*
X14426419Y-73201632D03*
G04 #@! TD*
G04 #@! TO.C,REF\u002A\u002A*
X54536677Y-74190933D03*
G04 #@! TD*
G04 #@! TO.C,REF\u002A\u002A*
X52815960Y-111329033D03*
G04 #@! TD*
G04 #@! TO.C,REF\u002A\u002A*
X15826609Y-74651425D03*
G04 #@! TD*
G04 #@! TO.C,REF\u002A\u002A*
X114651958Y-16805190D03*
G04 #@! TD*
G04 #@! TO.C,REF\u002A\u002A*
X35806646Y-16240673D03*
G04 #@! TD*
G04 #@! TO.C,REF\u002A\u002A*
X93736677Y-74190933D03*
G04 #@! TD*
G04 #@! TO.C,REF\u002A\u002A*
X74034209Y-15182094D03*
G04 #@! TD*
G04 #@! TO.C,REF\u002A\u002A*
X93736677Y-113390933D03*
G04 #@! TD*
G04 #@! TO.C,REF\u002A\u002A*
X75006646Y-94640672D03*
G04 #@! TD*
G04 #@! TO.C,REF\u002A\u002A*
X113234209Y-93582093D03*
G04 #@! TD*
G04 #@! TO.C,REF\u002A\u002A*
X15826609Y-35451425D03*
G04 #@! TD*
G04 #@! TO.C,REF\u002A\u002A*
X93269583Y-34507292D03*
G04 #@! TD*
G04 #@! TO.C,REF\u002A\u002A*
X112710314Y-93089635D03*
G04 #@! TD*
G04 #@! TO.C,REF\u002A\u002A*
X113734505Y-94098445D03*
G04 #@! TD*
G04 #@! TO.C,REF\u002A\u002A*
X13615961Y-111329033D03*
G04 #@! TD*
G04 #@! TO.C,REF\u002A\u002A*
X53208218Y-72675136D03*
G04 #@! TD*
G04 #@! TO.C,REF\u002A\u002A*
X55026608Y-74651425D03*
G04 #@! TD*
G04 #@! TO.C,REF\u002A\u002A*
X92015960Y-32929033D03*
G04 #@! TD*
G04 #@! TO.C,REF\u002A\u002A*
X113234209Y-15182094D03*
G04 #@! TD*
G04 #@! TO.C,REF\u002A\u002A*
X92408218Y-111875136D03*
G04 #@! TD*
G04 #@! TO.C,REF\u002A\u002A*
X13615961Y-72129033D03*
G04 #@! TD*
G04 #@! TO.C,REF\u002A\u002A*
X34834209Y-15182094D03*
G04 #@! TD*
G04 #@! TO.C,REF\u002A\u002A*
X35334505Y-15698446D03*
G04 #@! TD*
G04 #@! TO.C,REF\u002A\u002A*
X92826418Y-112401632D03*
G04 #@! TD*
G04 #@! TO.C,REF\u002A\u002A*
X53626418Y-73201632D03*
G04 #@! TD*
G04 #@! TO.C,REF\u002A\u002A*
X52815960Y-72129033D03*
G04 #@! TD*
G04 #@! TO.C,REF\u002A\u002A*
X54069583Y-34507292D03*
G04 #@! TD*
G04 #@! TO.C,REF\u002A\u002A*
X73510314Y-53889635D03*
G04 #@! TD*
G04 #@! TO.C,REF\u002A\u002A*
X113734505Y-54898445D03*
G04 #@! TD*
G04 #@! TO.C,REF\u002A\u002A*
X73510314Y-14689636D03*
G04 #@! TD*
G04 #@! TO.C,REF\u002A\u002A*
X114651958Y-95205189D03*
G04 #@! TD*
G04 #@! TO.C,REF\u002A\u002A*
X94226608Y-113851425D03*
G04 #@! TD*
G04 #@! TO.C,REF\u002A\u002A*
X114206646Y-16240673D03*
G04 #@! TD*
G04 #@! TO.C,REF\u002A\u002A*
X112710314Y-53889635D03*
G04 #@! TD*
G04 #@! TO.C,REF\u002A\u002A*
X14869584Y-73707292D03*
G04 #@! TD*
G04 #@! TO.C,REF\u002A\u002A*
X34310314Y-53889635D03*
G04 #@! TD*
G04 #@! TO.C,REF\u002A\u002A*
X93269583Y-112907292D03*
G04 #@! TD*
G04 #@! TO.C,REF\u002A\u002A*
X93269583Y-73707292D03*
G04 #@! TD*
G04 #@! TO.C,REF\u002A\u002A*
X35806646Y-94640672D03*
G04 #@! TD*
G04 #@! TO.C,REF\u002A\u002A*
X13615961Y-32929033D03*
G04 #@! TD*
G04 #@! TO.C,REF\u002A\u002A*
X35806646Y-55440672D03*
G04 #@! TD*
G04 #@! TO.C,REF\u002A\u002A*
X75006646Y-55440672D03*
G04 #@! TD*
G04 #@! TO.C,REF\u002A\u002A*
X52815960Y-32929033D03*
G04 #@! TD*
G04 #@! TO.C,REF\u002A\u002A*
X75451958Y-16805190D03*
G04 #@! TD*
G04 #@! TO.C,REF\u002A\u002A*
X54536677Y-113390933D03*
G04 #@! TD*
G04 #@! TO.C,REF\u002A\u002A*
X34834209Y-54382093D03*
G04 #@! TD*
G04 #@! TO.C,REF\u002A\u002A*
X14008219Y-111875136D03*
G04 #@! TD*
G04 #@! TO.C,REF\u002A\u002A*
X53626418Y-112401632D03*
G04 #@! TD*
G04 #@! TO.C,REF\u002A\u002A*
X14426419Y-34001632D03*
G04 #@! TD*
G04 #@! TO.C,REF\u002A\u002A*
X14869584Y-34507292D03*
G04 #@! TD*
G04 #@! TO.C,REF\u002A\u002A*
X74534505Y-15698446D03*
G04 #@! TD*
G04 #@! TO.C,REF\u002A\u002A*
X35334505Y-94098445D03*
G04 #@! TD*
G04 #@! TO.C,REF\u002A\u002A*
X55026608Y-113851425D03*
G04 #@! TD*
G04 #@! TO.C,REF\u002A\u002A*
X74034209Y-93582093D03*
G04 #@! TD*
G04 #@! TO.C,REF\u002A\u002A*
X74534505Y-94098445D03*
G04 #@! TD*
G04 #@! TO.C,REF\u002A\u002A*
X112710314Y-14689636D03*
G04 #@! TD*
G04 #@! TO.C,REF\u002A\u002A*
X92826418Y-34001632D03*
G04 #@! TD*
G04 #@! TO.C,REF\u002A\u002A*
X54069583Y-73707292D03*
G04 #@! TD*
G04 #@! TO.C,REF\u002A\u002A*
X92826418Y-73201632D03*
G04 #@! TD*
G04 #@! TO.C,REF\u002A\u002A*
X54069583Y-112907292D03*
G04 #@! TD*
G04 #@! TO.C,REF\u002A\u002A*
X53208218Y-111875136D03*
G04 #@! TD*
G04 #@! TO.C,REF\u002A\u002A*
X14008219Y-33475136D03*
G04 #@! TD*
G04 #@! TO.C,REF\u002A\u002A*
X55026608Y-35451425D03*
G04 #@! TD*
G04 #@! TO.C,REF\u002A\u002A*
X34834209Y-93582093D03*
G04 #@! TD*
G04 #@! TO.C,REF\u002A\u002A*
X75006646Y-16240673D03*
G04 #@! TD*
G04 #@! TO.C,REF\u002A\u002A*
X34310314Y-93089635D03*
G04 #@! TD*
G04 #@! TO.C,REF\u002A\u002A*
X94226608Y-35451425D03*
G04 #@! TD*
G04 #@! TO.C,REF\u002A\u002A*
X92015960Y-111329033D03*
G04 #@! TD*
G04 #@! TO.C,REF\u002A\u002A*
X75451958Y-95205189D03*
G04 #@! TD*
G04 #@! TO.C,REF\u002A\u002A*
X15336678Y-34990933D03*
G04 #@! TD*
D11*
G04 #@! TO.C,REF\u002A\u002A*
X124595686Y-121597842D03*
G04 #@! TD*
D10*
G04 #@! TO.C,REF\u002A\u002A*
X15336678Y-113390933D03*
G04 #@! TD*
G04 #@! TO.C,REF\u002A\u002A*
X14869584Y-112907292D03*
G04 #@! TD*
G04 #@! TO.C,REF\u002A\u002A*
X36251958Y-56005189D03*
G04 #@! TD*
G04 #@! TO.C,REF\u002A\u002A*
X73510314Y-93089635D03*
G04 #@! TD*
G04 #@! TO.C,REF\u002A\u002A*
X36251958Y-95205189D03*
G04 #@! TD*
D11*
G04 #@! TO.C,REF\u002A\u002A*
X4000000Y-7000000D03*
G04 #@! TD*
D10*
G04 #@! TO.C,REF\u002A\u002A*
X53626418Y-34001632D03*
G04 #@! TD*
G04 #@! TO.C,REF\u002A\u002A*
X113234209Y-54382093D03*
G04 #@! TD*
G04 #@! TO.C,REF\u002A\u002A*
X54536677Y-34990933D03*
G04 #@! TD*
G04 #@! TO.C,REF\u002A\u002A*
X114651958Y-56005189D03*
G04 #@! TD*
G04 #@! TO.C,REF\u002A\u002A*
X92408218Y-72675136D03*
G04 #@! TD*
G04 #@! TO.C,REF\u002A\u002A*
X114206646Y-55440672D03*
G04 #@! TD*
G04 #@! TO.C,REF\u002A\u002A*
X92015960Y-72129033D03*
G04 #@! TD*
G04 #@! TO.C,REF\u002A\u002A*
X53208218Y-33475136D03*
G04 #@! TD*
G04 #@! TO.C,REF\u002A\u002A*
X15336678Y-74190933D03*
G04 #@! TD*
G04 #@! TO.C,REF\u002A\u002A*
X36251958Y-16805190D03*
G04 #@! TD*
G04 #@! TO.C,REF\u002A\u002A*
X74534505Y-54898445D03*
G04 #@! TD*
G04 #@! TO.C,REF\u002A\u002A*
X114206646Y-94640672D03*
G04 #@! TD*
G04 #@! TO.C,REF\u002A\u002A*
X14008219Y-72675136D03*
G04 #@! TD*
G04 #@! TO.C,REF\u002A\u002A*
X15826609Y-113851425D03*
G04 #@! TD*
G04 #@! TO.C,REF\u002A\u002A*
X35334505Y-54898445D03*
G04 #@! TD*
G04 #@! TO.C,REF\u002A\u002A*
X74034209Y-54382093D03*
G04 #@! TD*
G04 #@! TO.C,REF\u002A\u002A*
X113734505Y-15698446D03*
G04 #@! TD*
D11*
G04 #@! TO.C,REF\u002A\u002A*
X124595686Y-7000000D03*
G04 #@! TD*
D10*
G04 #@! TO.C,REF\u002A\u002A*
X34310314Y-14689636D03*
G04 #@! TD*
D11*
G04 #@! TO.C,REF\u002A\u002A*
X4000000Y-121597842D03*
G04 #@! TD*
D10*
G04 #@! TO.C,REF\u002A\u002A*
X94226608Y-74651425D03*
G04 #@! TD*
D12*
G04 #@! TO.C,J8*
X24997233Y-37677630D03*
G04 #@! TD*
D13*
G04 #@! TO.C,REF\u002A\u002A*
X4000000Y-3000000D03*
G04 #@! TD*
D12*
G04 #@! TO.C,J5*
X76897233Y-25130030D03*
G04 #@! TD*
G04 #@! TO.C,J8*
X103397233Y-116077630D03*
G04 #@! TD*
G04 #@! TO.C,J5*
X76897233Y-103530030D03*
G04 #@! TD*
G04 #@! TO.C,J7*
X64324233Y-12480830D03*
G04 #@! TD*
G04 #@! TO.C,J8*
X64197233Y-76877630D03*
G04 #@! TD*
G04 #@! TO.C,J11*
X90900433Y-64380830D03*
G04 #@! TD*
G04 #@! TO.C,J11*
X51700433Y-25180830D03*
G04 #@! TD*
G04 #@! TO.C,J11*
X51700433Y-64380830D03*
G04 #@! TD*
D13*
G04 #@! TO.C,REF\u002A\u002A*
X4000000Y-125597842D03*
G04 #@! TD*
D12*
G04 #@! TO.C,J7*
X103524233Y-51680830D03*
G04 #@! TD*
G04 #@! TO.C,J5*
X76897233Y-64330030D03*
G04 #@! TD*
G04 #@! TO.C,J7*
X25124233Y-90880830D03*
G04 #@! TD*
G04 #@! TO.C,J7*
X103524233Y-12480830D03*
G04 #@! TD*
G04 #@! TO.C,J8*
X64197233Y-116077630D03*
G04 #@! TD*
G04 #@! TO.C,J8*
X103397233Y-76877630D03*
G04 #@! TD*
G04 #@! TO.C,J7*
X25124233Y-51680830D03*
G04 #@! TD*
G04 #@! TO.C,J11*
X12500433Y-25180830D03*
G04 #@! TD*
G04 #@! TO.C,J8*
X24997233Y-76877630D03*
G04 #@! TD*
D13*
G04 #@! TO.C,REF\u002A\u002A*
X124595686Y-125597842D03*
G04 #@! TD*
D12*
G04 #@! TO.C,J5*
X37697233Y-64330030D03*
G04 #@! TD*
G04 #@! TO.C,J5*
X37697233Y-25130030D03*
G04 #@! TD*
G04 #@! TO.C,J5*
X116097233Y-25130030D03*
G04 #@! TD*
G04 #@! TO.C,J8*
X24997233Y-116077630D03*
G04 #@! TD*
G04 #@! TO.C,J8*
X103397233Y-37677630D03*
G04 #@! TD*
G04 #@! TO.C,J7*
X64324233Y-51680830D03*
G04 #@! TD*
G04 #@! TO.C,J5*
X116097233Y-103530030D03*
G04 #@! TD*
G04 #@! TO.C,J7*
X103524233Y-90880830D03*
G04 #@! TD*
G04 #@! TO.C,J11*
X90900433Y-103580830D03*
G04 #@! TD*
G04 #@! TO.C,J11*
X12500433Y-103580830D03*
G04 #@! TD*
G04 #@! TO.C,J8*
X64197233Y-37677630D03*
G04 #@! TD*
G04 #@! TO.C,J7*
X64324233Y-90880830D03*
G04 #@! TD*
G04 #@! TO.C,J7*
X25124233Y-12480830D03*
G04 #@! TD*
G04 #@! TO.C,J5*
X37697233Y-103530030D03*
G04 #@! TD*
G04 #@! TO.C,J11*
X12500433Y-64380830D03*
G04 #@! TD*
D13*
G04 #@! TO.C,REF\u002A\u002A*
X124595686Y-3000000D03*
G04 #@! TD*
D12*
G04 #@! TO.C,J11*
X51700433Y-103580830D03*
G04 #@! TD*
G04 #@! TO.C,J11*
X90900433Y-25180830D03*
G04 #@! TD*
G04 #@! TO.C,J5*
X116097233Y-64330030D03*
G04 #@! TD*
M02*
